  0
SECTION
  2
HEADER
  9
$ACADVER
  1
AC1009
  9
$DWGCODEPAGE
  3
mac-roman
  9
$INSBASE
 10
0.0
 20
0.0
 30
0.0
  9
$EXTMIN
 10
-800.0
 20
-1250.0
 30
0.0
  9
$EXTMAX
 10
0.0
 20
0.0
 30
0.0
  9
$LIMMIN
 10
0.0
 20
0.0
  9
$LIMMAX
 10
12.0
 20
9.0
  9
$ORTHOMODE
 70
     0
  9
$REGENMODE
 70
     1
  9
$FILLMODE
 70
     1
  9
$QTEXTMODE
 70
     0
  9
$MIRRTEXT
 70
     1
  9
$DRAGMODE
 70
     2
  9
$LTSCALE
 40
1.0
  9
$OSMODE
 70
    37
  9
$ATTMODE
 70
     1
  9
$TEXTSIZE
 40
0.2
  9
$TRACEWID
 40
0.05
  9
$TEXTSTYLE
  7
STANDARD
  9
$CLAYER
  8
DEFAULT
  9
$CELTYPE
  6
BYLAYER
  9
$CECOLOR
 62
   256
  9
$DIMSCALE
 40
1.0
  9
$DIMASZ
 40
0.18
  9
$DIMEXO
 40
0.0625
  9
$DIMDLI
 40
0.38
  9
$DIMRND
 40
0.0
  9
$DIMDLE
 40
0.0
  9
$DIMEXE
 40
0.18
  9
$DIMTP
 40
0.0
  9
$DIMTM
 40
0.0
  9
$DIMTXT
 40
0.18
  9
$DIMCEN
 40
0.09
  9
$DIMTSZ
 40
0.0
  9
$DIMTOL
 70
     0
  9
$DIMLIM
 70
     0
  9
$DIMTIH
 70
     1
  9
$DIMTOH
 70
     1
  9
$DIMSE1
 70
     0
  9
$DIMSE2
 70
     0
  9
$DIMTAD
 70
     0
  9
$DIMZIN
 70
     0
  9
$DIMBLK
  1

  9
$DIMASO
 70
     1
  9
$DIMSHO
 70
     1
  9
$DIMPOST
  1

  9
$DIMAPOST
  1

  9
$DIMALT
 70
     0
  9
$DIMALTD
 70
     2
  9
$DIMALTF
 40
25.4
  9
$DIMLFAC
 40
1.0
  9
$DIMTOFL
 70
     0
  9
$DIMTVP
 40
0.0
  9
$DIMTIX
 70
     0
  9
$DIMSOXD
 70
     0
  9
$DIMSAH
 70
     0
  9
$DIMBLK1
  1

  9
$DIMBLK2
  1

  9
$DIMSTYLE
  2
STANDARD
  9
$DIMCLRD
 70
     0
  9
$DIMCLRE
 70
     0
  9
$DIMCLRT
 70
     0
  9
$DIMTFAC
 40
1.0
  9
$DIMGAP
 40
0.09
  9
$LUNITS
 70
     2
  9
$LUPREC
 70
     2
  9
$SKETCHINC
 40
0.1
  9
$FILLETRAD
 40
0.5
  9
$AUNITS
 70
     0
  9
$AUPREC
 70
     0
  9
$MENU
  1
.
  9
$ELEVATION
 40
0.0
  9
$PELEVATION
 40
0.0
  9
$THICKNESS
 40
0.0
  9
$LIMCHECK
 70
     0
  9
$CHAMFERA
 40
0.0
  9
$CHAMFERB
 40
0.0
  9
$SKPOLY
 70
     0
  9
$TDCREATE
 40
2457105.447650463
  9
$TDUPDATE
 40
2457105.447673611
  9
$TDINDWG
 40
0.0000000116
  9
$TDUSRTIMER
 40
0.0000000116
  9
$USRTIMER
 70
     1
  9
$ANGBASE
 50
0.0
  9
$ANGDIR
 70
     0
  9
$PDMODE
 70
     0
  9
$PDSIZE
 40
0.0
  9
$PLINEWID
 40
0.0
  9
$COORDS
 70
     1
  9
$SPLFRAME
 70
     0
  9
$SPLINETYPE
 70
     6
  9
$SPLINESEGS
 70
     8
  9
$ATTDIA
 70
     0
  9
$ATTREQ
 70
     1
  9
$HANDLING
 70
     1
  9
$HANDSEED
  5
287
  9
$SURFTAB1
 70
     6
  9
$SURFTAB2
 70
     6
  9
$SURFTYPE
 70
     6
  9
$SURFU
 70
     6
  9
$SURFV
 70
     6
  9
$UCSNAME
  2

  9
$UCSORG
 10
0.0
 20
0.0
 30
0.0
  9
$UCSXDIR
 10
1.0
 20
0.0
 30
0.0
  9
$UCSYDIR
 10
0.0
 20
1.0
 30
0.0
  9
$PUCSNAME
  2

  9
$PUCSORG
 10
0.0
 20
0.0
 30
0.0
  9
$PUCSXDIR
 10
1.0
 20
0.0
 30
0.0
  9
$PUCSYDIR
 10
0.0
 20
1.0
 30
0.0
  9
$USERI1
 70
     0
  9
$USERI2
 70
     0
  9
$USERI3
 70
     0
  9
$USERI4
 70
     0
  9
$USERI5
 70
     0
  9
$USERR1
 40
0.0
  9
$USERR2
 40
0.0
  9
$USERR3
 40
0.0
  9
$USERR4
 40
0.0
  9
$USERR5
 40
0.0
  9
$WORLDVIEW
 70
     1
  9
$SHADEDGE
 70
     3
  9
$SHADEDIF
 70
    70
  9
$TILEMODE
 70
     1
  9
$MAXACTVP
 70
    64
  9
$PLIMCHECK
 70
     0
  9
$PEXTMIN
 10
1.000000000000000E+20
 20
1.000000000000000E+20
 30
1.000000000000000E+20
  9
$PEXTMAX
 10
-1.000000000000000E+20
 20
-1.000000000000000E+20
 30
-1.000000000000000E+20
  9
$PLIMMIN
 10
0.0
 20
0.0
  9
$PLIMMAX
 10
12.0
 20
9.0
  9
$UNITMODE
 70
     0
  9
$VISRETAIN
 70
     1
  9
$PLINEGEN
 70
     0
  9
$PSLTSCALE
 70
     1
  0
ENDSEC
  0
SECTION
  2
TABLES
  0
TABLE
  2
VPORT
 70
     1
  0
VPORT
  2
*ACTIVE
 70
     0
 10
0.0
 20
0.0
 11
1.0
 21
1.0
 12
-400.0
 22
-625.0000000000002
 13
0.0
 23
0.0
 14
0.5
 24
0.5
 15
0.5
 25
0.5
 16
0.0
 26
0.0
 36
1.0
 17
0.0
 27
0.0
 37
0.0
 40
1275.0
 41
0.6399999999999998
 42
50.0
 43
0.0
 44
0.0
 50
0.0
 51
0.0
 71
     0
 72
   100
 73
     1
 74
     3
 75
     0
 76
     0
 77
     0
 78
     0
  0
ENDTAB
  0
TABLE
  2
LTYPE
 70
     1
  0
LTYPE
  2
CONTINUOUS
 70
     0
  3
Solid line
 72
    65
 73
     0
 40
0.0
  0
ENDTAB
  0
TABLE
  2
LAYER
 70
     5
  0
LAYER
  2
0
 70
     0
 62
     7
  6
CONTINUOUS
  0
LAYER
  2
POINTS
 70
     0
 62
    98
  6
CONTINUOUS
  0
LAYER
  2
INSIDE
 70
     0
 62
     5
  6
CONTINUOUS
  0
LAYER
  2
OUTSIDE
 70
     0
 62
     1
  6
CONTINUOUS
  0
LAYER
  2
DEFAULT
 70
     0
 62
     7
  6
CONTINUOUS
  0
ENDTAB
  0
TABLE
  2
STYLE
 70
     1
  0
STYLE
  2
STANDARD
 70
     0
 40
0.0
 41
1.0
 50
0.0
 71
     0
 42
0.2
  3
txt
  4

  0
ENDTAB
  0
TABLE
  2
VIEW
 70
     0
  0
ENDTAB
  0
TABLE
  2
UCS
 70
     0
  0
ENDTAB
  0
TABLE
  2
APPID
 70
     1
  0
APPID
  2
ACAD
 70
     0
  0
ENDTAB
  0
TABLE
  2
DIMSTYLE
 70
     1
  0
DIMSTYLE
  2
STANDARD
 70
     0
  3

  4

  5

  6

  7

 40
1.0
 41
0.18
 42
0.0625
 43
0.38
 44
0.18
 45
0.0
 46
0.0
 47
0.0
 48
0.0
140
0.18
141
0.09
142
0.0
143
25.4
144
1.0
145
0.0
146
1.0
147
0.09
 71
     0
 72
     0
 73
     1
 74
     1
 75
     0
 76
     0
 77
     0
 78
     0
170
     0
171
     2
172
     0
173
     0
174
     0
175
     0
176
     0
177
     0
178
     0
  0
ENDTAB
  0
ENDSEC
  0
SECTION
  2
BLOCKS
  0
BLOCK
  8
0
  2
$MODEL_SPACE
 70
     0
 10
0.0
 20
0.0
 30
0.0
  3
$MODEL_SPACE
  1

  0
ENDBLK
  5
21
  8
0
  0
BLOCK
 67
     1
  8
0
  2
$PAPER_SPACE
 70
     0
 10
0.0
 20
0.0
 30
0.0
  3
$PAPER_SPACE
  1

  0
ENDBLK
  5
1D
 67
     1
  8
0
  0
ENDSEC
  0
SECTION
  2
ENTITIES
  0
CIRCLE
  5
6F
  8
POINTS
 10
-481.7797469097586
 20
-1195.944556357613
 30
0.0
 40
3.0
  0
CIRCLE
  5
70
  8
POINTS
 10
-591.7797469097586
 20
-1207.944556357613
 30
0.0
 40
3.0
  0
CIRCLE
  5
71
  8
POINTS
 10
-600.7797469097586
 20
-622.9445563576128
 30
0.0
 40
3.0
  0
LINE
  5
73
  8
INSIDE
 10
-534.7397975845515
 20
-665.0000000010359
 30
0.0
 11
-515.2975754893241
 21
-665.0000000010359
 31
0.0
  0
ARC
  5
74
  8
INSIDE
 10
-515.2975754893241
 20
-662.0000000010359
 30
0.0
 40
3.0
 50
270.0
 51
90.0
  0
LINE
  5
75
  8
INSIDE
 10
-515.2975754893241
 20
-659.0000000010359
 30
0.0
 11
-515.2975754893241
 21
-651.5000000010359
 31
0.0
  0
ARC
  5
76
  8
INSIDE
 10
-515.2975754893241
 20
-648.5000000010359
 30
0.0
 40
3.0
 50
270.0
 51
90.0
  0
LINE
  5
77
  8
INSIDE
 10
-515.2975754893214
 20
-645.5000000010359
 30
0.0
 11
-534.7397975845515
 21
-645.5000000010359
 31
0.0
  0
ARC
  5
78
  8
INSIDE
 10
-534.7397975845515
 20
-648.5000000010359
 30
0.0
 40
3.0
 50
90.0
 51
270.0
  0
LINE
  5
79
  8
INSIDE
 10
-534.7397975845515
 20
-651.5000000010359
 30
0.0
 11
-534.7397975845515
 21
-659.0000000010359
 31
0.0
  0
ARC
  5
7A
  8
INSIDE
 10
-534.7397975845515
 20
-662.0000000010359
 30
0.0
 40
3.0
 50
90.0
 51
270.0
  0
LINE
  5
7B
  8
INSIDE
 10
-534.7397975855647
 20
-1220.500000001633
 30
0.0
 11
-515.2975754903373
 21
-1220.500000001633
 31
0.0
  0
ARC
  5
7C
  8
INSIDE
 10
-515.2975754903373
 20
-1217.500000001633
 30
0.0
 40
3.0
 50
270.0
 51
90.0
  0
LINE
  5
7D
  8
INSIDE
 10
-515.2975754903373
 20
-1214.500000001633
 30
0.0
 11
-515.2975754903373
 21
-1207.000000001633
 31
0.0
  0
ARC
  5
7E
  8
INSIDE
 10
-515.2975754903373
 20
-1204.000000001633
 30
0.0
 40
3.0
 50
270.0
 51
90.0
  0
LINE
  5
7F
  8
INSIDE
 10
-515.2975754903346
 20
-1201.000000001633
 30
0.0
 11
-534.7397975855647
 21
-1201.000000001633
 31
0.0
  0
ARC
  5
80
  8
INSIDE
 10
-534.7397975855647
 20
-1204.000000001633
 30
0.0
 40
3.0
 50
90.0
 51
270.0
  0
LINE
  5
81
  8
INSIDE
 10
-534.7397975855647
 20
-1207.000000001633
 30
0.0
 11
-534.7397975855647
 21
-1214.500000001633
 31
0.0
  0
ARC
  5
82
  8
INSIDE
 10
-534.7397975855647
 20
-1217.500000001633
 30
0.0
 40
3.0
 50
90.0
 51
270.0
  0
ARC
  5
84
  8
OUTSIDE
 10
-540.0373730832262
 20
-1166.250000007681
 30
0.0
 40
3.0
 50
270.0
 51
90.0
  0
LINE
  5
85
  8
OUTSIDE
 10
-540.0373730832262
 20
-1169.250000007681
 30
0.0
 11
-540.0373730832262
 21
-1176.750000007681
 31
0.0
  0
ARC
  5
86
  8
OUTSIDE
 10
-540.0373730832262
 20
-1179.750000007681
 30
0.0
 40
3.0
 50
270.0
 51
90.0
  0
LINE
  5
87
  8
OUTSIDE
 10
-540.0373730832262
 20
-1182.750000007681
 30
0.0
 11
-550.0186865388532
 21
-1182.750000008009
 31
0.0
  0
LINE
  5
88
  8
OUTSIDE
 10
-550.0186865388532
 20
-1182.750000008009
 30
0.0
 11
-550.0186865392461
 21
-1235.000000001167
 31
0.0
  0
LINE
  5
89
  8
OUTSIDE
 10
-550.0186865392461
 20
-1235.000000001167
 30
0.0
 11
-500.0186865389169
 21
-1235.000000001259
 31
0.0
  0
LINE
  5
8A
  8
OUTSIDE
 10
-500.0186865389169
 20
-1235.000000001259
 30
0.0
 11
-500.0186865389178
 21
-631.0000000015016
 31
0.0
  0
LINE
  5
8B
  8
OUTSIDE
 10
-500.0186865389178
 20
-631.0000000015016
 30
0.0
 11
-550.0186865381575
 21
-631.0000000014124
 31
0.0
  0
LINE
  5
8C
  8
OUTSIDE
 10
-550.0186865381575
 20
-631.0000000014124
 30
0.0
 11
-550.0186865289525
 21
-683.2500000036734
 31
0.0
  0
LINE
  5
8D
  8
OUTSIDE
 10
-550.0186865289525
 20
-683.2500000036734
 30
0.0
 11
-540.0373730708361
 21
-683.2500000019127
 31
0.0
  0
ARC
  5
8E
  8
OUTSIDE
 10
-540.0373730708361
 20
-686.2500000019127
 30
0.0
 40
3.0
 50
270.0
 51
90.0
  0
LINE
  5
8F
  8
OUTSIDE
 10
-540.0373730708361
 20
-689.2500000019127
 30
0.0
 11
-540.0373730708361
 21
-696.7500000019127
 31
0.0
  0
ARC
  5
90
  8
OUTSIDE
 10
-540.0373730708361
 20
-699.7500000019127
 30
0.0
 40
3.0
 50
270.0
 51
90.0
  0
LINE
  5
91
  8
OUTSIDE
 10
-540.0373730708361
 20
-702.7500000019127
 30
0.0
 11
-570.0373730823321
 21
-702.7500000028995
 31
0.0
  0
LINE
  5
92
  8
OUTSIDE
 10
-570.0373730823321
 20
-702.7500000028995
 30
0.0
 11
-570.0373730742585
 21
-723.2500000039645
 31
0.0
  0
LINE
  5
93
  8
OUTSIDE
 10
-570.0373730742585
 20
-723.2500000039645
 30
0.0
 11
-540.0373730619312
 21
-723.2500000034979
 31
0.0
  0
ARC
  5
94
  8
OUTSIDE
 10
-540.0373730619312
 20
-726.2500000034979
 30
0.0
 40
3.0
 50
270.0
 51
90.0
  0
LINE
  5
95
  8
OUTSIDE
 10
-540.0373730619312
 20
-729.2500000034979
 30
0.0
 11
-540.0373730619312
 21
-736.7500000034979
 31
0.0
  0
ARC
  5
96
  8
OUTSIDE
 10
-540.0373730619312
 20
-739.7500000034979
 30
0.0
 40
3.0
 50
270.0
 51
90.0
  0
LINE
  5
97
  8
OUTSIDE
 10
-540.0373730619312
 20
-742.7500000034979
 30
0.0
 11
-570.0373730658366
 21
-742.7500000044838
 31
0.0
  0
LINE
  5
98
  8
OUTSIDE
 10
-570.0373730658366
 20
-742.7500000044838
 30
0.0
 11
-570.0373730656838
 21
-763.2500000050286
 31
0.0
  0
LINE
  5
99
  8
OUTSIDE
 10
-570.0373730656838
 20
-763.2500000050286
 30
0.0
 11
-540.0373730536867
 21
-763.2500000040427
 31
0.0
  0
ARC
  5
9A
  8
OUTSIDE
 10
-540.0373730536867
 20
-766.2500000040427
 30
0.0
 40
3.0
 50
270.0
 51
90.0
  0
LINE
  5
9B
  8
OUTSIDE
 10
-540.0373730536867
 20
-769.2500000040427
 30
0.0
 11
-540.0373730536867
 21
-776.7500000040427
 31
0.0
  0
ARC
  5
9C
  8
OUTSIDE
 10
-540.0373730536867
 20
-779.7500000040427
 30
0.0
 40
3.0
 50
270.0
 51
90.0
  0
LINE
  5
9D
  8
OUTSIDE
 10
-540.0373730536867
 20
-782.7500000040427
 30
0.0
 11
-570.0373730719848
 21
-782.7500000050286
 31
0.0
  0
LINE
  5
9E
  8
OUTSIDE
 10
-570.0373730719848
 20
-782.7500000050286
 30
0.0
 11
-570.0373730718329
 21
-803.2500000055725
 31
0.0
  0
LINE
  5
9F
  8
OUTSIDE
 10
-570.0373730718329
 20
-803.2500000055725
 30
0.0
 11
-540.0373730668935
 21
-803.2500000045866
 31
0.0
  0
ARC
  5
A0
  8
OUTSIDE
 10
-540.0373730668935
 20
-806.2500000045866
 30
0.0
 40
3.0
 50
270.0
 51
90.0
  0
LINE
  5
A1
  8
OUTSIDE
 10
-540.0373730668935
 20
-809.2500000045866
 30
0.0
 11
-540.0373730668935
 21
-816.7500000045866
 31
0.0
  0
ARC
  5
A2
  8
OUTSIDE
 10
-540.0373730668935
 20
-819.7500000045866
 30
0.0
 40
3.0
 50
270.0
 51
90.0
  0
LINE
  5
A3
  8
OUTSIDE
 10
-540.0373730668935
 20
-822.7500000045866
 30
0.0
 11
-570.0373730645279
 21
-822.7500000055725
 31
0.0
  0
LINE
  5
A4
  8
OUTSIDE
 10
-570.0373730645279
 20
-822.7500000055725
 30
0.0
 11
-570.037373064376
 21
-843.2500000061182
 31
0.0
  0
LINE
  5
A5
  8
OUTSIDE
 10
-570.037373064376
 20
-843.2500000061182
 30
0.0
 11
-540.0373730589781
 21
-843.2500000051323
 31
0.0
  0
ARC
  5
A6
  8
OUTSIDE
 10
-540.0373730589781
 20
-846.2500000051323
 30
0.0
 40
3.0
 50
270.0
 51
90.0
  0
LINE
  5
A7
  8
OUTSIDE
 10
-540.0373730589781
 20
-849.2500000051323
 30
0.0
 11
-540.0373730589781
 21
-856.7500000051323
 31
0.0
  0
ARC
  5
A8
  8
OUTSIDE
 10
-540.0373730589781
 20
-859.7500000051323
 30
0.0
 40
3.0
 50
270.0
 51
90.0
  0
LINE
  5
A9
  8
OUTSIDE
 10
-540.0373730589781
 20
-862.7500000051323
 30
0.0
 11
-570.0373730559531
 21
-862.7500000066375
 31
0.0
  0
LINE
  5
AA
  8
OUTSIDE
 10
-570.0373730559531
 20
-862.7500000066375
 30
0.0
 11
-570.0373730558003
 21
-883.2500000071823
 31
0.0
  0
LINE
  5
AB
  8
OUTSIDE
 10
-570.0373730558003
 20
-883.2500000071823
 30
0.0
 11
-540.037373051724
 21
-883.2500000056762
 31
0.0
  0
ARC
  5
AC
  8
OUTSIDE
 10
-540.037373051724
 20
-886.2500000056762
 30
0.0
 40
3.0
 50
270.0
 51
90.0
  0
LINE
  5
AD
  8
OUTSIDE
 10
-540.037373051724
 20
-889.2500000056762
 30
0.0
 11
-540.037373051724
 21
-896.7500000056762
 31
0.0
  0
ARC
  5
AE
  8
OUTSIDE
 10
-540.037373051724
 20
-899.7500000056762
 30
0.0
 40
3.0
 50
270.0
 51
90.0
  0
LINE
  5
AF
  8
OUTSIDE
 10
-540.037373051724
 20
-902.7500000056762
 30
0.0
 11
-570.0373730621022
 21
-902.7500000071814
 31
0.0
  0
LINE
  5
B0
  8
OUTSIDE
 10
-570.0373730621022
 20
-902.7500000071814
 30
0.0
 11
-570.0373730619494
 21
-923.2500000077262
 31
0.0
  0
LINE
  5
B1
  8
OUTSIDE
 10
-570.0373730619494
 20
-923.2500000077262
 30
0.0
 11
-540.03737305701
 21
-923.25000000622
 31
0.0
  0
ARC
  5
B2
  8
OUTSIDE
 10
-540.03737305701
 20
-926.25000000622
 30
0.0
 40
3.0
 50
270.0
 51
90.0
  0
LINE
  5
B3
  8
OUTSIDE
 10
-540.03737305701
 20
-929.25000000622
 30
0.0
 11
-540.03737305701
 21
-936.75000000622
 31
0.0
  0
ARC
  5
B4
  8
OUTSIDE
 10
-540.03737305701
 20
-939.75000000622
 30
0.0
 40
3.0
 50
270.0
 51
90.0
  0
LINE
  5
B5
  8
OUTSIDE
 10
-540.03737305701
 20
-942.75000000622
 30
0.0
 11
-570.0373730625661
 21
-942.7500000072068
 31
0.0
  0
LINE
  5
B6
  8
OUTSIDE
 10
-570.0373730625661
 20
-942.7500000072068
 30
0.0
 11
-570.0373730624133
 21
-963.2500000077516
 31
0.0
  0
LINE
  5
B7
  8
OUTSIDE
 10
-570.0373730624133
 20
-963.2500000077516
 30
0.0
 11
-540.0373730504161
 21
-963.2500000067657
 31
0.0
  0
ARC
  5
B8
  8
OUTSIDE
 10
-540.0373730504161
 20
-966.2500000067657
 30
0.0
 40
3.0
 50
270.0
 51
90.0
  0
LINE
  5
B9
  8
OUTSIDE
 10
-540.0373730504161
 20
-969.2500000067657
 30
0.0
 11
-540.0373730504161
 21
-976.7500000067657
 31
0.0
  0
ARC
  5
BA
  8
OUTSIDE
 10
-540.0373730504161
 20
-979.7500000067657
 30
0.0
 40
3.0
 50
270.0
 51
90.0
  0
LINE
  5
BB
  8
OUTSIDE
 10
-540.0373730504161
 20
-982.7500000067657
 30
0.0
 11
-570.0373730539904
 21
-982.7500000082719
 31
0.0
  0
LINE
  5
BC
  8
OUTSIDE
 10
-570.0373730539904
 20
-982.7500000082719
 30
0.0
 11
-570.0373730538386
 21
-1003.250000008816
 31
0.0
  0
LINE
  5
BD
  8
OUTSIDE
 10
-570.0373730538386
 20
-1003.250000008816
 30
0.0
 11
-540.0373730497622
 21
-1003.25000000731
 31
0.0
  0
ARC
  5
BE
  8
OUTSIDE
 10
-540.0373730497622
 20
-1006.25000000731
 30
0.0
 40
3.0
 50
270.0
 51
90.0
  0
LINE
  5
BF
  8
OUTSIDE
 10
-540.0373730497622
 20
-1009.25000000731
 30
0.0
 11
-540.0373730497622
 21
-1016.75000000731
 31
0.0
  0
ARC
  5
C0
  8
OUTSIDE
 10
-540.0373730497622
 20
-1019.75000000731
 30
0.0
 40
3.0
 50
270.0
 51
90.0
  0
LINE
  5
C1
  8
OUTSIDE
 10
-540.0373730497622
 20
-1022.75000000731
 30
0.0
 11
-570.0373730601405
 21
-1022.750000008816
 31
0.0
  0
LINE
  5
C2
  8
OUTSIDE
 10
-570.0373730601405
 20
-1022.750000008816
 30
0.0
 11
-570.0373730599877
 21
-1043.250000009361
 31
0.0
  0
LINE
  5
C3
  8
OUTSIDE
 10
-570.0373730599877
 20
-1043.250000009361
 30
0.0
 11
-540.0373730540614
 21
-1043.250000007855
 31
0.0
  0
ARC
  5
C4
  8
OUTSIDE
 10
-540.0373730540614
 20
-1046.250000007855
 30
0.0
 40
3.0
 50
270.0
 51
90.0
  0
LINE
  5
C5
  8
OUTSIDE
 10
-540.0373730540614
 20
-1049.250000007855
 30
0.0
 11
-540.0373730540614
 21
-1056.750000007855
 31
0.0
  0
ARC
  5
C6
  8
OUTSIDE
 10
-540.0373730540614
 20
-1059.750000007855
 30
0.0
 40
3.0
 50
270.0
 51
90.0
  0
LINE
  5
C7
  8
OUTSIDE
 10
-540.0373730540614
 20
-1062.750000007855
 30
0.0
 11
-570.0373730606034
 21
-1062.750000008841
 31
0.0
  0
LINE
  5
C8
  8
OUTSIDE
 10
-570.0373730606034
 20
-1062.750000008841
 30
0.0
 11
-570.0373730604515
 21
-1083.250000009386
 31
0.0
  0
LINE
  5
C9
  8
OUTSIDE
 10
-570.0373730604515
 20
-1083.250000009386
 30
0.0
 11
-540.0373730530782
 21
-1083.250000008399
 31
0.0
  0
ARC
  5
CA
  8
OUTSIDE
 10
-540.0373730530782
 20
-1086.250000008399
 30
0.0
 40
3.0
 50
270.0
 51
90.0
  0
LINE
  5
CB
  8
OUTSIDE
 10
-540.0373730530782
 20
-1089.250000008399
 30
0.0
 11
-540.0373730530782
 21
-1096.750000008399
 31
0.0
  0
ARC
  5
CC
  8
OUTSIDE
 10
-540.0373730530782
 20
-1099.750000008399
 30
0.0
 40
3.0
 50
270.0
 51
90.0
  0
LINE
  5
CD
  8
OUTSIDE
 10
-540.0373730530782
 20
-1102.750000008399
 30
0.0
 11
-570.0373730520287
 21
-1102.750000009905
 31
0.0
  0
LINE
  5
CE
  8
OUTSIDE
 10
-570.0373730520287
 20
-1102.750000009905
 30
0.0
 11
-570.0373730509582
 21
-1123.250000010451
 31
0.0
  0
LINE
  5
CF
  8
OUTSIDE
 10
-570.0373730509582
 20
-1123.250000010451
 30
0.0
 11
-540.0373730511701
 21
-1123.250000008944
 31
0.0
  0
ARC
  5
D0
  8
OUTSIDE
 10
-540.0373730511701
 20
-1126.250000008944
 30
0.0
 40
3.0
 50
270.0
 51
90.0
  0
LINE
  5
D1
  8
OUTSIDE
 10
-540.0373730511701
 20
-1129.250000008944
 30
0.0
 11
-540.0373730511701
 21
-1136.750000008944
 31
0.0
  0
ARC
  5
D2
  8
OUTSIDE
 10
-540.0373730511701
 20
-1139.750000008944
 30
0.0
 40
3.0
 50
270.0
 51
90.0
  0
LINE
  5
D3
  8
OUTSIDE
 10
-540.0373730511701
 20
-1142.750000008944
 30
0.0
 11
-570.0373730572592
 21
-1142.75000001045
 31
0.0
  0
LINE
  5
D4
  8
OUTSIDE
 10
-570.0373730572592
 20
-1142.75000001045
 30
0.0
 11
-570.0373730758593
 21
-1163.250000010091
 31
0.0
  0
LINE
  5
D5
  8
OUTSIDE
 10
-570.0373730758593
 20
-1163.250000010091
 30
0.0
 11
-540.0373730832262
 21
-1163.250000007681
 31
0.0
  0
LINE
  5
D6
  8
OUTSIDE
 10
-689.99999999798
 20
-1234.999999998061
 30
0.0
 11
-639.9999999967895
 21
-1234.999999995981
 31
0.0
  0
LINE
  5
D7
  8
OUTSIDE
 10
-639.9999999967895
 20
-1234.999999995981
 30
0.0
 11
-639.9999999967886
 21
-1189.250000000068
 31
0.0
  0
ARC
  5
D8
  8
OUTSIDE
 10
-639.9999999967886
 20
-1186.250000000068
 30
0.0
 40
3.0
 50
90.0
 51
270.0
  0
LINE
  5
D9
  8
OUTSIDE
 10
-639.9999999967886
 20
-1183.250000000068
 30
0.0
 11
-609.9999999989432
 21
-1183.250000000068
 31
0.0
  0
LINE
  5
DA
  8
OUTSIDE
 10
-609.9999999989432
 20
-1183.250000000068
 30
0.0
 11
-609.9999999991296
 21
-1162.749999999523
 31
0.0
  0
LINE
  5
DB
  8
OUTSIDE
 10
-609.9999999991296
 20
-1162.749999999523
 30
0.0
 11
-640.0000000231976
 21
-1162.749999999523
 31
0.0
  0
ARC
  5
DC
  8
OUTSIDE
 10
-640.0000000231976
 20
-1159.749999999523
 30
0.0
 40
3.0
 50
90.0
 51
270.0
  0
LINE
  5
DD
  8
OUTSIDE
 10
-640.0000000231976
 20
-1156.749999999523
 30
0.0
 11
-640.0000000231976
 21
-1149.249999999523
 31
0.0
  0
ARC
  5
DE
  8
OUTSIDE
 10
-640.0000000231976
 20
-1146.249999999523
 30
0.0
 40
3.0
 50
90.0
 51
270.0
  0
LINE
  5
DF
  8
OUTSIDE
 10
-640.0000000231976
 20
-1143.249999999523
 30
0.0
 11
-609.9999999996562
 21
-1143.249999999523
 31
0.0
  0
LINE
  5
E0
  8
OUTSIDE
 10
-609.9999999996562
 20
-1143.249999999523
 30
0.0
 11
-609.9999999998427
 21
-1122.749999998978
 31
0.0
  0
LINE
  5
E1
  8
OUTSIDE
 10
-609.9999999998427
 20
-1122.749999998978
 30
0.0
 11
-640.0000000239243
 21
-1122.749999998978
 31
0.0
  0
ARC
  5
E2
  8
OUTSIDE
 10
-640.0000000239243
 20
-1119.749999998978
 30
0.0
 40
3.0
 50
90.0
 51
270.0
  0
LINE
  5
E3
  8
OUTSIDE
 10
-640.0000000239243
 20
-1116.749999998978
 30
0.0
 11
-640.0000000239243
 21
-1109.249999998978
 31
0.0
  0
ARC
  5
E4
  8
OUTSIDE
 10
-640.0000000239243
 20
-1106.249999998978
 30
0.0
 40
3.0
 50
90.0
 51
270.0
  0
LINE
  5
E5
  8
OUTSIDE
 10
-640.0000000239243
 20
-1103.249999998978
 30
0.0
 11
-610.0000000003829
 21
-1103.249999998978
 31
0.0
  0
LINE
  5
E6
  8
OUTSIDE
 10
-610.0000000003829
 20
-1103.249999998978
 30
0.0
 11
-610.0000000005693
 21
-1082.749999998434
 31
0.0
  0
LINE
  5
E7
  8
OUTSIDE
 10
-610.0000000005693
 20
-1082.749999998434
 30
0.0
 11
-640.00000002465
 21
-1082.749999998433
 31
0.0
  0
ARC
  5
E8
  8
OUTSIDE
 10
-640.00000002465
 20
-1079.749999998433
 30
0.0
 40
3.0
 50
90.0
 51
270.0
  0
LINE
  5
E9
  8
OUTSIDE
 10
-640.00000002465
 20
-1076.749999998433
 30
0.0
 11
-640.00000002465
 21
-1069.249999998433
 31
0.0
  0
ARC
  5
EA
  8
OUTSIDE
 10
-640.00000002465
 20
-1066.249999998433
 30
0.0
 40
3.0
 50
90.0
 51
270.0
  0
LINE
  5
EB
  8
OUTSIDE
 10
-640.00000002465
 20
-1063.249999998433
 30
0.0
 11
-610.0000000011087
 21
-1063.249999998433
 31
0.0
  0
LINE
  5
EC
  8
OUTSIDE
 10
-610.0000000011087
 20
-1063.249999998433
 30
0.0
 11
-610.0000000012942
 21
-1042.749999997889
 31
0.0
  0
LINE
  5
ED
  8
OUTSIDE
 10
-610.0000000012942
 20
-1042.749999997889
 30
0.0
 11
-640.0000000242862
 21
-1042.749999997889
 31
0.0
  0
ARC
  5
EE
  8
OUTSIDE
 10
-640.0000000242862
 20
-1039.749999997889
 30
0.0
 40
3.0
 50
90.0
 51
270.0
  0
LINE
  5
EF
  8
OUTSIDE
 10
-640.0000000242862
 20
-1036.749999997889
 30
0.0
 11
-640.0000000242862
 21
-1029.249999997889
 31
0.0
  0
ARC
  5
F0
  8
OUTSIDE
 10
-640.0000000242862
 20
-1026.249999997889
 30
0.0
 40
3.0
 50
90.0
 51
270.0
  0
LINE
  5
F1
  8
OUTSIDE
 10
-640.0000000242862
 20
-1023.249999997889
 30
0.0
 11
-610.0000000007449
 21
-1023.249999997889
 31
0.0
  0
LINE
  5
F2
  8
OUTSIDE
 10
-610.0000000007449
 20
-1023.249999997889
 30
0.0
 11
-610.0000000009322
 21
-1002.749999997344
 31
0.0
  0
LINE
  5
F3
  8
OUTSIDE
 10
-610.0000000009322
 20
-1002.749999997344
 30
0.0
 11
-640.00000002465
 21
-1002.749999997344
 31
0.0
  0
ARC
  5
F4
  8
OUTSIDE
 10
-640.00000002465
 20
-999.749999997344
 30
0.0
 40
3.0
 50
90.0
 51
270.0
  0
LINE
  5
F5
  8
OUTSIDE
 10
-640.00000002465
 20
-996.749999997344
 30
0.0
 11
-640.00000002465
 21
-989.249999997344
 31
0.0
  0
ARC
  5
F6
  8
OUTSIDE
 10
-640.00000002465
 20
-986.249999997344
 30
0.0
 40
3.0
 50
90.0
 51
270.0
  0
LINE
  5
F7
  8
OUTSIDE
 10
-640.00000002465
 20
-983.249999997344
 30
0.0
 11
-610.0000000011087
 21
-983.249999997344
 31
0.0
  0
LINE
  5
F8
  8
OUTSIDE
 10
-610.0000000011087
 20
-983.249999997344
 30
0.0
 11
-610.000000001296
 21
-962.7499999967993
 31
0.0
  0
LINE
  5
F9
  8
OUTSIDE
 10
-610.000000001296
 20
-962.7499999967993
 30
0.0
 11
-640.0000000268283
 21
-962.7499999967993
 31
0.0
  0
ARC
  5
FA
  8
OUTSIDE
 10
-640.0000000268283
 20
-959.7499999967993
 30
0.0
 40
3.0
 50
90.0
 51
270.0
  0
LINE
  5
FB
  8
OUTSIDE
 10
-640.0000000268283
 20
-956.7499999967993
 30
0.0
 11
-640.0000000268283
 21
-949.2499999967993
 31
0.0
  0
ARC
  5
FC
  8
OUTSIDE
 10
-640.0000000268283
 20
-946.2499999967993
 30
0.0
 40
3.0
 50
90.0
 51
270.0
  0
LINE
  5
FD
  8
OUTSIDE
 10
-640.0000000268283
 20
-943.2499999967993
 30
0.0
 11
-610.0000000032869
 21
-943.2499999967993
 31
0.0
  0
LINE
  5
FE
  8
OUTSIDE
 10
-610.0000000032869
 20
-943.2499999967993
 30
0.0
 11
-610.0000000034734
 21
-922.7499999962547
 31
0.0
  0
LINE
  5
FF
  8
OUTSIDE
 10
-610.0000000034734
 20
-922.7499999962547
 30
0.0
 11
-640.0000000253749
 21
-922.7499999962547
 31
0.0
  0
ARC
  5
100
  8
OUTSIDE
 10
-640.0000000253749
 20
-919.7499999962547
 30
0.0
 40
3.0
 50
90.0
 51
270.0
  0
LINE
  5
101
  8
OUTSIDE
 10
-640.0000000253749
 20
-916.7499999962547
 30
0.0
 11
-640.0000000253749
 21
-909.2499999962547
 31
0.0
  0
ARC
  5
102
  8
OUTSIDE
 10
-640.0000000253749
 20
-906.2499999962547
 30
0.0
 40
3.0
 50
90.0
 51
270.0
  0
LINE
  5
103
  8
OUTSIDE
 10
-640.0000000253749
 20
-903.2499999962547
 30
0.0
 11
-610.0000000018335
 21
-903.2499999962547
 31
0.0
  0
LINE
  5
104
  8
OUTSIDE
 10
-610.0000000018335
 20
-903.2499999962547
 30
0.0
 11
-610.00000000202
 21
-882.7499999957101
 31
0.0
  0
LINE
  5
105
  8
OUTSIDE
 10
-610.00000000202
 20
-882.7499999957101
 30
0.0
 11
-640.0000000282807
 21
-882.7499999957099
 31
0.0
  0
ARC
  5
106
  8
OUTSIDE
 10
-640.0000000282807
 20
-879.7499999957099
 30
0.0
 40
3.0
 50
90.0
 51
270.0
  0
LINE
  5
107
  8
OUTSIDE
 10
-640.0000000282807
 20
-876.7499999957099
 30
0.0
 11
-640.0000000282807
 21
-869.2499999957099
 31
0.0
  0
ARC
  5
108
  8
OUTSIDE
 10
-640.0000000282807
 20
-866.2499999957099
 30
0.0
 40
3.0
 50
90.0
 51
270.0
  0
LINE
  5
109
  8
OUTSIDE
 10
-640.0000000282807
 20
-863.2499999957099
 30
0.0
 11
-610.0000000047394
 21
-863.2499999957099
 31
0.0
  0
LINE
  5
10A
  8
OUTSIDE
 10
-610.0000000047394
 20
-863.2499999957099
 30
0.0
 11
-610.0000000049267
 21
-842.7499999951656
 31
0.0
  0
LINE
  5
10B
  8
OUTSIDE
 10
-610.0000000049267
 20
-842.7499999951656
 30
0.0
 11
-640.0000000261034
 21
-842.7499999951651
 31
0.0
  0
ARC
  5
10C
  8
OUTSIDE
 10
-640.0000000261034
 20
-839.7499999951651
 30
0.0
 40
3.0
 50
90.0
 51
270.0
  0
LINE
  5
10D
  8
OUTSIDE
 10
-640.0000000261034
 20
-836.7499999951651
 30
0.0
 11
-640.0000000261034
 21
-829.2499999951651
 31
0.0
  0
ARC
  5
10E
  8
OUTSIDE
 10
-640.0000000261034
 20
-826.2499999951651
 30
0.0
 40
3.0
 50
90.0
 51
270.0
  0
LINE
  5
10F
  8
OUTSIDE
 10
-640.0000000261034
 20
-823.2499999951651
 30
0.0
 11
-610.000000002562
 21
-823.2499999951651
 31
0.0
  0
LINE
  5
110
  8
OUTSIDE
 10
-610.000000002562
 20
-823.2499999951651
 30
0.0
 11
-610.0000000027476
 21
-802.7499999946208
 31
0.0
  0
LINE
  5
111
  8
OUTSIDE
 10
-610.0000000027476
 20
-802.7499999946208
 30
0.0
 11
-640.0000000297323
 21
-802.7499999946208
 31
0.0
  0
ARC
  5
112
  8
OUTSIDE
 10
-640.0000000297323
 20
-799.7499999946208
 30
0.0
 40
3.0
 50
90.0
 51
270.0
  0
LINE
  5
113
  8
OUTSIDE
 10
-640.0000000297323
 20
-796.7499999946208
 30
0.0
 11
-640.0000000297323
 21
-789.2499999946208
 31
0.0
  0
ARC
  5
114
  8
OUTSIDE
 10
-640.0000000297323
 20
-786.2499999946208
 30
0.0
 40
3.0
 50
90.0
 51
270.0
  0
LINE
  5
115
  8
OUTSIDE
 10
-640.0000000297323
 20
-783.2499999946208
 30
0.0
 11
-610.0000000061909
 21
-783.2499999946208
 31
0.0
  0
LINE
  5
116
  8
OUTSIDE
 10
-610.0000000061909
 20
-783.2499999946208
 30
0.0
 11
-610.0000000063783
 21
-762.749999994076
 31
0.0
  0
LINE
  5
117
  8
OUTSIDE
 10
-610.0000000063783
 20
-762.749999994076
 30
0.0
 11
-640.0000000268274
 21
-762.749999994076
 31
0.0
  0
ARC
  5
118
  8
OUTSIDE
 10
-640.0000000268274
 20
-759.749999994076
 30
0.0
 40
3.0
 50
90.0
 51
270.0
  0
LINE
  5
119
  8
OUTSIDE
 10
-640.0000000268274
 20
-756.749999994076
 30
0.0
 11
-640.0000000268274
 21
-749.249999994076
 31
0.0
  0
ARC
  5
11A
  8
OUTSIDE
 10
-640.0000000268274
 20
-746.249999994076
 30
0.0
 40
3.0
 50
90.0
 51
270.0
  0
LINE
  5
11B
  8
OUTSIDE
 10
-640.0000000268274
 20
-743.249999994076
 30
0.0
 11
-610.000000003286
 21
-743.249999994076
 31
0.0
  0
LINE
  5
11C
  8
OUTSIDE
 10
-610.000000003286
 20
-743.249999994076
 30
0.0
 11
-610.0000000071423
 21
-722.7499999935312
 31
0.0
  0
LINE
  5
11D
  8
OUTSIDE
 10
-610.0000000071423
 20
-722.7499999935312
 30
0.0
 11
-640.0000000308628
 21
-722.7499999935308
 31
0.0
  0
ARC
  5
11E
  8
OUTSIDE
 10
-640.0000000308628
 20
-719.7499999935308
 30
0.0
 40
3.0
 50
90.0
 51
270.0
  0
LINE
  5
11F
  8
OUTSIDE
 10
-640.0000000308628
 20
-716.7499999935308
 30
0.0
 11
-640.0000000308628
 21
-709.2499999935308
 31
0.0
  0
ARC
  5
120
  8
OUTSIDE
 10
-640.0000000308628
 20
-706.2499999935308
 30
0.0
 40
3.0
 50
90.0
 51
270.0
  0
LINE
  5
121
  8
OUTSIDE
 10
-640.0000000308628
 20
-703.2499999935308
 30
0.0
 11
-610.0000000149821
 21
-703.2499999935308
 31
0.0
  0
LINE
  5
122
  8
OUTSIDE
 10
-610.0000000149821
 20
-703.2499999935308
 30
0.0
 11
-610.0000000188384
 21
-682.749999992986
 31
0.0
  0
LINE
  5
123
  8
OUTSIDE
 10
-610.0000000188384
 20
-682.749999992986
 30
0.0
 11
-640.0000000425589
 21
-682.749999992986
 31
0.0
  0
ARC
  5
124
  8
OUTSIDE
 10
-640.0000000425589
 20
-679.749999992986
 30
0.0
 40
3.0
 50
90.0
 51
270.0
  0
LINE
  5
125
  8
OUTSIDE
 10
-640.0000000425589
 20
-676.749999992986
 30
0.0
 11
-639.9999999985494
 21
-631.0000000003884
 31
0.0
  0
LINE
  5
126
  8
OUTSIDE
 10
-639.9999999985494
 20
-631.0000000003884
 30
0.0
 11
-689.9999999999545
 21
-631.0000000003865
 31
0.0
  0
LINE
  5
127
  8
OUTSIDE
 10
-689.9999999999545
 20
-631.0000000003865
 30
0.0
 11
-689.99999999798
 21
-1234.999999998061
 31
0.0
  0
LINE
  5
128
  8
INSIDE
 10
-674.7211110475905
 20
-1220.499999997625
 30
0.0
 11
-655.2788889523631
 21
-1220.499999997625
 31
0.0
  0
ARC
  5
129
  8
INSIDE
 10
-655.2788889523631
 20
-1217.499999997625
 30
0.0
 40
3.0
 50
270.0
 51
90.0
  0
LINE
  5
12A
  8
INSIDE
 10
-655.2788889523631
 20
-1214.499999997625
 30
0.0
 11
-655.2788889523631
 21
-1206.999999997625
 31
0.0
  0
ARC
  5
12B
  8
INSIDE
 10
-655.2788889523631
 20
-1203.999999997625
 30
0.0
 40
3.0
 50
270.0
 51
90.0
  0
LINE
  5
12C
  8
INSIDE
 10
-655.2788889523604
 20
-1200.999999997625
 30
0.0
 11
-674.7211110475905
 21
-1200.999999997625
 31
0.0
  0
ARC
  5
12D
  8
INSIDE
 10
-674.7211110475905
 20
-1203.999999997625
 30
0.0
 40
3.0
 50
90.0
 51
270.0
  0
LINE
  5
12E
  8
INSIDE
 10
-674.7211110475905
 20
-1206.999999997625
 30
0.0
 11
-674.7211110475905
 21
-1214.499999997625
 31
0.0
  0
ARC
  5
12F
  8
INSIDE
 10
-674.7211110475905
 20
-1217.499999997625
 30
0.0
 40
3.0
 50
90.0
 51
270.0
  0
LINE
  5
130
  8
INSIDE
 10
-674.721111047591
 20
-664.999999997885
 30
0.0
 11
-655.2788889523636
 21
-664.999999997885
 31
0.0
  0
ARC
  5
131
  8
INSIDE
 10
-655.2788889523636
 20
-661.999999997885
 30
0.0
 40
3.0
 50
270.0
 51
90.0
  0
LINE
  5
132
  8
INSIDE
 10
-655.2788889523636
 20
-658.999999997885
 30
0.0
 11
-655.2788889523636
 21
-651.499999997885
 31
0.0
  0
ARC
  5
133
  8
INSIDE
 10
-655.2788889523636
 20
-648.499999997885
 30
0.0
 40
3.0
 50
270.0
 51
90.0
  0
LINE
  5
134
  8
INSIDE
 10
-655.2788889523608
 20
-645.499999997885
 30
0.0
 11
-674.721111047591
 21
-645.499999997885
 31
0.0
  0
ARC
  5
135
  8
INSIDE
 10
-674.721111047591
 20
-648.499999997885
 30
0.0
 40
3.0
 50
90.0
 51
270.0
  0
LINE
  5
136
  8
INSIDE
 10
-674.721111047591
 20
-651.499999997885
 30
0.0
 11
-674.721111047591
 21
-658.999999997885
 31
0.0
  0
ARC
  5
137
  8
INSIDE
 10
-674.721111047591
 20
-661.999999997885
 30
0.0
 40
3.0
 50
90.0
 51
270.0
  0
LINE
  5
139
  8
DEFAULT
 10
-655.9999999999764
 20
-1200.999999997625
 30
0.0
 11
-673.9999999999773
 21
-1200.999999997625
 31
0.0
  0
LINE
  5
13A
  8
OUTSIDE
 10
-705.0000000003656
 20
-702.9999999940255
 30
0.0
 11
-704.9999999999545
 21
-631.0000000003865
 31
0.0
  0
LINE
  5
13B
  8
OUTSIDE
 10
-704.9999999999545
 20
-631.0000000003865
 30
0.0
 11
-754.9999999991933
 21
-631.0000000003847
 31
0.0
  0
LINE
  5
13C
  8
OUTSIDE
 10
-754.9999999991933
 20
-631.0000000003847
 30
0.0
 11
-755.0000000011905
 21
-682.9999999978836
 31
0.0
  0
LINE
  5
13D
  8
OUTSIDE
 10
-755.0000000011905
 20
-682.9999999978836
 30
0.0
 11
-785.0000000017599
 21
-682.9999999999636
 31
0.0
  0
LINE
  5
13E
  8
OUTSIDE
 10
-785.0000000017599
 20
-682.9999999999636
 30
0.0
 11
-785.0
 21
-1183.000000000562
 31
0.0
  0
LINE
  5
13F
  8
OUTSIDE
 10
-785.0
 20
-1183.000000000562
 30
0.0
 11
-755.0000000011905
 21
-1183.000000002642
 31
0.0
  0
LINE
  5
140
  8
OUTSIDE
 10
-755.0000000011905
 20
-1183.000000002642
 30
0.0
 11
-754.9999999991933
 21
-1235.000000000141
 31
0.0
  0
LINE
  5
141
  8
OUTSIDE
 10
-754.9999999991933
 20
-1235.000000000141
 30
0.0
 11
-704.9999999999545
 21
-1235.000000000139
 31
0.0
  0
LINE
  5
142
  8
OUTSIDE
 10
-704.9999999999545
 20
-1235.000000000139
 30
0.0
 11
-705.0000000010414
 21
-1162.750000000562
 31
0.0
  0
LINE
  5
143
  8
OUTSIDE
 10
-705.0000000010414
 20
-1162.750000000562
 30
0.0
 11
-735.0000000251093
 21
-1162.750000000562
 31
0.0
  0
ARC
  5
144
  8
OUTSIDE
 10
-735.0000000251093
 20
-1159.750000000562
 30
0.0
 40
3.0
 50
90.0
 51
270.0
  0
LINE
  5
145
  8
OUTSIDE
 10
-735.0000000251093
 20
-1156.750000000562
 30
0.0
 11
-735.0000000251093
 21
-1149.250000000562
 31
0.0
  0
ARC
  5
146
  8
OUTSIDE
 10
-735.0000000251093
 20
-1146.250000000562
 30
0.0
 40
3.0
 50
90.0
 51
270.0
  0
LINE
  5
147
  8
OUTSIDE
 10
-735.0000000251093
 20
-1143.250000000562
 30
0.0
 11
-705.000000001568
 21
-1143.250000000562
 31
0.0
  0
LINE
  5
148
  8
OUTSIDE
 10
-705.000000001568
 20
-1143.250000000562
 30
0.0
 11
-705.0000000017544
 21
-1122.750000000018
 31
0.0
  0
LINE
  5
149
  8
OUTSIDE
 10
-705.0000000017544
 20
-1122.750000000018
 30
0.0
 11
-735.000000025836
 21
-1122.750000000017
 31
0.0
  0
ARC
  5
14A
  8
OUTSIDE
 10
-735.000000025836
 20
-1119.750000000017
 30
0.0
 40
3.0
 50
90.0
 51
270.0
  0
LINE
  5
14B
  8
OUTSIDE
 10
-735.000000025836
 20
-1116.750000000017
 30
0.0
 11
-735.000000025836
 21
-1109.250000000017
 31
0.0
  0
ARC
  5
14C
  8
OUTSIDE
 10
-735.000000025836
 20
-1106.250000000017
 30
0.0
 40
3.0
 50
90.0
 51
270.0
  0
LINE
  5
14D
  8
OUTSIDE
 10
-735.000000025836
 20
-1103.250000000017
 30
0.0
 11
-705.0000000022947
 21
-1103.250000000017
 31
0.0
  0
LINE
  5
14E
  8
OUTSIDE
 10
-705.0000000022947
 20
-1103.250000000017
 30
0.0
 11
-705.0000000024811
 21
-1082.749999999473
 31
0.0
  0
LINE
  5
14F
  8
OUTSIDE
 10
-705.0000000024811
 20
-1082.749999999473
 30
0.0
 11
-735.0000000265618
 21
-1082.749999999472
 31
0.0
  0
ARC
  5
150
  8
OUTSIDE
 10
-735.0000000265618
 20
-1079.749999999472
 30
0.0
 40
3.0
 50
90.0
 51
270.0
  0
LINE
  5
151
  8
OUTSIDE
 10
-735.0000000265618
 20
-1076.749999999472
 30
0.0
 11
-735.0000000265618
 21
-1069.249999999472
 31
0.0
  0
ARC
  5
152
  8
OUTSIDE
 10
-735.0000000265618
 20
-1066.249999999472
 30
0.0
 40
3.0
 50
90.0
 51
270.0
  0
LINE
  5
153
  8
OUTSIDE
 10
-735.0000000265618
 20
-1063.249999999472
 30
0.0
 11
-705.0000000030204
 21
-1063.249999999472
 31
0.0
  0
LINE
  5
154
  8
OUTSIDE
 10
-705.0000000030204
 20
-1063.249999999472
 30
0.0
 11
-705.000000003206
 21
-1042.749999998928
 31
0.0
  0
LINE
  5
155
  8
OUTSIDE
 10
-705.000000003206
 20
-1042.749999998928
 30
0.0
 11
-735.000000026198
 21
-1042.749999998928
 31
0.0
  0
ARC
  5
156
  8
OUTSIDE
 10
-735.000000026198
 20
-1039.749999998928
 30
0.0
 40
3.0
 50
90.0
 51
270.0
  0
LINE
  5
157
  8
OUTSIDE
 10
-735.000000026198
 20
-1036.749999998928
 30
0.0
 11
-735.000000026198
 21
-1029.249999998928
 31
0.0
  0
ARC
  5
158
  8
OUTSIDE
 10
-735.000000026198
 20
-1026.249999998928
 30
0.0
 40
3.0
 50
90.0
 51
270.0
  0
LINE
  5
159
  8
OUTSIDE
 10
-735.000000026198
 20
-1023.249999998928
 30
0.0
 11
-705.0000000026566
 21
-1023.249999998928
 31
0.0
  0
LINE
  5
15A
  8
OUTSIDE
 10
-705.0000000026566
 20
-1023.249999998928
 30
0.0
 11
-705.000000002844
 21
-1002.749999998383
 31
0.0
  0
LINE
  5
15B
  8
OUTSIDE
 10
-705.000000002844
 20
-1002.749999998383
 30
0.0
 11
-735.0000000265618
 21
-1002.749999998383
 31
0.0
  0
ARC
  5
15C
  8
OUTSIDE
 10
-735.0000000265618
 20
-999.7499999983831
 30
0.0
 40
3.0
 50
90.0
 51
270.0
  0
LINE
  5
15D
  8
OUTSIDE
 10
-735.0000000265618
 20
-996.7499999983831
 30
0.0
 11
-735.0000000265618
 21
-989.2499999983831
 31
0.0
  0
ARC
  5
15E
  8
OUTSIDE
 10
-735.0000000265618
 20
-986.2499999983831
 30
0.0
 40
3.0
 50
90.0
 51
270.0
  0
LINE
  5
15F
  8
OUTSIDE
 10
-735.0000000265618
 20
-983.2499999983831
 30
0.0
 11
-705.0000000030204
 21
-983.2499999983831
 31
0.0
  0
LINE
  5
160
  8
OUTSIDE
 10
-705.0000000030204
 20
-983.2499999983831
 30
0.0
 11
-705.0000000032078
 21
-962.7499999978384
 31
0.0
  0
LINE
  5
161
  8
OUTSIDE
 10
-705.0000000032078
 20
-962.7499999978384
 30
0.0
 11
-735.00000002874
 21
-962.7499999978384
 31
0.0
  0
ARC
  5
162
  8
OUTSIDE
 10
-735.00000002874
 20
-959.7499999978384
 30
0.0
 40
3.0
 50
90.0
 51
270.0
  0
LINE
  5
163
  8
OUTSIDE
 10
-735.00000002874
 20
-956.7499999978384
 30
0.0
 11
-735.00000002874
 21
-949.2499999978384
 31
0.0
  0
ARC
  5
164
  8
OUTSIDE
 10
-735.00000002874
 20
-946.2499999978384
 30
0.0
 40
3.0
 50
90.0
 51
270.0
  0
LINE
  5
165
  8
OUTSIDE
 10
-735.00000002874
 20
-943.2499999978384
 30
0.0
 11
-705.0000000051987
 21
-943.2499999978384
 31
0.0
  0
LINE
  5
166
  8
OUTSIDE
 10
-705.0000000051987
 20
-943.2499999978384
 30
0.0
 11
-705.0000000053851
 21
-922.7499999972938
 31
0.0
  0
LINE
  5
167
  8
OUTSIDE
 10
-705.0000000053851
 20
-922.7499999972938
 30
0.0
 11
-735.0000000272867
 21
-922.7499999972938
 31
0.0
  0
ARC
  5
168
  8
OUTSIDE
 10
-735.0000000272867
 20
-919.7499999972938
 30
0.0
 40
3.0
 50
90.0
 51
270.0
  0
LINE
  5
169
  8
OUTSIDE
 10
-735.0000000272867
 20
-916.7499999972938
 30
0.0
 11
-735.0000000272867
 21
-909.2499999972938
 31
0.0
  0
ARC
  5
16A
  8
OUTSIDE
 10
-735.0000000272867
 20
-906.2499999972938
 30
0.0
 40
3.0
 50
90.0
 51
270.0
  0
LINE
  5
16B
  8
OUTSIDE
 10
-735.0000000272867
 20
-903.2499999972938
 30
0.0
 11
-705.0000000037453
 21
-903.2499999972938
 31
0.0
  0
LINE
  5
16C
  8
OUTSIDE
 10
-705.0000000037453
 20
-903.2499999972938
 30
0.0
 11
-705.0000000039317
 21
-882.7499999967492
 31
0.0
  0
LINE
  5
16D
  8
OUTSIDE
 10
-705.0000000039317
 20
-882.7499999967492
 30
0.0
 11
-735.0000000301925
 21
-882.7499999967488
 31
0.0
  0
ARC
  5
16E
  8
OUTSIDE
 10
-735.0000000301925
 20
-879.7499999967488
 30
0.0
 40
3.0
 50
90.0
 51
270.0
  0
LINE
  5
16F
  8
OUTSIDE
 10
-735.0000000301925
 20
-876.7499999967488
 30
0.0
 11
-735.0000000301925
 21
-869.2499999967488
 31
0.0
  0
ARC
  5
170
  8
OUTSIDE
 10
-735.0000000301925
 20
-866.2499999967488
 30
0.0
 40
3.0
 50
90.0
 51
270.0
  0
LINE
  5
171
  8
OUTSIDE
 10
-735.0000000301925
 20
-863.2499999967488
 30
0.0
 11
-705.0000000066511
 21
-863.2499999967488
 31
0.0
  0
LINE
  5
172
  8
OUTSIDE
 10
-705.0000000066511
 20
-863.2499999967488
 30
0.0
 11
-705.0000000068385
 21
-842.7499999962045
 31
0.0
  0
LINE
  5
173
  8
OUTSIDE
 10
-705.0000000068385
 20
-842.7499999962045
 30
0.0
 11
-735.0000000280152
 21
-842.749999996204
 31
0.0
  0
ARC
  5
174
  8
OUTSIDE
 10
-735.0000000280152
 20
-839.749999996204
 30
0.0
 40
3.0
 50
90.0
 51
270.0
  0
LINE
  5
175
  8
OUTSIDE
 10
-735.0000000280152
 20
-836.749999996204
 30
0.0
 11
-735.0000000280152
 21
-829.249999996204
 31
0.0
  0
ARC
  5
176
  8
OUTSIDE
 10
-735.0000000280152
 20
-826.249999996204
 30
0.0
 40
3.0
 50
90.0
 51
270.0
  0
LINE
  5
177
  8
OUTSIDE
 10
-735.0000000280152
 20
-823.249999996204
 30
0.0
 11
-705.0000000044738
 21
-823.249999996204
 31
0.0
  0
LINE
  5
178
  8
OUTSIDE
 10
-705.0000000044738
 20
-823.249999996204
 30
0.0
 11
-705.0000000046593
 21
-802.7499999956594
 31
0.0
  0
LINE
  5
179
  8
OUTSIDE
 10
-705.0000000046593
 20
-802.7499999956594
 30
0.0
 11
-735.000000031644
 21
-802.7499999956594
 31
0.0
  0
ARC
  5
17A
  8
OUTSIDE
 10
-735.000000031644
 20
-799.7499999956599
 30
0.0
 40
3.0
 50
90.0
 51
270.0
  0
LINE
  5
17B
  8
OUTSIDE
 10
-735.000000031644
 20
-796.7499999956599
 30
0.0
 11
-735.000000031644
 21
-789.2499999956599
 31
0.0
  0
ARC
  5
17C
  8
OUTSIDE
 10
-735.000000031644
 20
-786.2499999956599
 30
0.0
 40
3.0
 50
90.0
 51
270.0
  0
LINE
  5
17D
  8
OUTSIDE
 10
-735.000000031644
 20
-783.2499999956599
 30
0.0
 11
-705.0000000081027
 21
-783.2499999956599
 31
0.0
  0
LINE
  5
17E
  8
OUTSIDE
 10
-705.0000000081027
 20
-783.2499999956599
 30
0.0
 11
-705.00000000829
 21
-762.7499999951151
 31
0.0
  0
LINE
  5
17F
  8
OUTSIDE
 10
-705.00000000829
 20
-762.7499999951151
 30
0.0
 11
-735.0000000287391
 21
-762.7499999951151
 31
0.0
  0
ARC
  5
180
  8
OUTSIDE
 10
-735.0000000287391
 20
-759.7499999951151
 30
0.0
 40
3.0
 50
90.0
 51
270.0
  0
LINE
  5
181
  8
OUTSIDE
 10
-735.0000000287391
 20
-756.7499999951151
 30
0.0
 11
-735.0000000287391
 21
-749.2499999951151
 31
0.0
  0
ARC
  5
182
  8
OUTSIDE
 10
-735.0000000287391
 20
-746.2499999951151
 30
0.0
 40
3.0
 50
90.0
 51
270.0
  0
LINE
  5
183
  8
OUTSIDE
 10
-735.0000000287391
 20
-743.2499999951151
 30
0.0
 11
-705.0000000051978
 21
-743.2499999951151
 31
0.0
  0
LINE
  5
184
  8
OUTSIDE
 10
-705.0000000051978
 20
-743.2499999951151
 30
0.0
 11
-705.000000009054
 21
-722.7499999945703
 31
0.0
  0
LINE
  5
185
  8
OUTSIDE
 10
-705.000000009054
 20
-722.7499999945703
 30
0.0
 11
-735.0000000327746
 21
-722.7499999945703
 31
0.0
  0
ARC
  5
186
  8
OUTSIDE
 10
-735.0000000327746
 20
-719.7499999945703
 30
0.0
 40
3.0
 50
90.0
 51
270.0
  0
LINE
  5
187
  8
OUTSIDE
 10
-735.0000000327746
 20
-716.7499999945703
 30
0.0
 11
-735.0000000327746
 21
-709.2499999945703
 31
0.0
  0
ARC
  5
188
  8
OUTSIDE
 10
-735.0000000327746
 20
-706.2499999945703
 30
0.0
 40
3.0
 50
90.0
 51
270.0
  0
LINE
  5
189
  8
OUTSIDE
 10
-735.0000000327746
 20
-703.2499999945703
 30
0.0
 11
-705.0000000168939
 21
-703.2499999945703
 31
0.0
  0
LINE
  5
18A
  8
INSIDE
 10
-739.721111048806
 20
-1220.500000000562
 30
0.0
 11
-720.2788889535786
 21
-1220.500000000562
 31
0.0
  0
ARC
  5
18B
  8
INSIDE
 10
-720.2788889535786
 20
-1217.500000000562
 30
0.0
 40
3.0
 50
270.0
 51
90.0
  0
LINE
  5
18C
  8
INSIDE
 10
-720.2788889535786
 20
-1214.500000000562
 30
0.0
 11
-720.2788889535786
 21
-1207.000000000562
 31
0.0
  0
ARC
  5
18D
  8
INSIDE
 10
-720.2788889535786
 20
-1204.000000000562
 30
0.0
 40
3.0
 50
270.0
 51
90.0
  0
LINE
  5
18E
  8
INSIDE
 10
-720.2788889535759
 20
-1201.000000000562
 30
0.0
 11
-739.721111048806
 21
-1201.000000000562
 31
0.0
  0
ARC
  5
18F
  8
INSIDE
 10
-739.721111048806
 20
-1204.000000000562
 30
0.0
 40
3.0
 50
90.0
 51
270.0
  0
LINE
  5
190
  8
INSIDE
 10
-739.721111048806
 20
-1207.000000000562
 30
0.0
 11
-739.721111048806
 21
-1214.500000000562
 31
0.0
  0
ARC
  5
191
  8
INSIDE
 10
-739.721111048806
 20
-1217.500000000562
 30
0.0
 40
3.0
 50
90.0
 51
270.0
  0
LINE
  5
192
  8
INSIDE
 10
-739.7211110488047
 20
-664.9999999999636
 30
0.0
 11
-720.2788889535773
 21
-664.9999999999636
 31
0.0
  0
ARC
  5
193
  8
INSIDE
 10
-720.2788889535773
 20
-661.9999999999636
 30
0.0
 40
3.0
 50
270.0
 51
90.0
  0
LINE
  5
194
  8
INSIDE
 10
-720.2788889535773
 20
-658.9999999999636
 30
0.0
 11
-720.2788889535773
 21
-651.4999999999636
 31
0.0
  0
ARC
  5
195
  8
INSIDE
 10
-720.2788889535773
 20
-648.4999999999636
 30
0.0
 40
3.0
 50
270.0
 51
90.0
  0
LINE
  5
196
  8
INSIDE
 10
-720.2788889535746
 20
-645.4999999999636
 30
0.0
 11
-739.7211110488047
 21
-645.4999999999636
 31
0.0
  0
ARC
  5
197
  8
INSIDE
 10
-739.7211110488047
 20
-648.4999999999636
 30
0.0
 40
3.0
 50
90.0
 51
270.0
  0
LINE
  5
198
  8
INSIDE
 10
-739.7211110488047
 20
-651.4999999999636
 30
0.0
 11
-739.7211110488047
 21
-658.9999999999636
 31
0.0
  0
ARC
  5
199
  8
INSIDE
 10
-739.7211110488047
 20
-661.9999999999636
 30
0.0
 40
3.0
 50
90.0
 51
270.0
  0
CIRCLE
  5
19A
  8
POINTS
 10
-439.7797469097586
 20
-607.9445563576128
 30
0.0
 40
3.0
  0
CIRCLE
  5
19B
  8
POINTS
 10
-499.7797469097586
 20
-475.9445563576128
 30
0.0
 40
3.0
  0
CIRCLE
  5
19C
  8
POINTS
 10
-700.7797469097586
 20
-90.94455635761278
 30
0.0
 40
3.0
  0
CIRCLE
  5
19D
  8
POINTS
 10
-790.7797469097586
 20
-8.944556357612782
 30
0.0
 40
3.0
  0
LINE
  5
19E
  8
OUTSIDE
 10
-651.0015546252584
 20
-47.03460760161397
 30
0.0
 11
-690.9393436469159
 21
-45.04047933470338
 31
0.0
  0
LINE
  5
19F
  8
OUTSIDE
 10
-690.9393436469159
 20
-45.04047933470338
 30
0.0
 11
-691.0015546252575
 21
-15.0
 31
0.0
  0
LINE
  5
1A0
  8
OUTSIDE
 10
-691.0015546252575
 20
-15.0
 30
0.0
 11
-611.0015546252575
 21
-18.99446902947966
 31
0.0
  0
LINE
  5
1A1
  8
OUTSIDE
 10
-611.0015546252575
 20
-18.99446902947966
 30
0.0
 11
-611.0015546252584
 21
-573.8250435999307
 31
0.0
  0
LINE
  5
1A2
  8
OUTSIDE
 10
-611.0015546252584
 20
-573.8250435999307
 30
0.0
 11
-690.9020170610561
 21
-569.835544565507
 31
0.0
  0
LINE
  5
1A3
  8
OUTSIDE
 10
-690.9020170610561
 20
-569.835544565507
 30
0.0
 11
-690.9393436469168
 21
-539.7963077308777
 31
0.0
  0
LINE
  5
1A4
  8
OUTSIDE
 10
-690.9393436469168
 20
-539.7963077308777
 30
0.0
 11
-650.989112428982
 21
-541.7910572473847
 31
0.0
  0
LINE
  5
1A5
  8
OUTSIDE
 10
-650.989112428982
 20
-541.7910572473847
 30
0.0
 11
-651.0015546252584
 21
-523.7680121456633
 31
0.0
  0
LINE
  5
1A6
  8
OUTSIDE
 10
-651.0015546252584
 20
-523.7680121456633
 30
0.0
 11
-651.0015546252584
 21
-47.03460760161397
 31
0.0
  0
LINE
  5
1A7
  8
OUTSIDE
 10
-745.0
 20
-541.7904359983168
 30
0.0
 11
-705.0622109783426
 21
-543.7845642652273
 31
0.0
  0
LINE
  5
1A8
  8
OUTSIDE
 10
-705.0622109783426
 20
-543.7845642652273
 30
0.0
 11
-705.0000000000009
 21
-573.8250435999307
 31
0.0
  0
LINE
  5
1A9
  8
OUTSIDE
 10
-705.0000000000009
 20
-573.8250435999307
 30
0.0
 11
-785.0000000000009
 21
-569.8305745704511
 31
0.0
  0
LINE
  5
1AA
  8
OUTSIDE
 10
-785.0000000000009
 20
-569.8305745704511
 30
0.0
 11
-785.0
 21
-15.0
 31
0.0
  0
LINE
  5
1AB
  8
OUTSIDE
 10
-785.0
 20
-15.0
 30
0.0
 11
-705.0995375642024
 21
-18.98949903442372
 31
0.0
  0
LINE
  5
1AC
  8
OUTSIDE
 10
-705.0995375642024
 20
-18.98949903442372
 30
0.0
 11
-705.0622109783417
 21
-49.02873586905298
 31
0.0
  0
LINE
  5
1AD
  8
OUTSIDE
 10
-705.0622109783417
 20
-49.02873586905298
 30
0.0
 11
-745.0124421962764
 21
-47.03398635254598
 31
0.0
  0
LINE
  5
1AE
  8
OUTSIDE
 10
-745.0124421962764
 20
-47.03398635254598
 30
0.0
 11
-745.0
 21
-65.05703145426742
 31
0.0
  0
LINE
  5
1AF
  8
OUTSIDE
 10
-745.0
 20
-65.05703145426742
 30
0.0
 11
-745.0
 21
-541.7904359983168
 31
0.0
  0
LINE
  5
1B0
  8
OUTSIDE
 10
-552.1014049888045
 20
-541.7904359983168
 30
0.0
 11
-512.1636159671475
 21
-543.7845642652273
 31
0.0
  0
LINE
  5
1B1
  8
OUTSIDE
 10
-512.1636159671475
 20
-543.7845642652273
 30
0.0
 11
-512.1014049888058
 21
-573.8250435999307
 31
0.0
  0
LINE
  5
1B2
  8
OUTSIDE
 10
-512.1014049888058
 20
-573.8250435999307
 30
0.0
 11
-592.1014049888063
 21
-569.8305745704511
 31
0.0
  0
LINE
  5
1B3
  8
OUTSIDE
 10
-592.1014049888063
 20
-569.8305745704511
 30
0.0
 11
-592.1014049888045
 21
-15.0
 31
0.0
  0
LINE
  5
1B4
  8
OUTSIDE
 10
-592.1014049888045
 20
-15.0
 30
0.0
 11
-512.2009425530073
 21
-18.98949903442372
 31
0.0
  0
LINE
  5
1B5
  8
OUTSIDE
 10
-512.2009425530073
 20
-18.98949903442372
 30
0.0
 11
-512.1636159671466
 21
-49.02873586905298
 31
0.0
  0
LINE
  5
1B6
  8
OUTSIDE
 10
-512.1636159671466
 20
-49.02873586905298
 30
0.0
 11
-552.1138471850818
 21
-47.03398635254598
 31
0.0
  0
LINE
  5
1B7
  8
OUTSIDE
 10
-552.1138471850818
 20
-47.03398635254598
 30
0.0
 11
-552.1014049888045
 21
-65.05703145426742
 31
0.0
  0
LINE
  5
1B8
  8
OUTSIDE
 10
-552.1014049888045
 20
-65.05703145426742
 30
0.0
 11
-552.1014049888045
 21
-541.7904359983168
 31
0.0
  0
LINE
  5
1B9
  8
OUTSIDE
 10
-455.0000000000009
 20
-58.3950293974226
 30
0.0
 11
-494.9377890216583
 21
-56.40090113051201
 31
0.0
  0
LINE
  5
1BA
  8
OUTSIDE
 10
-494.9377890216583
 20
-56.40090113051201
 30
0.0
 11
-495.0
 21
-26.36042179580863
 31
0.0
  0
LINE
  5
1BB
  8
OUTSIDE
 10
-495.0
 20
-26.36042179580863
 30
0.0
 11
-415.0
 21
-30.35489082528829
 31
0.0
  0
LINE
  5
1BC
  8
OUTSIDE
 10
-415.0
 20
-30.35489082528829
 30
0.0
 11
-415.0000000000009
 21
-585.1854653957394
 31
0.0
  0
LINE
  5
1BD
  8
OUTSIDE
 10
-415.0000000000009
 20
-585.1854653957394
 30
0.0
 11
-494.9004624357985
 21
-581.1959663613156
 31
0.0
  0
LINE
  5
1BE
  8
OUTSIDE
 10
-494.9004624357985
 20
-581.1959663613156
 30
0.0
 11
-494.9377890216592
 21
-551.1567295266864
 31
0.0
  0
LINE
  5
1BF
  8
OUTSIDE
 10
-494.9377890216592
 20
-551.1567295266864
 30
0.0
 11
-454.9875578037245
 21
-553.1514790431934
 31
0.0
  0
LINE
  5
1C0
  8
OUTSIDE
 10
-454.9875578037245
 20
-553.1514790431934
 30
0.0
 11
-455.0000000000009
 21
-535.1284339414719
 31
0.0
  0
LINE
  5
1C1
  8
OUTSIDE
 10
-455.0000000000009
 20
-535.1284339414719
 30
0.0
 11
-455.0000000000009
 21
-58.3950293974226
 31
0.0
  0
ARC
  5
1C2
  8
OUTSIDE
 10
-455.0186865443093
 20
-1166.250000006422
 30
0.0
 40
3.0
 50
270.0
 51
90.0
  0
LINE
  5
1C3
  8
OUTSIDE
 10
-455.0186865443093
 20
-1169.250000006422
 30
0.0
 11
-455.0186865443093
 21
-1176.750000006422
 31
0.0
  0
ARC
  5
1C4
  8
OUTSIDE
 10
-455.0186865443093
 20
-1179.750000006422
 30
0.0
 40
3.0
 50
270.0
 51
90.0
  0
LINE
  5
1C5
  8
OUTSIDE
 10
-455.0186865443093
 20
-1182.750000006422
 30
0.0
 11
-464.9999999999363
 21
-1182.750000006751
 31
0.0
  0
LINE
  5
1C6
  8
OUTSIDE
 10
-464.9999999999363
 20
-1182.750000006751
 30
0.0
 11
-465.0000000003292
 21
-1234.999999999909
 31
0.0
  0
LINE
  5
1C7
  8
OUTSIDE
 10
-465.0000000003292
 20
-1234.999999999909
 30
0.0
 11
-415.0
 21
-1235.0
 31
0.0
  0
LINE
  5
1C8
  8
OUTSIDE
 10
-415.0
 20
-1235.0
 30
0.0
 11
-415.0000000000009
 21
-631.0000000002433
 31
0.0
  0
LINE
  5
1C9
  8
OUTSIDE
 10
-415.0000000000009
 20
-631.0000000002433
 30
0.0
 11
-464.9999999992406
 21
-631.0000000001542
 31
0.0
  0
LINE
  5
1CA
  8
OUTSIDE
 10
-464.9999999992406
 20
-631.0000000001542
 30
0.0
 11
-464.9999999900356
 21
-683.2500000024152
 31
0.0
  0
LINE
  5
1CB
  8
OUTSIDE
 10
-464.9999999900356
 20
-683.2500000024152
 30
0.0
 11
-455.0186865319192
 21
-683.2500000006544
 31
0.0
  0
ARC
  5
1CC
  8
OUTSIDE
 10
-455.0186865319192
 20
-686.2500000006544
 30
0.0
 40
3.0
 50
270.0
 51
90.0
  0
LINE
  5
1CD
  8
OUTSIDE
 10
-455.0186865319192
 20
-689.2500000006544
 30
0.0
 11
-455.0186865319192
 21
-696.7500000006544
 31
0.0
  0
ARC
  5
1CE
  8
OUTSIDE
 10
-455.0186865319192
 20
-699.7500000006544
 30
0.0
 40
3.0
 50
270.0
 51
90.0
  0
LINE
  5
1CF
  8
OUTSIDE
 10
-455.0186865319192
 20
-702.7500000006544
 30
0.0
 11
-485.0186865434152
 21
-702.7500000016412
 31
0.0
  0
LINE
  5
1D0
  8
OUTSIDE
 10
-485.0186865434152
 20
-702.7500000016412
 30
0.0
 11
-485.0186865353417
 21
-723.2500000027062
 31
0.0
  0
LINE
  5
1D1
  8
OUTSIDE
 10
-485.0186865353417
 20
-723.2500000027062
 30
0.0
 11
-455.0186865230144
 21
-723.2500000022396
 31
0.0
  0
ARC
  5
1D2
  8
OUTSIDE
 10
-455.0186865230144
 20
-726.2500000022396
 30
0.0
 40
3.0
 50
270.0
 51
90.0
  0
LINE
  5
1D3
  8
OUTSIDE
 10
-455.0186865230144
 20
-729.2500000022396
 30
0.0
 11
-455.0186865230144
 21
-736.7500000022396
 31
0.0
  0
ARC
  5
1D4
  8
OUTSIDE
 10
-455.0186865230144
 20
-739.7500000022396
 30
0.0
 40
3.0
 50
270.0
 51
90.0
  0
LINE
  5
1D5
  8
OUTSIDE
 10
-455.0186865230144
 20
-742.7500000022396
 30
0.0
 11
-485.0186865269197
 21
-742.7500000032255
 31
0.0
  0
LINE
  5
1D6
  8
OUTSIDE
 10
-485.0186865269197
 20
-742.7500000032255
 30
0.0
 11
-485.0186865267669
 21
-763.2500000037703
 31
0.0
  0
LINE
  5
1D7
  8
OUTSIDE
 10
-485.0186865267669
 20
-763.2500000037703
 30
0.0
 11
-455.0186865147698
 21
-763.2500000027844
 31
0.0
  0
ARC
  5
1D8
  8
OUTSIDE
 10
-455.0186865147698
 20
-766.2500000027844
 30
0.0
 40
3.0
 50
270.0
 51
90.0
  0
LINE
  5
1D9
  8
OUTSIDE
 10
-455.0186865147698
 20
-769.2500000027844
 30
0.0
 11
-455.0186865147698
 21
-776.7500000027844
 31
0.0
  0
ARC
  5
1DA
  8
OUTSIDE
 10
-455.0186865147698
 20
-779.7500000027844
 30
0.0
 40
3.0
 50
270.0
 51
90.0
  0
LINE
  5
1DB
  8
OUTSIDE
 10
-455.0186865147698
 20
-782.7500000027844
 30
0.0
 11
-485.0186865330679
 21
-782.7500000037703
 31
0.0
  0
LINE
  5
1DC
  8
OUTSIDE
 10
-485.0186865330679
 20
-782.7500000037703
 30
0.0
 11
-485.018686532916
 21
-803.2500000043142
 31
0.0
  0
LINE
  5
1DD
  8
OUTSIDE
 10
-485.018686532916
 20
-803.2500000043142
 30
0.0
 11
-455.0186865279766
 21
-803.2500000033283
 31
0.0
  0
ARC
  5
1DE
  8
OUTSIDE
 10
-455.0186865279766
 20
-806.2500000033283
 30
0.0
 40
3.0
 50
270.0
 51
90.0
  0
LINE
  5
1DF
  8
OUTSIDE
 10
-455.0186865279766
 20
-809.2500000033283
 30
0.0
 11
-455.0186865279766
 21
-816.7500000033283
 31
0.0
  0
ARC
  5
1E0
  8
OUTSIDE
 10
-455.0186865279766
 20
-819.7500000033283
 30
0.0
 40
3.0
 50
270.0
 51
90.0
  0
LINE
  5
1E1
  8
OUTSIDE
 10
-455.0186865279766
 20
-822.7500000033283
 30
0.0
 11
-485.018686525611
 21
-822.7500000043142
 31
0.0
  0
LINE
  5
1E2
  8
OUTSIDE
 10
-485.018686525611
 20
-822.7500000043142
 30
0.0
 11
-485.0186865254591
 21
-843.2500000048599
 31
0.0
  0
LINE
  5
1E3
  8
OUTSIDE
 10
-485.0186865254591
 20
-843.2500000048599
 30
0.0
 11
-455.0186865200612
 21
-843.250000003874
 31
0.0
  0
ARC
  5
1E4
  8
OUTSIDE
 10
-455.0186865200612
 20
-846.250000003874
 30
0.0
 40
3.0
 50
270.0
 51
90.0
  0
LINE
  5
1E5
  8
OUTSIDE
 10
-455.0186865200612
 20
-849.250000003874
 30
0.0
 11
-455.0186865200612
 21
-856.750000003874
 31
0.0
  0
ARC
  5
1E6
  8
OUTSIDE
 10
-455.0186865200612
 20
-859.750000003874
 30
0.0
 40
3.0
 50
270.0
 51
90.0
  0
LINE
  5
1E7
  8
OUTSIDE
 10
-455.0186865200612
 20
-862.750000003874
 30
0.0
 11
-485.0186865170363
 21
-862.7500000053792
 31
0.0
  0
LINE
  5
1E8
  8
OUTSIDE
 10
-485.0186865170363
 20
-862.7500000053792
 30
0.0
 11
-485.0186865168835
 21
-883.250000005924
 31
0.0
  0
LINE
  5
1E9
  8
OUTSIDE
 10
-485.0186865168835
 20
-883.250000005924
 30
0.0
 11
-455.0186865128071
 21
-883.2500000044179
 31
0.0
  0
ARC
  5
1EA
  8
OUTSIDE
 10
-455.0186865128071
 20
-886.2500000044179
 30
0.0
 40
3.0
 50
270.0
 51
90.0
  0
LINE
  5
1EB
  8
OUTSIDE
 10
-455.0186865128071
 20
-889.2500000044179
 30
0.0
 11
-455.0186865128071
 21
-896.7500000044179
 31
0.0
  0
ARC
  5
1EC
  8
OUTSIDE
 10
-455.0186865128071
 20
-899.7500000044179
 30
0.0
 40
3.0
 50
270.0
 51
90.0
  0
LINE
  5
1ED
  8
OUTSIDE
 10
-455.0186865128071
 20
-902.7500000044179
 30
0.0
 11
-485.0186865231854
 21
-902.7500000059231
 31
0.0
  0
LINE
  5
1EE
  8
OUTSIDE
 10
-485.0186865231854
 20
-902.7500000059231
 30
0.0
 11
-485.0186865230326
 21
-923.2500000064679
 31
0.0
  0
LINE
  5
1EF
  8
OUTSIDE
 10
-485.0186865230326
 20
-923.2500000064679
 30
0.0
 11
-455.0186865180931
 21
-923.2500000049617
 31
0.0
  0
ARC
  5
1F0
  8
OUTSIDE
 10
-455.0186865180931
 20
-926.2500000049617
 30
0.0
 40
3.0
 50
270.0
 51
90.0
  0
LINE
  5
1F1
  8
OUTSIDE
 10
-455.0186865180931
 20
-929.2500000049617
 30
0.0
 11
-455.0186865180931
 21
-936.7500000049617
 31
0.0
  0
ARC
  5
1F2
  8
OUTSIDE
 10
-455.0186865180931
 20
-939.7500000049617
 30
0.0
 40
3.0
 50
270.0
 51
90.0
  0
LINE
  5
1F3
  8
OUTSIDE
 10
-455.0186865180931
 20
-942.7500000049617
 30
0.0
 11
-485.0186865236492
 21
-942.7500000059486
 31
0.0
  0
LINE
  5
1F4
  8
OUTSIDE
 10
-485.0186865236492
 20
-942.7500000059486
 30
0.0
 11
-485.0186865234964
 21
-963.2500000064933
 31
0.0
  0
LINE
  5
1F5
  8
OUTSIDE
 10
-485.0186865234964
 20
-963.2500000064933
 30
0.0
 11
-455.0186865114993
 21
-963.2500000055074
 31
0.0
  0
ARC
  5
1F6
  8
OUTSIDE
 10
-455.0186865114993
 20
-966.2500000055074
 30
0.0
 40
3.0
 50
270.0
 51
90.0
  0
LINE
  5
1F7
  8
OUTSIDE
 10
-455.0186865114993
 20
-969.2500000055074
 30
0.0
 11
-455.0186865114993
 21
-976.7500000055074
 31
0.0
  0
ARC
  5
1F8
  8
OUTSIDE
 10
-455.0186865114993
 20
-979.7500000055074
 30
0.0
 40
3.0
 50
270.0
 51
90.0
  0
LINE
  5
1F9
  8
OUTSIDE
 10
-455.0186865114993
 20
-982.7500000055074
 30
0.0
 11
-485.0186865150736
 21
-982.7500000070136
 31
0.0
  0
LINE
  5
1FA
  8
OUTSIDE
 10
-485.0186865150736
 20
-982.7500000070136
 30
0.0
 11
-485.0186865149217
 21
-1003.250000007557
 31
0.0
  0
LINE
  5
1FB
  8
OUTSIDE
 10
-485.0186865149217
 20
-1003.250000007557
 30
0.0
 11
-455.0186865108453
 21
-1003.250000006051
 31
0.0
  0
ARC
  5
1FC
  8
OUTSIDE
 10
-455.0186865108453
 20
-1006.250000006051
 30
0.0
 40
3.0
 50
270.0
 51
90.0
  0
LINE
  5
1FD
  8
OUTSIDE
 10
-455.0186865108453
 20
-1009.250000006051
 30
0.0
 11
-455.0186865108453
 21
-1016.750000006051
 31
0.0
  0
ARC
  5
1FE
  8
OUTSIDE
 10
-455.0186865108453
 20
-1019.750000006051
 30
0.0
 40
3.0
 50
270.0
 51
90.0
  0
LINE
  5
1FF
  8
OUTSIDE
 10
-455.0186865108453
 20
-1022.750000006051
 30
0.0
 11
-485.0186865212236
 21
-1022.750000007557
 31
0.0
  0
LINE
  5
200
  8
OUTSIDE
 10
-485.0186865212236
 20
-1022.750000007557
 30
0.0
 11
-485.0186865210708
 21
-1043.250000008102
 31
0.0
  0
LINE
  5
201
  8
OUTSIDE
 10
-485.0186865210708
 20
-1043.250000008102
 30
0.0
 11
-455.0186865151445
 21
-1043.250000006597
 31
0.0
  0
ARC
  5
202
  8
OUTSIDE
 10
-455.0186865151445
 20
-1046.250000006597
 30
0.0
 40
3.0
 50
270.0
 51
90.0
  0
LINE
  5
203
  8
OUTSIDE
 10
-455.0186865151445
 20
-1049.250000006597
 30
0.0
 11
-455.0186865151445
 21
-1056.750000006597
 31
0.0
  0
ARC
  5
204
  8
OUTSIDE
 10
-455.0186865151445
 20
-1059.750000006597
 30
0.0
 40
3.0
 50
270.0
 51
90.0
  0
LINE
  5
205
  8
OUTSIDE
 10
-455.0186865151445
 20
-1062.750000006597
 30
0.0
 11
-485.0186865216865
 21
-1062.750000007583
 31
0.0
  0
LINE
  5
206
  8
OUTSIDE
 10
-485.0186865216865
 20
-1062.750000007583
 30
0.0
 11
-485.0186865215346
 21
-1083.250000008128
 31
0.0
  0
LINE
  5
207
  8
OUTSIDE
 10
-485.0186865215346
 20
-1083.250000008128
 30
0.0
 11
-455.0186865141613
 21
-1083.250000007141
 31
0.0
  0
ARC
  5
208
  8
OUTSIDE
 10
-455.0186865141613
 20
-1086.250000007141
 30
0.0
 40
3.0
 50
270.0
 51
90.0
  0
LINE
  5
209
  8
OUTSIDE
 10
-455.0186865141613
 20
-1089.250000007141
 30
0.0
 11
-455.0186865141613
 21
-1096.750000007141
 31
0.0
  0
ARC
  5
20A
  8
OUTSIDE
 10
-455.0186865141613
 20
-1099.750000007141
 30
0.0
 40
3.0
 50
270.0
 51
90.0
  0
LINE
  5
20B
  8
OUTSIDE
 10
-455.0186865141613
 20
-1102.750000007141
 30
0.0
 11
-485.0186865131118
 21
-1102.750000008647
 31
0.0
  0
LINE
  5
20C
  8
OUTSIDE
 10
-485.0186865131118
 20
-1102.750000008647
 30
0.0
 11
-485.0186865120413
 21
-1123.250000009193
 31
0.0
  0
LINE
  5
20D
  8
OUTSIDE
 10
-485.0186865120413
 20
-1123.250000009193
 30
0.0
 11
-455.0186865122532
 21
-1123.250000007686
 31
0.0
  0
ARC
  5
20E
  8
OUTSIDE
 10
-455.0186865122532
 20
-1126.250000007686
 30
0.0
 40
3.0
 50
270.0
 51
90.0
  0
LINE
  5
20F
  8
OUTSIDE
 10
-455.0186865122532
 20
-1129.250000007686
 30
0.0
 11
-455.0186865122532
 21
-1136.750000007686
 31
0.0
  0
ARC
  5
210
  8
OUTSIDE
 10
-455.0186865122532
 20
-1139.750000007686
 30
0.0
 40
3.0
 50
270.0
 51
90.0
  0
LINE
  5
211
  8
OUTSIDE
 10
-455.0186865122532
 20
-1142.750000007686
 30
0.0
 11
-485.0186865183423
 21
-1142.750000009192
 31
0.0
  0
LINE
  5
212
  8
OUTSIDE
 10
-485.0186865183423
 20
-1142.750000009192
 30
0.0
 11
-485.0186865369424
 21
-1163.250000008833
 31
0.0
  0
LINE
  5
213
  8
OUTSIDE
 10
-485.0186865369424
 20
-1163.250000008833
 30
0.0
 11
-455.0186865443093
 21
-1163.250000006422
 31
0.0
  0
LINE
  5
214
  8
INSIDE
 10
-449.7211110466478
 20
-1220.500000000375
 30
0.0
 11
-430.2788889514204
 21
-1220.500000000375
 31
0.0
  0
ARC
  5
215
  8
INSIDE
 10
-430.2788889514204
 20
-1217.500000000375
 30
0.0
 40
3.0
 50
270.0
 51
90.0
  0
LINE
  5
216
  8
INSIDE
 10
-430.2788889514204
 20
-1214.500000000375
 30
0.0
 11
-430.2788889514204
 21
-1207.000000000375
 31
0.0
  0
ARC
  5
217
  8
INSIDE
 10
-430.2788889514204
 20
-1204.000000000375
 30
0.0
 40
3.0
 50
270.0
 51
90.0
  0
LINE
  5
218
  8
INSIDE
 10
-430.2788889514177
 20
-1201.000000000375
 30
0.0
 11
-449.7211110466478
 21
-1201.000000000375
 31
0.0
  0
ARC
  5
219
  8
INSIDE
 10
-449.7211110466478
 20
-1204.000000000375
 30
0.0
 40
3.0
 50
90.0
 51
270.0
  0
LINE
  5
21A
  8
INSIDE
 10
-449.7211110466478
 20
-1207.000000000375
 30
0.0
 11
-449.7211110466478
 21
-1214.500000000375
 31
0.0
  0
ARC
  5
21B
  8
INSIDE
 10
-449.7211110466478
 20
-1217.500000000375
 30
0.0
 40
3.0
 50
90.0
 51
270.0
  0
LINE
  5
21C
  8
INSIDE
 10
-449.7211110456346
 20
-664.9999999997776
 30
0.0
 11
-430.2788889504072
 21
-664.9999999997776
 31
0.0
  0
ARC
  5
21D
  8
INSIDE
 10
-430.2788889504072
 20
-661.9999999997776
 30
0.0
 40
3.0
 50
270.0
 51
90.0
  0
LINE
  5
21E
  8
INSIDE
 10
-430.2788889504072
 20
-658.9999999997776
 30
0.0
 11
-430.2788889504072
 21
-651.4999999997776
 31
0.0
  0
ARC
  5
21F
  8
INSIDE
 10
-430.2788889504072
 20
-648.4999999997776
 30
0.0
 40
3.0
 50
270.0
 51
90.0
  0
LINE
  5
220
  8
INSIDE
 10
-430.2788889504045
 20
-645.4999999997776
 30
0.0
 11
-449.7211110456346
 21
-645.4999999997776
 31
0.0
  0
ARC
  5
221
  8
INSIDE
 10
-449.7211110456346
 20
-648.4999999997776
 30
0.0
 40
3.0
 50
90.0
 51
270.0
  0
LINE
  5
222
  8
INSIDE
 10
-449.7211110456346
 20
-651.4999999997776
 30
0.0
 11
-449.7211110456346
 21
-658.9999999997776
 31
0.0
  0
ARC
  5
223
  8
INSIDE
 10
-449.7211110456346
 20
-661.9999999997776
 30
0.0
 40
3.0
 50
90.0
 51
270.0
  0
CIRCLE
  5
224
  8
POINTS
 10
-778.1536753179425
 20
-633.8119391513646
 30
0.0
 40
3.0
  0
CIRCLE
  5
225
  8
POINTS
 10
-424.9676020478851
 20
-16.52368518725689
 30
0.0
 40
3.0
  0
CIRCLE
  5
226
  8
POINTS
 10
-434.8915419621703
 20
-655.4874454178298
 30
0.0
 40
3.0
  0
CIRCLE
  5
227
  8
POINTS
 10
-779.7261449025232
 20
-1233.068694548031
 30
0.0
 40
3.0
  0
LINE
  5
228
  8
DEFAULT
 10
-800.0
 20
-1250.0
 30
0.0
 11
-800.0
 21
0.0
 31
0.0
  0
LINE
  5
229
  8
DEFAULT
 10
-800.0
 20
0.0
 30
0.0
 11
-400.0
 21
0.0
 31
0.0
  0
LINE
  5
22A
  8
DEFAULT
 10
-400.0
 20
0.0
 30
0.0
 11
-400.0
 21
-1250.0
 31
0.0
  0
LINE
  5
22B
  8
DEFAULT
 10
-400.0
 20
-1250.0
 30
0.0
 11
-800.0
 21
-1250.0
 31
0.0
  0
CIRCLE
  5
22C
  8
POINTS
 10
-208.8898938697394
 20
-633.9445563576128
 30
0.0
 40
3.0
  0
CIRCLE
  5
22D
  8
POINTS
 10
-194.8898938697394
 20
-271.9445563576128
 30
0.0
 40
3.0
  0
LINE
  5
22E
  8
OUTSIDE
 10
-112.829366205015
 20
-545.3486783292992
 30
0.0
 11
-72.8915771833581
 21
-547.3428065962098
 31
0.0
  0
LINE
  5
22F
  8
OUTSIDE
 10
-72.8915771833581
 20
-547.3428065962098
 30
0.0
 11
-72.82936620501641
 21
-577.3832859309132
 31
0.0
  0
LINE
  5
230
  8
OUTSIDE
 10
-72.82936620501641
 20
-577.3832859309132
 30
0.0
 11
-152.8293662050173
 21
-573.3888169014335
 31
0.0
  0
LINE
  5
231
  8
OUTSIDE
 10
-152.8293662050173
 20
-573.3888169014335
 30
0.0
 11
-152.8293662050155
 21
-18.55824233098247
 31
0.0
  0
LINE
  5
232
  8
OUTSIDE
 10
-152.8293662050155
 20
-18.55824233098247
 30
0.0
 11
-72.92890376921787
 21
-22.54774136540618
 31
0.0
  0
LINE
  5
233
  8
OUTSIDE
 10
-72.92890376921787
 20
-22.54774136540618
 30
0.0
 11
-72.89157718335719
 21
-52.58697820003545
 31
0.0
  0
LINE
  5
234
  8
OUTSIDE
 10
-72.89157718335719
 20
-52.58697820003545
 30
0.0
 11
-112.8418084012924
 21
-50.59222868352845
 31
0.0
  0
LINE
  5
235
  8
OUTSIDE
 10
-112.8418084012924
 20
-50.59222868352845
 30
0.0
 11
-112.829366205015
 21
-68.61527378524988
 31
0.0
  0
LINE
  5
236
  8
OUTSIDE
 10
-112.829366205015
 20
-68.61527378524988
 30
0.0
 11
-112.829366205015
 21
-545.3486783292992
 31
0.0
  0
LINE
  5
237
  8
OUTSIDE
 10
-112.851167482801
 20
-1160.162124376948
 30
0.0
 11
-72.91337846114402
 21
-1162.156252643859
 31
0.0
  0
LINE
  5
238
  8
OUTSIDE
 10
-72.91337846114402
 20
-1162.156252643859
 30
0.0
 11
-72.85116748280234
 21
-1192.196731978562
 31
0.0
  0
LINE
  5
239
  8
OUTSIDE
 10
-72.85116748280234
 20
-1192.196731978562
 30
0.0
 11
-152.8511674828032
 21
-1188.202262949083
 31
0.0
  0
LINE
  5
23A
  8
OUTSIDE
 10
-152.8511674828032
 20
-1188.202262949083
 30
0.0
 11
-152.8511674828014
 21
-633.3716883786315
 31
0.0
  0
LINE
  5
23B
  8
OUTSIDE
 10
-152.8511674828014
 20
-633.3716883786315
 30
0.0
 11
-72.9507050470038
 21
-637.3611874130552
 31
0.0
  0
LINE
  5
23C
  8
OUTSIDE
 10
-72.9507050470038
 20
-637.3611874130552
 30
0.0
 11
-72.91337846114311
 21
-667.4004242476844
 31
0.0
  0
LINE
  5
23D
  8
OUTSIDE
 10
-72.91337846114311
 20
-667.4004242476844
 30
0.0
 11
-112.8636096790783
 21
-665.4056747311774
 31
0.0
  0
LINE
  5
23E
  8
OUTSIDE
 10
-112.8636096790783
 20
-665.4056747311774
 30
0.0
 11
-112.851167482801
 21
-683.4287198328989
 31
0.0
  0
LINE
  5
23F
  8
OUTSIDE
 10
-112.851167482801
 20
-683.4287198328989
 30
0.0
 11
-112.851167482801
 21
-1160.162124376948
 31
0.0
  0
LINE
  5
240
  8
OUTSIDE
 10
-291.3734437725952
 20
-707.9536033339486
 30
0.0
 11
-331.3112327942536
 21
-705.959475067038
 31
0.0
  0
LINE
  5
241
  8
OUTSIDE
 10
-331.3112327942536
 20
-705.959475067038
 30
0.0
 11
-331.3734437725952
 21
-675.9189957323347
 31
0.0
  0
LINE
  5
242
  8
OUTSIDE
 10
-331.3734437725952
 20
-675.9189957323347
 30
0.0
 11
-251.3734437725952
 21
-679.9134647618143
 31
0.0
  0
LINE
  5
243
  8
OUTSIDE
 10
-251.3734437725952
 20
-679.9134647618143
 30
0.0
 11
-251.3734437725952
 21
-1234.744039332266
 31
0.0
  0
LINE
  5
244
  8
OUTSIDE
 10
-251.3734437725952
 20
-1234.744039332266
 30
0.0
 11
-331.2739062083938
 21
-1230.754540297842
 31
0.0
  0
LINE
  5
245
  8
OUTSIDE
 10
-331.2739062083938
 20
-1230.754540297842
 30
0.0
 11
-331.3112327942536
 21
-1200.715303463213
 31
0.0
  0
LINE
  5
246
  8
OUTSIDE
 10
-331.3112327942536
 20
-1200.715303463213
 30
0.0
 11
-291.3610015763197
 21
-1202.71005297972
 31
0.0
  0
LINE
  5
247
  8
OUTSIDE
 10
-291.3610015763197
 20
-1202.71005297972
 30
0.0
 11
-291.3734437725952
 21
-1184.687007877998
 31
0.0
  0
LINE
  5
248
  8
OUTSIDE
 10
-291.3734437725952
 20
-1184.687007877998
 30
0.0
 11
-291.3734437725952
 21
-707.9536033339486
 31
0.0
  0
LINE
  5
249
  8
OUTSIDE
 10
-283.2831441701992
 20
-93.54302436969965
 30
0.0
 11
-323.2209331918575
 21
-91.54889610278906
 31
0.0
  0
LINE
  5
24A
  8
OUTSIDE
 10
-323.2209331918575
 20
-91.54889610278906
 30
0.0
 11
-323.2831441701992
 21
-61.50841676808568
 31
0.0
  0
LINE
  5
24B
  8
OUTSIDE
 10
-323.2831441701992
 20
-61.50841676808568
 30
0.0
 11
-243.2831441701992
 21
-65.50288579756534
 31
0.0
  0
LINE
  5
24C
  8
OUTSIDE
 10
-243.2831441701992
 20
-65.50288579756534
 30
0.0
 11
-243.2831441701992
 21
-620.3334603680164
 31
0.0
  0
LINE
  5
24D
  8
OUTSIDE
 10
-243.2831441701992
 20
-620.3334603680164
 30
0.0
 11
-323.1836066059977
 21
-616.3439613335927
 31
0.0
  0
LINE
  5
24E
  8
OUTSIDE
 10
-323.1836066059977
 20
-616.3439613335927
 30
0.0
 11
-323.2209331918575
 21
-586.3047244989634
 31
0.0
  0
LINE
  5
24F
  8
OUTSIDE
 10
-323.2209331918575
 20
-586.3047244989634
 30
0.0
 11
-283.2707019739237
 21
-588.2994740154704
 31
0.0
  0
LINE
  5
250
  8
OUTSIDE
 10
-283.2707019739237
 20
-588.2994740154704
 30
0.0
 11
-283.2831441701992
 21
-570.276428913749
 31
0.0
  0
LINE
  5
251
  8
OUTSIDE
 10
-283.2831441701992
 20
-570.276428913749
 30
0.0
 11
-283.2831441701992
 21
-93.54302436969965
 31
0.0
  0
CIRCLE
  5
252
  8
POINTS
 10
-89.88989386973935
 20
-949.9445563576128
 30
0.0
 40
3.0
  0
CIRCLE
  5
253
  8
POINTS
 10
-377.5563544052675
 20
-1230.861667000018
 30
0.0
 40
3.0
  0
CIRCLE
  5
254
  8
POINTS
 10
-18.10337115688071
 20
-656.6457147924511
 30
0.0
 40
3.0
  0
CIRCLE
  5
255
  8
POINTS
 10
-360.9975808531217
 20
-597.6229409922785
 30
0.0
 40
3.0
  0
CIRCLE
  5
256
  8
POINTS
 10
-27.76750582463592
 20
-19.66685869705816
 30
0.0
 40
3.0
  0
CIRCLE
  5
257
  8
POINTS
 10
-277.9116424063204
 20
-20.6037281224576
 30
0.0
 40
3.0
  0
LINE
  5
258
  8
OUTSIDE
 10
-57.8309208302735
 20
-713.2095640016832
 30
0.0
 11
-97.76870985193091
 21
-711.2154357347727
 31
0.0
  0
LINE
  5
259
  8
OUTSIDE
 10
-97.76870985193091
 20
-711.2154357347727
 30
0.0
 11
-97.83092083027259
 21
-681.1749564000693
 31
0.0
  0
LINE
  5
25A
  8
OUTSIDE
 10
-97.83092083027259
 20
-681.1749564000693
 30
0.0
 11
-17.83092083027259
 21
-685.1694254295489
 31
0.0
  0
LINE
  5
25B
  8
OUTSIDE
 10
-17.83092083027259
 20
-685.1694254295489
 30
0.0
 11
-17.8309208302735
 21
-1240.0
 31
0.0
  0
LINE
  5
25C
  8
OUTSIDE
 10
-17.8309208302735
 20
-1240.0
 30
0.0
 11
-97.73138326607113
 21
-1236.010500965577
 31
0.0
  0
LINE
  5
25D
  8
OUTSIDE
 10
-97.73138326607113
 20
-1236.010500965577
 30
0.0
 11
-97.76870985193182
 21
-1205.971264130947
 31
0.0
  0
LINE
  5
25E
  8
OUTSIDE
 10
-97.76870985193182
 20
-1205.971264130947
 30
0.0
 11
-57.81847863399707
 21
-1207.966013647454
 31
0.0
  0
LINE
  5
25F
  8
OUTSIDE
 10
-57.81847863399707
 20
-1207.966013647454
 30
0.0
 11
-57.8309208302735
 21
-1189.942968545733
 31
0.0
  0
LINE
  5
260
  8
OUTSIDE
 10
-57.8309208302735
 20
-1189.942968545733
 30
0.0
 11
-57.8309208302735
 21
-713.2095640016832
 31
0.0
  0
LINE
  5
261
  8
OUTSIDE
 10
-57.8309208302735
 20
-98.3950293974226
 30
0.0
 11
-97.76870985193091
 21
-96.40090113051201
 31
0.0
  0
LINE
  5
262
  8
OUTSIDE
 10
-97.76870985193091
 20
-96.40090113051201
 30
0.0
 11
-97.83092083027259
 21
-66.36042179580863
 31
0.0
  0
LINE
  5
263
  8
OUTSIDE
 10
-97.83092083027259
 20
-66.36042179580863
 30
0.0
 11
-17.83092083027259
 21
-70.3548908252883
 31
0.0
  0
LINE
  5
264
  8
OUTSIDE
 10
-17.83092083027259
 20
-70.3548908252883
 30
0.0
 11
-17.8309208302735
 21
-625.1854653957394
 31
0.0
  0
LINE
  5
265
  8
OUTSIDE
 10
-17.8309208302735
 20
-625.1854653957394
 30
0.0
 11
-97.73138326607113
 21
-621.1959663613156
 31
0.0
  0
LINE
  5
266
  8
OUTSIDE
 10
-97.73138326607113
 20
-621.1959663613156
 30
0.0
 11
-97.76870985193182
 21
-591.1567295266864
 31
0.0
  0
LINE
  5
267
  8
OUTSIDE
 10
-97.76870985193182
 20
-591.1567295266864
 30
0.0
 11
-57.81847863399707
 21
-593.1514790431934
 31
0.0
  0
LINE
  5
268
  8
OUTSIDE
 10
-57.81847863399707
 20
-593.1514790431934
 30
0.0
 11
-57.8309208302735
 21
-575.1284339414719
 31
0.0
  0
LINE
  5
269
  8
OUTSIDE
 10
-57.8309208302735
 20
-575.1284339414719
 30
0.0
 11
-57.8309208302735
 21
-98.3950293974226
 31
0.0
  0
LINE
  5
26A
  8
OUTSIDE
 10
-346.3718891473382
 20
-1154.907252265825
 30
0.0
 11
-306.4341001256807
 21
-1156.901380532736
 31
0.0
  0
LINE
  5
26B
  8
OUTSIDE
 10
-306.4341001256807
 20
-1156.901380532736
 30
0.0
 11
-306.3718891473391
 21
-1186.941859867439
 31
0.0
  0
LINE
  5
26C
  8
OUTSIDE
 10
-306.3718891473391
 20
-1186.941859867439
 30
0.0
 11
-386.3718891473391
 21
-1182.947390837959
 31
0.0
  0
LINE
  5
26D
  8
OUTSIDE
 10
-386.3718891473391
 20
-1182.947390837959
 30
0.0
 11
-386.3718891473382
 21
-628.1168162675085
 31
0.0
  0
LINE
  5
26E
  8
OUTSIDE
 10
-386.3718891473382
 20
-628.1168162675085
 30
0.0
 11
-306.4714267115405
 21
-632.1063153019322
 31
0.0
  0
LINE
  5
26F
  8
OUTSIDE
 10
-306.4714267115405
 20
-632.1063153019322
 30
0.0
 11
-306.4341001256798
 21
-662.1455521365615
 31
0.0
  0
LINE
  5
270
  8
OUTSIDE
 10
-306.4341001256798
 20
-662.1455521365615
 30
0.0
 11
-346.3843313436146
 21
-660.1508026200545
 31
0.0
  0
LINE
  5
271
  8
OUTSIDE
 10
-346.3843313436146
 20
-660.1508026200545
 30
0.0
 11
-346.3718891473382
 21
-678.1738477217759
 31
0.0
  0
LINE
  5
272
  8
OUTSIDE
 10
-346.3718891473382
 20
-678.1738477217759
 30
0.0
 11
-346.3718891473382
 21
-1154.907252265825
 31
0.0
  0
LINE
  5
273
  8
DEFAULT
 10
-400.0
 20
-1250.0
 30
0.0
 11
-400.0
 21
0.0
 31
0.0
  0
LINE
  5
274
  8
DEFAULT
 10
-400.0
 20
0.0
 30
0.0
 11
0.0
 21
0.0
 31
0.0
  0
LINE
  5
275
  8
DEFAULT
 10
0.0
 20
0.0
 30
0.0
 11
0.0
 21
-1250.0
 31
0.0
  0
LINE
  5
276
  8
DEFAULT
 10
0.0
 20
-1250.0
 30
0.0
 11
-400.0
 21
-1250.0
 31
0.0
  0
LINE
  5
277
  8
OUTSIDE
 10
-346.3718891473382
 20
-540.0927176615642
 30
0.0
 11
-306.4341001256807
 21
-542.0868459284748
 31
0.0
  0
LINE
  5
278
  8
OUTSIDE
 10
-306.4341001256807
 20
-542.0868459284748
 30
0.0
 11
-306.3718891473391
 21
-572.1273252631781
 31
0.0
  0
LINE
  5
279
  8
OUTSIDE
 10
-306.3718891473391
 20
-572.1273252631781
 30
0.0
 11
-386.3718891473391
 21
-568.1328562336985
 31
0.0
  0
LINE
  5
27A
  8
OUTSIDE
 10
-386.3718891473391
 20
-568.1328562336985
 30
0.0
 11
-386.3718891473382
 21
-13.30228166324741
 31
0.0
  0
LINE
  5
27B
  8
OUTSIDE
 10
-386.3718891473382
 20
-13.30228166324741
 30
0.0
 11
-306.4714267115405
 21
-17.29178069767113
 31
0.0
  0
LINE
  5
27C
  8
OUTSIDE
 10
-306.4714267115405
 20
-17.29178069767113
 30
0.0
 11
-306.4341001256798
 21
-47.33101753230039
 31
0.0
  0
LINE
  5
27D
  8
OUTSIDE
 10
-306.4341001256798
 20
-47.33101753230039
 30
0.0
 11
-346.3843313436146
 21
-45.33626801579339
 31
0.0
  0
LINE
  5
27E
  8
OUTSIDE
 10
-346.3843313436146
 20
-45.33626801579339
 30
0.0
 11
-346.3718891473382
 21
-63.35931311751483
 31
0.0
  0
LINE
  5
27F
  8
OUTSIDE
 10
-346.3718891473382
 20
-63.35931311751483
 30
0.0
 11
-346.3718891473382
 21
-540.0927176615642
 31
0.0
  0
ENDSEC
  0
EOF
