  0
SECTION
  2
HEADER
  9
$ACADVER
  1
AC1009
  9
$DWGCODEPAGE
  3
mac-roman
  9
$INSBASE
 10
0.0
 20
0.0
 30
0.0
  9
$EXTMIN
 10
-2050.0
 20
-1099.999999999999
 30
0.0
  9
$EXTMAX
 10
0.0
 20
0.0
 30
0.0
  9
$LIMMIN
 10
0.0
 20
0.0
  9
$LIMMAX
 10
12.0
 20
9.0
  9
$ORTHOMODE
 70
     0
  9
$REGENMODE
 70
     1
  9
$FILLMODE
 70
     1
  9
$QTEXTMODE
 70
     0
  9
$MIRRTEXT
 70
     1
  9
$DRAGMODE
 70
     2
  9
$LTSCALE
 40
1.0
  9
$OSMODE
 70
    37
  9
$ATTMODE
 70
     1
  9
$TEXTSIZE
 40
0.2
  9
$TRACEWID
 40
0.05
  9
$TEXTSTYLE
  7
STANDARD
  9
$CLAYER
  8
DEFAULT
  9
$CELTYPE
  6
BYLAYER
  9
$CECOLOR
 62
   256
  9
$DIMSCALE
 40
1.0
  9
$DIMASZ
 40
0.18
  9
$DIMEXO
 40
0.0625
  9
$DIMDLI
 40
0.38
  9
$DIMRND
 40
0.0
  9
$DIMDLE
 40
0.0
  9
$DIMEXE
 40
0.18
  9
$DIMTP
 40
0.0
  9
$DIMTM
 40
0.0
  9
$DIMTXT
 40
0.18
  9
$DIMCEN
 40
0.09
  9
$DIMTSZ
 40
0.0
  9
$DIMTOL
 70
     0
  9
$DIMLIM
 70
     0
  9
$DIMTIH
 70
     1
  9
$DIMTOH
 70
     1
  9
$DIMSE1
 70
     0
  9
$DIMSE2
 70
     0
  9
$DIMTAD
 70
     0
  9
$DIMZIN
 70
     0
  9
$DIMBLK
  1

  9
$DIMASO
 70
     1
  9
$DIMSHO
 70
     1
  9
$DIMPOST
  1

  9
$DIMAPOST
  1

  9
$DIMALT
 70
     0
  9
$DIMALTD
 70
     2
  9
$DIMALTF
 40
25.4
  9
$DIMLFAC
 40
1.0
  9
$DIMTOFL
 70
     0
  9
$DIMTVP
 40
0.0
  9
$DIMTIX
 70
     0
  9
$DIMSOXD
 70
     0
  9
$DIMSAH
 70
     0
  9
$DIMBLK1
  1

  9
$DIMBLK2
  1

  9
$DIMSTYLE
  2
STANDARD
  9
$DIMCLRD
 70
     0
  9
$DIMCLRE
 70
     0
  9
$DIMCLRT
 70
     0
  9
$DIMTFAC
 40
1.0
  9
$DIMGAP
 40
0.09
  9
$LUNITS
 70
     2
  9
$LUPREC
 70
     2
  9
$SKETCHINC
 40
0.1
  9
$FILLETRAD
 40
0.5
  9
$AUNITS
 70
     0
  9
$AUPREC
 70
     0
  9
$MENU
  1
.
  9
$ELEVATION
 40
0.0
  9
$PELEVATION
 40
0.0
  9
$THICKNESS
 40
0.0
  9
$LIMCHECK
 70
     0
  9
$CHAMFERA
 40
0.0
  9
$CHAMFERB
 40
0.0
  9
$SKPOLY
 70
     0
  9
$TDCREATE
 40
2457104.830868056
  9
$TDUPDATE
 40
2457104.830914352
  9
$TDINDWG
 40
0.0000000116
  9
$TDUSRTIMER
 40
0.0000000116
  9
$USRTIMER
 70
     1
  9
$ANGBASE
 50
0.0
  9
$ANGDIR
 70
     0
  9
$PDMODE
 70
     0
  9
$PDSIZE
 40
0.0
  9
$PLINEWID
 40
0.0
  9
$COORDS
 70
     1
  9
$SPLFRAME
 70
     0
  9
$SPLINETYPE
 70
     6
  9
$SPLINESEGS
 70
     8
  9
$ATTDIA
 70
     0
  9
$ATTREQ
 70
     1
  9
$HANDLING
 70
     1
  9
$HANDSEED
  5
190
  9
$SURFTAB1
 70
     6
  9
$SURFTAB2
 70
     6
  9
$SURFTYPE
 70
     6
  9
$SURFU
 70
     6
  9
$SURFV
 70
     6
  9
$UCSNAME
  2

  9
$UCSORG
 10
0.0
 20
0.0
 30
0.0
  9
$UCSXDIR
 10
1.0
 20
0.0
 30
0.0
  9
$UCSYDIR
 10
0.0
 20
1.0
 30
0.0
  9
$PUCSNAME
  2

  9
$PUCSORG
 10
0.0
 20
0.0
 30
0.0
  9
$PUCSXDIR
 10
1.0
 20
0.0
 30
0.0
  9
$PUCSYDIR
 10
0.0
 20
1.0
 30
0.0
  9
$USERI1
 70
     0
  9
$USERI2
 70
     0
  9
$USERI3
 70
     0
  9
$USERI4
 70
     0
  9
$USERI5
 70
     0
  9
$USERR1
 40
0.0
  9
$USERR2
 40
0.0
  9
$USERR3
 40
0.0
  9
$USERR4
 40
0.0
  9
$USERR5
 40
0.0
  9
$WORLDVIEW
 70
     1
  9
$SHADEDGE
 70
     3
  9
$SHADEDIF
 70
    70
  9
$TILEMODE
 70
     1
  9
$MAXACTVP
 70
    64
  9
$PLIMCHECK
 70
     0
  9
$PEXTMIN
 10
1.000000000000000E+20
 20
1.000000000000000E+20
 30
1.000000000000000E+20
  9
$PEXTMAX
 10
-1.000000000000000E+20
 20
-1.000000000000000E+20
 30
-1.000000000000000E+20
  9
$PLIMMIN
 10
0.0
 20
0.0
  9
$PLIMMAX
 10
12.0
 20
9.0
  9
$UNITMODE
 70
     0
  9
$VISRETAIN
 70
     1
  9
$PLINEGEN
 70
     0
  9
$PSLTSCALE
 70
     1
  0
ENDSEC
  0
SECTION
  2
TABLES
  0
TABLE
  2
VPORT
 70
     1
  0
VPORT
  2
*ACTIVE
 70
     0
 10
0.0
 20
0.0
 11
1.0
 21
1.0
 12
-1025.0
 22
-549.9999999999995
 13
0.0
 23
0.0
 14
0.5
 24
0.5
 15
0.5
 25
0.5
 16
0.0
 26
0.0
 36
1.0
 17
0.0
 27
0.0
 37
0.0
 40
1121.999999999999
 41
1.863636363636365
 42
50.0
 43
0.0
 44
0.0
 50
0.0
 51
0.0
 71
     0
 72
   100
 73
     1
 74
     3
 75
     0
 76
     0
 77
     0
 78
     0
  0
ENDTAB
  0
TABLE
  2
LTYPE
 70
     1
  0
LTYPE
  2
CONTINUOUS
 70
     0
  3
Solid line
 72
    65
 73
     0
 40
0.0
  0
ENDTAB
  0
TABLE
  2
LAYER
 70
     5
  0
LAYER
  2
0
 70
     0
 62
     7
  6
CONTINUOUS
  0
LAYER
  2
DEFAULT
 70
     0
 62
     7
  6
CONTINUOUS
  0
LAYER
  2
INSIDE
 70
     0
 62
     5
  6
CONTINUOUS
  0
LAYER
  2
OUTSIDE
 70
     0
 62
     1
  6
CONTINUOUS
  0
LAYER
  2
POINTS
 70
     0
 62
    98
  6
CONTINUOUS
  0
ENDTAB
  0
TABLE
  2
STYLE
 70
     1
  0
STYLE
  2
STANDARD
 70
     0
 40
0.0
 41
1.0
 50
0.0
 71
     0
 42
0.2
  3
txt
  4

  0
ENDTAB
  0
TABLE
  2
VIEW
 70
     0
  0
ENDTAB
  0
TABLE
  2
UCS
 70
     0
  0
ENDTAB
  0
TABLE
  2
APPID
 70
     1
  0
APPID
  2
ACAD
 70
     0
  0
ENDTAB
  0
TABLE
  2
DIMSTYLE
 70
     1
  0
DIMSTYLE
  2
STANDARD
 70
     0
  3

  4

  5

  6

  7

 40
1.0
 41
0.18
 42
0.0625
 43
0.38
 44
0.18
 45
0.0
 46
0.0
 47
0.0
 48
0.0
140
0.18
141
0.09
142
0.0
143
25.4
144
1.0
145
0.0
146
1.0
147
0.09
 71
     0
 72
     0
 73
     1
 74
     1
 75
     0
 76
     0
 77
     0
 78
     0
170
     0
171
     2
172
     0
173
     0
174
     0
175
     0
176
     0
177
     0
178
     0
  0
ENDTAB
  0
ENDSEC
  0
SECTION
  2
BLOCKS
  0
BLOCK
  8
0
  2
$MODEL_SPACE
 70
     0
 10
0.0
 20
0.0
 30
0.0
  3
$MODEL_SPACE
  1

  0
ENDBLK
  5
21
  8
0
  0
BLOCK
 67
     1
  8
0
  2
$PAPER_SPACE
 70
     0
 10
0.0
 20
0.0
 30
0.0
  3
$PAPER_SPACE
  1

  0
ENDBLK
  5
1D
 67
     1
  8
0
  0
ENDSEC
  0
SECTION
  2
ENTITIES
  0
LINE
  5
6F
  8
DEFAULT
 10
0.0
 20
-1099.999999999999
 30
0.0
 11
-2050.0
 21
-1099.999999999999
 31
0.0
  0
LINE
  5
70
  8
DEFAULT
 10
-2050.0
 20
-1099.999999999999
 30
0.0
 11
-2050.0
 21
0.0
 31
0.0
  0
LINE
  5
71
  8
DEFAULT
 10
-2050.0
 20
0.0
 30
0.0
 11
0.0
 21
0.0
 31
0.0
  0
LINE
  5
72
  8
DEFAULT
 10
0.0
 20
0.0
 30
0.0
 11
0.0
 21
-1099.999999999999
 31
0.0
  0
ARC
  5
74
  8
INSIDE
 10
-526.6055691870279
 20
-557.4376791847917
 30
0.0
 40
3.0
 50
180.0
 51
0.0
  0
LINE
  5
75
  8
INSIDE
 10
-523.6055691870279
 20
-557.4376791847917
 30
0.0
 11
-523.6055691870279
 21
-507.2376791847919
 31
0.0
  0
ARC
  5
76
  8
INSIDE
 10
-526.6055691870279
 20
-507.2376791847919
 30
0.0
 40
3.0
 50
0.0
 51
180.0
  0
LINE
  5
77
  8
INSIDE
 10
-529.6055691870279
 20
-507.2376791847919
 30
0.0
 11
-537.1055691870279
 21
-507.2376791847919
 31
0.0
  0
ARC
  5
78
  8
INSIDE
 10
-540.1055691870279
 20
-507.2376791847919
 30
0.0
 40
3.0
 50
0.0
 51
180.0
  0
LINE
  5
79
  8
INSIDE
 10
-543.1055691870279
 20
-507.2376791847919
 30
0.0
 11
-543.1055691870279
 21
-557.4376791847917
 31
0.0
  0
ARC
  5
7A
  8
INSIDE
 10
-540.1055691870279
 20
-557.4376791847917
 30
0.0
 40
3.0
 50
180.0
 51
0.0
  0
LINE
  5
7B
  8
INSIDE
 10
-537.1055691870279
 20
-557.4376791847917
 30
0.0
 11
-529.6055691870279
 21
-557.4376791847917
 31
0.0
  0
LINE
  5
7D
  8
OUTSIDE
 10
-18.21532566583573
 20
-180.1609936831092
 30
0.0
 11
-18.21532566583573
 21
-100.1609936831073
 31
0.0
  0
LINE
  5
7E
  8
OUTSIDE
 10
-18.21532566583573
 20
-100.1609936831073
 30
0.0
 11
-446.9379472588162
 21
-100.1609936831082
 31
0.0
  0
LINE
  5
7F
  8
OUTSIDE
 10
-446.9379472588162
 20
-100.1609936831082
 30
0.0
 11
-301.3906247194145
 21
-476.2557093593869
 31
0.0
  0
LINE
  5
80
  8
OUTSIDE
 10
-301.3906247194145
 20
-476.2557093593869
 30
0.0
 11
-572.3555691857191
 21
-489.7852228437014
 31
0.0
  0
LINE
  5
81
  8
OUTSIDE
 10
-572.3555691857191
 20
-489.7852228437014
 30
0.0
 11
-572.3555691875563
 21
-593.9542916143082
 31
0.0
  0
LINE
  5
82
  8
OUTSIDE
 10
-572.3555691875563
 20
-593.9542916143082
 30
0.0
 11
-261.8417693387973
 21
-578.4500696552859
 31
0.0
  0
LINE
  5
83
  8
OUTSIDE
 10
-261.8417693387973
 20
-578.4500696552859
 30
0.0
 11
-119.9444037022231
 21
-945.1132858051633
 31
0.0
  0
LINE
  5
84
  8
OUTSIDE
 10
-119.9444037022231
 20
-945.1132858051633
 30
0.0
 11
-18.21532566583573
 21
-945.1132858051633
 31
0.0
  0
LINE
  5
85
  8
OUTSIDE
 10
-18.21532566583573
 20
-945.1132858051633
 30
0.0
 11
-18.21532566583573
 21
-462.1165223345988
 31
0.0
  0
LINE
  5
86
  8
OUTSIDE
 10
-18.21532566583573
 20
-462.1165223345988
 30
0.0
 11
-211.9268036675467
 21
-471.7887035787544
 31
0.0
  0
LINE
  5
87
  8
OUTSIDE
 10
-211.9268036675467
 20
-471.7887035787544
 30
0.0
 11
-324.7856942193184
 21
-180.1609936831082
 31
0.0
  0
LINE
  5
88
  8
OUTSIDE
 10
-324.7856942193184
 20
-180.1609936831082
 30
0.0
 11
-18.21532566583573
 21
-180.1609936831092
 31
0.0
  0
ARC
  5
89
  8
INSIDE
 10
-317.400043718656
 20
-139.5201275700583
 30
0.0
 40
3.0
 50
270.0
 51
90.0
  0
LINE
  5
8A
  8
INSIDE
 10
-317.400043718656
 20
-136.5201275700583
 30
0.0
 11
-367.6000437186558
 21
-136.5201275700583
 31
0.0
  0
ARC
  5
8B
  8
INSIDE
 10
-367.6000437186558
 20
-139.5201275700583
 30
0.0
 40
3.0
 50
90.0
 51
270.0
  0
LINE
  5
8C
  8
INSIDE
 10
-367.6000437186558
 20
-142.5201275700583
 30
0.0
 11
-367.6000437186558
 21
-150.0201275700583
 31
0.0
  0
ARC
  5
8D
  8
INSIDE
 10
-367.6000437186558
 20
-153.0201275700583
 30
0.0
 40
3.0
 50
90.0
 51
270.0
  0
LINE
  5
8E
  8
INSIDE
 10
-367.6000437186558
 20
-156.0201275700583
 30
0.0
 11
-317.400043718656
 21
-156.0201275700583
 31
0.0
  0
ARC
  5
8F
  8
INSIDE
 10
-317.400043718656
 20
-153.0201275700583
 30
0.0
 40
3.0
 50
270.0
 51
90.0
  0
LINE
  5
90
  8
INSIDE
 10
-317.400043718656
 20
-150.0201275700583
 30
0.0
 11
-317.400043718656
 21
-142.5201275700583
 31
0.0
  0
ARC
  5
91
  8
INSIDE
 10
-54.84616305296458
 20
-887.7352641717707
 30
0.0
 40
3.0
 50
270.0
 51
90.0
  0
LINE
  5
92
  8
INSIDE
 10
-54.84616305296458
 20
-884.7352641717707
 30
0.0
 11
-105.0461630529644
 21
-884.7352641717707
 31
0.0
  0
ARC
  5
93
  8
INSIDE
 10
-105.0461630529644
 20
-887.7352641717707
 30
0.0
 40
3.0
 50
90.0
 51
270.0
  0
LINE
  5
94
  8
INSIDE
 10
-105.0461630529644
 20
-890.7352641717707
 30
0.0
 11
-105.0461630529644
 21
-898.2352641717707
 31
0.0
  0
ARC
  5
95
  8
INSIDE
 10
-105.0461630529644
 20
-901.2352641717707
 30
0.0
 40
3.0
 50
90.0
 51
270.0
  0
LINE
  5
96
  8
INSIDE
 10
-105.0461630529644
 20
-904.2352641717707
 30
0.0
 11
-54.84616305296458
 21
-904.2352641717707
 31
0.0
  0
ARC
  5
97
  8
INSIDE
 10
-54.84616305296458
 20
-901.2352641717707
 30
0.0
 40
3.0
 50
270.0
 51
90.0
  0
LINE
  5
98
  8
INSIDE
 10
-54.84616305296458
 20
-898.2352641717707
 30
0.0
 11
-54.84616305296458
 21
-890.7352641717707
 31
0.0
  0
ARC
  5
99
  8
INSIDE
 10
-51.21532566583664
 20
-532.7648304477307
 30
0.0
 40
3.0
 50
180.0
 51
0.0
  0
LINE
  5
9A
  8
INSIDE
 10
-48.21532566583664
 20
-532.7648304477307
 30
0.0
 11
-48.21532566583664
 21
-482.5648304477309
 31
0.0
  0
ARC
  5
9B
  8
INSIDE
 10
-51.21532566583664
 20
-482.5648304477309
 30
0.0
 40
3.0
 50
0.0
 51
180.0
  0
LINE
  5
9C
  8
INSIDE
 10
-54.21532566583664
 20
-482.5648304477309
 30
0.0
 11
-61.71532566583664
 21
-482.5648304477309
 31
0.0
  0
ARC
  5
9D
  8
INSIDE
 10
-64.71532566583664
 20
-482.5648304477309
 30
0.0
 40
3.0
 50
0.0
 51
180.0
  0
LINE
  5
9E
  8
INSIDE
 10
-67.71532566583664
 20
-482.5648304477309
 30
0.0
 11
-67.71532566583664
 21
-532.7648304477307
 31
0.0
  0
ARC
  5
9F
  8
INSIDE
 10
-64.71532566583664
 20
-532.7648304477307
 30
0.0
 40
3.0
 50
180.0
 51
0.0
  0
LINE
  5
A0
  8
INSIDE
 10
-61.71532566583664
 20
-532.7648304477307
 30
0.0
 11
-54.21532566583664
 21
-532.7648304477307
 31
0.0
  0
ARC
  5
A1
  8
INSIDE
 10
-100.2153256658366
 20
-572.3824134003553
 30
0.0
 40
2.0
 50
0.0000000000260551
 51
92.85845381428881
  0
LINE
  5
A2
  8
INSIDE
 10
-100.3150631412846
 20
-570.3849018394394
 30
0.0
 11
-169.6135298252534
 21
-573.8450340744699
 31
0.0
  0
ARC
  5
A3
  8
INSIDE
 10
-169.5137923510383
 20
-575.8425456354471
 30
0.0
 40
2.0
 50
92.858453778928
 51
201.1562609345968
  0
LINE
  5
A4
  8
INSIDE
 10
-171.3789915317584
 20
-576.564371110363
 30
0.0
 11
-102.0805248462775
 21
-755.631815774781
 31
0.0
  0
ARC
  5
A5
  8
INSIDE
 10
-100.2153256655565
 20
-754.9099902998641
 30
0.0
 40
2.0
 50
201.156260934621
 51
359.9999999844972
  0
LINE
  5
A6
  8
INSIDE
 10
-98.21532566555652
 20
-754.9099903004053
 30
0.0
 11
-98.21532566583664
 21
-572.3824134003544
 31
0.0
  0
LINE
  5
A7
  8
OUTSIDE
 10
-1014.478362674169
 20
-62.29800466425604
 30
0.0
 11
-1016.474499656931
 21
-102.2356933383553
 31
0.0
  0
LINE
  5
A8
  8
OUTSIDE
 10
-1016.474499656931
 20
-102.2356933383553
 30
0.0
 11
-1046.514982082612
 21
-102.2963933951523
 31
0.0
  0
LINE
  5
A9
  8
OUTSIDE
 10
-1046.514982082612
 20
-102.2963933951523
 30
0.0
 11
-1042.516489363489
 21
-22.29659440288924
 31
0.0
  0
LINE
  5
AA
  8
OUTSIDE
 10
-1042.516489363489
 20
-22.29659440288924
 30
0.0
 11
-487.685915494817
 21
-22.32450026338938
 31
0.0
  0
LINE
  5
AB
  8
OUTSIDE
 10
-487.685915494817
 20
-22.32450026338938
 30
0.0
 11
-491.6794332125291
 21
-102.2247619415484
 31
0.0
  0
LINE
  5
AC
  8
OUTSIDE
 10
-491.6794332125291
 20
-102.2247619415484
 30
0.0
 11
-521.7186718865496
 21
-102.2605776683868
 31
0.0
  0
LINE
  5
AD
  8
OUTSIDE
 10
-521.7186718865496
 20
-102.2605776683868
 30
0.0
 11
-519.7219130283966
 21
-62.31044682927222
 31
0.0
  0
LINE
  5
AE
  8
OUTSIDE
 10
-519.7219130283966
 20
-62.31044682927222
 30
0.0
 11
-537.7449587331166
 21
-62.32198253514525
 31
0.0
  0
LINE
  5
AF
  8
OUTSIDE
 10
-537.7449587331166
 20
-62.32198253514525
 30
0.0
 11
-1014.478362674169
 21
-62.29800466425604
 31
0.0
  0
CIRCLE
  5
B1
  8
POINTS
 10
-110.7172538589512
 20
-44.02905445873512
 30
0.0
 40
3.0
  0
CIRCLE
  5
B2
  8
POINTS
 10
-134.1713695302233
 20
-1035.433163822017
 30
0.0
 40
3.0
  0
LINE
  5
B3
  8
OUTSIDE
 10
-455.8218754636464
 20
-325.047707877945
 30
0.0
 11
-455.8218754636464
 21
-245.0477078779431
 31
0.0
  0
LINE
  5
B4
  8
OUTSIDE
 10
-455.8218754636464
 20
-245.0477078779431
 30
0.0
 11
-884.5444970566268
 21
-245.047707877944
 31
0.0
  0
LINE
  5
B5
  8
OUTSIDE
 10
-884.5444970566268
 20
-245.047707877944
 30
0.0
 11
-738.9971745172243
 21
-621.1424235542227
 31
0.0
  0
LINE
  5
B6
  8
OUTSIDE
 10
-738.9971745172243
 20
-621.1424235542227
 30
0.0
 11
-1009.962118983529
 21
-634.6719370385372
 31
0.0
  0
LINE
  5
B7
  8
OUTSIDE
 10
-1009.962118983529
 20
-634.6719370385372
 30
0.0
 11
-1009.962118985365
 21
-738.841005809144
 31
0.0
  0
LINE
  5
B8
  8
OUTSIDE
 10
-1009.962118985365
 20
-738.841005809144
 30
0.0
 11
-699.4483191366071
 21
-723.3367838501217
 31
0.0
  0
LINE
  5
B9
  8
OUTSIDE
 10
-699.4483191366071
 20
-723.3367838501217
 30
0.0
 11
-557.5509535000328
 21
-1089.999999999999
 31
0.0
  0
LINE
  5
BA
  8
OUTSIDE
 10
-557.5509535000328
 20
-1089.999999999999
 30
0.0
 11
-455.8218754636464
 21
-1089.999999999999
 31
0.0
  0
LINE
  5
BB
  8
OUTSIDE
 10
-455.8218754636464
 20
-1089.999999999999
 30
0.0
 11
-455.8218754636464
 21
-607.0032365294346
 31
0.0
  0
LINE
  5
BC
  8
OUTSIDE
 10
-455.8218754636464
 20
-607.0032365294346
 30
0.0
 11
-649.5333534653564
 21
-616.6754177735902
 31
0.0
  0
LINE
  5
BD
  8
OUTSIDE
 10
-649.5333534653564
 20
-616.6754177735902
 30
0.0
 11
-762.3922440171273
 21
-325.047707877944
 31
0.0
  0
LINE
  5
BE
  8
OUTSIDE
 10
-762.3922440171273
 20
-325.047707877944
 30
0.0
 11
-455.8218754636464
 21
-325.047707877945
 31
0.0
  0
LINE
  5
BF
  8
OUTSIDE
 10
-619.3094448866568
 20
-1090.0
 30
0.0
 11
-1006.638846942746
 21
-1090.0
 31
0.0
  0
LINE
  5
C0
  8
OUTSIDE
 10
-1006.638846942746
 20
-1090.0
 30
0.0
 11
-1006.638846942746
 21
-758.6750719685106
 31
0.0
  0
LINE
  5
C1
  8
OUTSIDE
 10
-1006.638846942746
 20
-758.6750719685106
 30
0.0
 11
-752.4428642318017
 21
-745.9828472140507
 31
0.0
  0
LINE
  5
C2
  8
OUTSIDE
 10
-752.4428642318017
 20
-745.9828472140507
 30
0.0
 11
-619.3094448866568
 21
-1090.0
 31
0.0
  0
LINE
  5
C3
  8
OUTSIDE
 10
-1014.241511458854
 20
-614.8606954061324
 30
0.0
 11
-1014.241511458854
 21
-245.4024000860818
 31
0.0
  0
LINE
  5
C4
  8
OUTSIDE
 10
-1014.241511458854
 20
-245.4024000860818
 30
0.0
 11
-905.852663251002
 21
-245.4024000860818
 31
0.0
  0
LINE
  5
C5
  8
OUTSIDE
 10
-905.852663251002
 20
-245.4024000860818
 30
0.0
 11
-767.6387338801824
 21
-602.5476059358643
 31
0.0
  0
LINE
  5
C6
  8
OUTSIDE
 10
-767.6387338801824
 20
-602.5476059358643
 30
0.0
 11
-1014.241511458854
 21
-614.8606954061324
 31
0.0
  0
ARC
  5
C7
  8
INSIDE
 10
-755.0065935164657
 20
-284.4068417648941
 30
0.0
 40
3.0
 50
270.0
 51
90.0
  0
LINE
  5
C8
  8
INSIDE
 10
-755.0065935164657
 20
-281.4068417648941
 30
0.0
 11
-805.2065935164655
 21
-281.4068417648941
 31
0.0
  0
ARC
  5
C9
  8
INSIDE
 10
-805.2065935164655
 20
-284.4068417648941
 30
0.0
 40
3.0
 50
90.0
 51
270.0
  0
LINE
  5
CA
  8
INSIDE
 10
-805.2065935164655
 20
-287.4068417648941
 30
0.0
 11
-805.2065935164655
 21
-294.9068417648941
 31
0.0
  0
ARC
  5
CB
  8
INSIDE
 10
-805.2065935164655
 20
-297.9068417648941
 30
0.0
 40
3.0
 50
90.0
 51
270.0
  0
LINE
  5
CC
  8
INSIDE
 10
-805.2065935164655
 20
-300.9068417648941
 30
0.0
 11
-755.0065935164657
 21
-300.9068417648941
 31
0.0
  0
ARC
  5
CD
  8
INSIDE
 10
-755.0065935164657
 20
-297.9068417648941
 30
0.0
 40
3.0
 50
270.0
 51
90.0
  0
LINE
  5
CE
  8
INSIDE
 10
-755.0065935164657
 20
-294.9068417648941
 30
0.0
 11
-755.0065935164657
 21
-287.4068417648941
 31
0.0
  0
ARC
  5
CF
  8
INSIDE
 10
-492.4527128507743
 20
-1032.621978366607
 30
0.0
 40
3.0
 50
270.0
 51
90.0
  0
LINE
  5
D0
  8
INSIDE
 10
-492.4527128507743
 20
-1029.621978366607
 30
0.0
 11
-542.6527128507742
 21
-1029.621978366607
 31
0.0
  0
ARC
  5
D1
  8
INSIDE
 10
-542.6527128507742
 20
-1032.621978366607
 30
0.0
 40
3.0
 50
90.0
 51
270.0
  0
LINE
  5
D2
  8
INSIDE
 10
-542.6527128507742
 20
-1035.621978366607
 30
0.0
 11
-542.6527128507742
 21
-1043.121978366607
 31
0.0
  0
ARC
  5
D3
  8
INSIDE
 10
-542.6527128507742
 20
-1046.121978366607
 30
0.0
 40
3.0
 50
90.0
 51
270.0
  0
LINE
  5
D4
  8
INSIDE
 10
-542.6527128507742
 20
-1049.121978366607
 30
0.0
 11
-492.4527128507743
 21
-1049.121978366607
 31
0.0
  0
ARC
  5
D5
  8
INSIDE
 10
-492.4527128507743
 20
-1046.121978366607
 30
0.0
 40
3.0
 50
270.0
 51
90.0
  0
LINE
  5
D6
  8
INSIDE
 10
-492.4527128507743
 20
-1043.121978366607
 30
0.0
 11
-492.4527128507743
 21
-1035.621978366607
 31
0.0
  0
ARC
  5
D7
  8
INSIDE
 10
-488.8218754636464
 20
-677.6515446425665
 30
0.0
 40
3.0
 50
180.0
 51
0.0
  0
LINE
  5
D8
  8
INSIDE
 10
-485.8218754636464
 20
-677.6515446425665
 30
0.0
 11
-485.8218754636464
 21
-627.4515446425667
 31
0.0
  0
ARC
  5
D9
  8
INSIDE
 10
-488.8218754636464
 20
-627.4515446425667
 30
0.0
 40
3.0
 50
0.0
 51
180.0
  0
LINE
  5
DA
  8
INSIDE
 10
-491.8218754636464
 20
-627.4515446425667
 30
0.0
 11
-499.3218754636464
 21
-627.4515446425667
 31
0.0
  0
ARC
  5
DB
  8
INSIDE
 10
-502.3218754636464
 20
-627.4515446425667
 30
0.0
 40
3.0
 50
0.0
 51
180.0
  0
LINE
  5
DC
  8
INSIDE
 10
-505.3218754636464
 20
-627.4515446425667
 30
0.0
 11
-505.3218754636464
 21
-677.6515446425665
 31
0.0
  0
ARC
  5
DD
  8
INSIDE
 10
-502.3218754636464
 20
-677.6515446425665
 30
0.0
 40
3.0
 50
180.0
 51
0.0
  0
LINE
  5
DE
  8
INSIDE
 10
-499.3218754636464
 20
-677.6515446425665
 30
0.0
 11
-491.8218754636464
 21
-677.6515446425665
 31
0.0
  0
ARC
  5
DF
  8
INSIDE
 10
-964.2121189848376
 20
-702.3243933796275
 30
0.0
 40
3.0
 50
180.0
 51
0.0
  0
LINE
  5
E0
  8
INSIDE
 10
-961.2121189848376
 20
-702.3243933796275
 30
0.0
 11
-961.2121189848376
 21
-652.1243933796277
 31
0.0
  0
ARC
  5
E1
  8
INSIDE
 10
-964.2121189848376
 20
-652.1243933796277
 30
0.0
 40
3.0
 50
0.0
 51
180.0
  0
LINE
  5
E2
  8
INSIDE
 10
-967.2121189848376
 20
-652.1243933796277
 30
0.0
 11
-974.7121189848376
 21
-652.1243933796277
 31
0.0
  0
ARC
  5
E3
  8
INSIDE
 10
-977.7121189848376
 20
-652.1243933796277
 30
0.0
 40
3.0
 50
0.0
 51
180.0
  0
LINE
  5
E4
  8
INSIDE
 10
-980.7121189848376
 20
-652.1243933796277
 30
0.0
 11
-980.7121189848376
 21
-702.3243933796275
 31
0.0
  0
ARC
  5
E5
  8
INSIDE
 10
-977.7121189848376
 20
-702.3243933796275
 30
0.0
 40
3.0
 50
180.0
 51
0.0
  0
LINE
  5
E6
  8
INSIDE
 10
-974.7121189848376
 20
-702.3243933796275
 30
0.0
 11
-967.2121189848376
 21
-702.3243933796275
 31
0.0
  0
LINE
  5
E7
  8
INSIDE
 10
-944.4915114588539
 20
-551.2319087746291
 30
0.0
 11
-944.4915114588539
 21
-494.5006795678055
 31
0.0
  0
ARC
  5
E8
  8
INSIDE
 10
-947.4915114588539
 20
-494.5006795678055
 30
0.0
 40
3.0
 50
0.0
 51
180.0
  0
LINE
  5
E9
  8
INSIDE
 10
-950.4915114588539
 20
-494.5006795678055
 30
0.0
 11
-957.9915114588539
 21
-494.5006795678055
 31
0.0
  0
ARC
  5
EA
  8
INSIDE
 10
-960.9915114588539
 20
-494.5006795678055
 30
0.0
 40
3.0
 50
0.0
 51
180.0
  0
LINE
  5
EB
  8
INSIDE
 10
-963.9915114588539
 20
-494.5006795678055
 30
0.0
 11
-963.9915114588539
 21
-551.2319087746291
 31
0.0
  0
ARC
  5
EC
  8
INSIDE
 10
-960.9915114588539
 20
-551.2319087746291
 30
0.0
 40
3.0
 50
180.0
 51
0.0
  0
LINE
  5
ED
  8
INSIDE
 10
-957.9915114588539
 20
-551.2319087746291
 30
0.0
 11
-950.4915114588539
 21
-551.2319087746291
 31
0.0
  0
ARC
  5
EE
  8
INSIDE
 10
-947.4915114588539
 20
-551.2319087746291
 30
0.0
 40
3.0
 50
180.0
 51
0.0
  0
LINE
  5
EF
  8
INSIDE
 10
-944.4915114588593
 20
-352.1336292929054
 30
0.0
 11
-944.4915114588593
 21
-295.4024000860818
 31
0.0
  0
ARC
  5
F0
  8
INSIDE
 10
-947.4915114588593
 20
-295.4024000860818
 30
0.0
 40
3.0
 50
0.0
 51
180.0
  0
LINE
  5
F1
  8
INSIDE
 10
-950.4915114588593
 20
-295.4024000860818
 30
0.0
 11
-957.9915114588593
 21
-295.4024000860818
 31
0.0
  0
ARC
  5
F2
  8
INSIDE
 10
-960.9915114588593
 20
-295.4024000860818
 30
0.0
 40
3.0
 50
0.0
 51
180.0
  0
LINE
  5
F3
  8
INSIDE
 10
-963.9915114588593
 20
-295.4024000860818
 30
0.0
 11
-963.9915114588593
 21
-352.1336292929054
 31
0.0
  0
ARC
  5
F4
  8
INSIDE
 10
-960.9915114588593
 20
-352.1336292929054
 30
0.0
 40
3.0
 50
180.0
 51
0.0
  0
LINE
  5
F5
  8
INSIDE
 10
-957.9915114588593
 20
-352.1336292929054
 30
0.0
 11
-950.4915114588593
 21
-352.1336292929054
 31
0.0
  0
ARC
  5
F6
  8
INSIDE
 10
-947.4915114588593
 20
-352.1336292929054
 30
0.0
 40
3.0
 50
180.0
 51
0.0
  0
LINE
  5
F7
  8
INSIDE
 10
-936.8888469427447
 20
-861.0570120986877
 30
0.0
 11
-936.8888469427447
 21
-804.325782891864
 31
0.0
  0
ARC
  5
F8
  8
INSIDE
 10
-939.8888469427447
 20
-804.325782891864
 30
0.0
 40
3.0
 50
0.0
 51
180.0
  0
LINE
  5
F9
  8
INSIDE
 10
-942.8888469427447
 20
-804.325782891864
 30
0.0
 11
-950.3888469427447
 21
-804.325782891864
 31
0.0
  0
ARC
  5
FA
  8
INSIDE
 10
-953.3888469427447
 20
-804.325782891864
 30
0.0
 40
3.0
 50
0.0
 51
180.0
  0
LINE
  5
FB
  8
INSIDE
 10
-956.3888469427447
 20
-804.325782891864
 30
0.0
 11
-956.3888469427447
 21
-861.0570120986877
 31
0.0
  0
ARC
  5
FC
  8
INSIDE
 10
-953.3888469427447
 20
-861.0570120986877
 30
0.0
 40
3.0
 50
180.0
 51
0.0
  0
LINE
  5
FD
  8
INSIDE
 10
-950.3888469427447
 20
-861.0570120986877
 30
0.0
 11
-942.8888469427447
 21
-861.0570120986877
 31
0.0
  0
ARC
  5
FE
  8
INSIDE
 10
-939.8888469427447
 20
-861.0570120986877
 30
0.0
 40
3.0
 50
180.0
 51
0.0
  0
LINE
  5
FF
  8
INSIDE
 10
-766.6388469440744
 20
-1010.639648112864
 30
0.0
 11
-706.6388469440744
 21
-1010.639648112864
 31
0.0
  0
ARC
  5
100
  8
INSIDE
 10
-706.6388469440744
 20
-1007.639648112863
 30
0.0
 40
3.0
 50
270.0
 51
90.0
  0
LINE
  5
101
  8
INSIDE
 10
-706.6388469440744
 20
-1004.639648112863
 30
0.0
 11
-706.6388469440744
 21
-997.1396481128631
 31
0.0
  0
ARC
  5
102
  8
INSIDE
 10
-706.6388469440744
 20
-994.1396481128631
 30
0.0
 40
3.0
 50
270.0
 51
90.0
  0
LINE
  5
103
  8
INSIDE
 10
-706.6388469440744
 20
-991.1396481128631
 30
0.0
 11
-766.6388469440744
 21
-991.139648112864
 31
0.0
  0
ARC
  5
104
  8
INSIDE
 10
-766.6388469440744
 20
-994.139648112864
 30
0.0
 40
3.0
 50
90.0
 51
270.0
  0
LINE
  5
105
  8
INSIDE
 10
-766.6388469440744
 20
-997.139648112864
 30
0.0
 11
-766.6388469440744
 21
-1004.639648112864
 31
0.0
  0
ARC
  5
106
  8
INSIDE
 10
-766.6388469440744
 20
-1007.639648112864
 30
0.0
 40
3.0
 50
90.0
 51
270.0
  0
LINE
  5
107
  8
INSIDE
 10
-889.868894379114
 20
-588.0437691184206
 30
0.0
 11
-829.868894379114
 21
-588.0437691184206
 31
0.0
  0
ARC
  5
108
  8
INSIDE
 10
-829.868894379114
 20
-585.0437691184197
 30
0.0
 40
3.0
 50
270.0
 51
90.0
  0
LINE
  5
109
  8
INSIDE
 10
-829.868894379114
 20
-582.0437691184197
 30
0.0
 11
-829.868894379114
 21
-574.5437691184197
 31
0.0
  0
ARC
  5
10A
  8
INSIDE
 10
-829.868894379114
 20
-571.5437691184197
 30
0.0
 40
3.0
 50
270.0
 51
90.0
  0
LINE
  5
10B
  8
INSIDE
 10
-829.868894379114
 20
-568.5437691184197
 30
0.0
 11
-889.868894379114
 21
-568.5437691184206
 31
0.0
  0
ARC
  5
10C
  8
INSIDE
 10
-889.868894379114
 20
-571.5437691184206
 30
0.0
 40
3.0
 50
90.0
 51
270.0
  0
LINE
  5
10D
  8
INSIDE
 10
-889.868894379114
 20
-574.5437691184206
 30
0.0
 11
-889.868894379114
 21
-582.0437691184206
 31
0.0
  0
ARC
  5
10E
  8
INSIDE
 10
-889.868894379114
 20
-585.0437691184206
 30
0.0
 40
3.0
 50
90.0
 51
270.0
  0
ARC
  5
10F
  8
DEFAULT
 10
-936.7888469427426
 20
-991.0396481128655
 30
0.0
 40
0.1
 50
179.9999999984367
 51
269.9999999998698
  0
ARC
  5
110
  8
INSIDE
 10
-537.8218754636464
 20
-717.2691275951911
 30
0.0
 40
2.0
 50
0.0000000000260551
 51
92.85845381428798
  0
LINE
  5
111
  8
INSIDE
 10
-537.9216129390943
 20
-715.2716160342752
 30
0.0
 11
-607.2200796230622
 21
-718.7317482693057
 31
0.0
  0
ARC
  5
112
  8
INSIDE
 10
-607.1203421488472
 20
-720.7292598302829
 30
0.0
 40
2.0
 50
92.85845377892963
 51
201.1562609345965
  0
LINE
  5
113
  8
INSIDE
 10
-608.9855413295691
 20
-721.4510853051988
 30
0.0
 11
-539.6870746440864
 21
-900.5185299696168
 31
0.0
  0
ARC
  5
114
  8
INSIDE
 10
-537.8218754633663
 20
-899.7967044947
 30
0.0
 40
2.0
 50
201.1562609346213
 51
359.9999999844972
  0
LINE
  5
115
  8
INSIDE
 10
-535.8218754633663
 20
-899.7967044952411
 30
0.0
 11
-535.8218754636464
 21
-717.2691275951902
 31
0.0
  0
ARC
  5
116
  8
INSIDE
 10
-953.388846941857
 20
-1010.639648112863
 30
0.0
 40
3.000000000000114
 50
180.0
 51
0.0
  0
LINE
  5
117
  8
INSIDE
 10
-950.3888469418571
 20
-1010.639648112863
 30
0.0
 11
-876.6388469440744
 21
-1010.639648112863
 31
0.0
  0
ARC
  5
118
  8
INSIDE
 10
-876.6388469440744
 20
-1007.639648112863
 30
0.0
 40
3.0
 50
270.0
 51
90.0
  0
LINE
  5
119
  8
INSIDE
 10
-876.6388469440744
 20
-1004.639648112863
 30
0.0
 11
-876.6388469440744
 21
-997.1396481128631
 31
0.0
  0
ARC
  5
11A
  8
INSIDE
 10
-876.6388469440744
 20
-994.1396481128631
 30
0.0
 40
3.0
 50
270.0
 51
90.0
  0
LINE
  5
11B
  8
INSIDE
 10
-876.6388469440744
 20
-991.1396481128631
 30
0.0
 11
-934.8888469426975
 21
-991.139648112865
 31
0.0
  0
ARC
  5
11C
  8
INSIDE
 10
-934.8888469426975
 20
-989.139648112865
 30
0.0
 40
2.0
 50
179.9999999986191
 51
270.0
  0
LINE
  5
11D
  8
INSIDE
 10
-936.8888469426975
 20
-989.1396481128168
 30
0.0
 11
-936.888846941858
 21
-954.1584189060486
 31
0.0
  0
ARC
  5
11E
  8
INSIDE
 10
-939.888846941858
 20
-954.1584189060486
 30
0.0
 40
3.0
 50
0.0
 51
180.0
  0
LINE
  5
11F
  8
INSIDE
 10
-942.888846941858
 20
-954.1584189060486
 30
0.0
 11
-950.388846941858
 21
-954.1584189060486
 31
0.0
  0
ARC
  5
120
  8
INSIDE
 10
-953.388846941858
 20
-954.1584189060486
 30
0.0
 40
3.0
 50
0.0
 51
180.0
  0
LINE
  5
121
  8
INSIDE
 10
-956.388846941858
 20
-954.1584189060486
 30
0.0
 11
-956.388846941858
 21
-1010.889648112872
 31
0.0
  0
CIRCLE
  5
122
  8
POINTS
 10
-1966.808919662344
 20
-530.2399644599491
 30
0.0
 40
3.0
  0
CIRCLE
  5
123
  8
POINTS
 10
-972.4037215174876
 20
-438.7687567703861
 30
0.0
 40
3.0
  0
CIRCLE
  5
124
  8
POINTS
 10
-1218.041929647018
 20
-25.23193887547041
 30
0.0
 40
3.0
  0
CIRCLE
  5
125
  8
POINTS
 10
-1318.555351111984
 20
-1061.911413409693
 30
0.0
 40
3.0
  0
CIRCLE
  5
126
  8
POINTS
 10
-531.6000226666538
 20
-417.9566567687898
 30
0.0
 40
3.0
  0
CIRCLE
  5
127
  8
POINTS
 10
-1925.319534701311
 20
-20.41254138420754
 30
0.0
 40
3.0
  0
CIRCLE
  5
128
  8
POINTS
 10
-2009.94714839056
 20
-1059.302585857911
 30
0.0
 40
3.0
  0
LINE
  5
129
  8
OUTSIDE
 10
-2040.0
 20
-10.0
 30
0.0
 11
-1935.964713427293
 21
-50.26128732771122
 31
0.0
  0
LINE
  5
12A
  8
OUTSIDE
 10
-1935.964713427293
 20
-50.26128732771122
 30
0.0
 11
-1949.087187970071
 21
-84.16980069661804
 31
0.0
  0
LINE
  5
12B
  8
OUTSIDE
 10
-1949.087187970071
 20
-84.16980069661804
 30
0.0
 11
-1999.866449778004
 21
-64.5184062775761
 31
0.0
  0
LINE
  5
12C
  8
OUTSIDE
 10
-1999.866449778004
 20
-64.5184062775761
 30
0.0
 11
-1999.866449778002
 21
-887.7174989395626
 31
0.0
  0
LINE
  5
12D
  8
OUTSIDE
 10
-1999.866449778002
 20
-887.7174989395626
 30
0.0
 11
-1953.236470281757
 21
-905.763135804048
 31
0.0
  0
LINE
  5
12E
  8
OUTSIDE
 10
-1953.236470281757
 20
-905.763135804048
 30
0.0
 11
-1967.989868971341
 21
-943.8859620340936
 31
0.0
  0
LINE
  5
12F
  8
OUTSIDE
 10
-1967.989868971341
 20
-943.8859620340936
 30
0.0
 11
-2040.0
 21
-916.0182964432952
 31
0.0
  0
LINE
  5
130
  8
OUTSIDE
 10
-2040.0
 20
-916.0182964432952
 30
0.0
 11
-2040.0
 21
-10.0
 31
0.0
  0
LINE
  5
131
  8
OUTSIDE
 10
-1889.778082183981
 20
-1038.675128240726
 30
0.0
 11
-1993.813368756688
 21
-998.4138409130146
 31
0.0
  0
LINE
  5
132
  8
OUTSIDE
 10
-1993.813368756688
 20
-998.4138409130146
 30
0.0
 11
-1980.69089421391
 21
-964.5053275441087
 31
0.0
  0
LINE
  5
133
  8
OUTSIDE
 10
-1980.69089421391
 20
-964.5053275441087
 30
0.0
 11
-1929.911632405977
 21
-984.1567219631506
 31
0.0
  0
LINE
  5
134
  8
OUTSIDE
 10
-1929.911632405977
 20
-984.1567219631506
 30
0.0
 11
-1929.911632405979
 21
-160.9576293011633
 31
0.0
  0
LINE
  5
135
  8
OUTSIDE
 10
-1929.911632405979
 20
-160.9576293011633
 30
0.0
 11
-1976.541611902225
 21
-142.9119924366787
 31
0.0
  0
LINE
  5
136
  8
OUTSIDE
 10
-1976.541611902225
 20
-142.9119924366787
 30
0.0
 11
-1961.788213212641
 21
-104.789166206634
 31
0.0
  0
LINE
  5
137
  8
OUTSIDE
 10
-1961.788213212641
 20
-104.789166206634
 30
0.0
 11
-1889.778082183981
 21
-132.6568317974316
 31
0.0
  0
LINE
  5
138
  8
OUTSIDE
 10
-1889.778082183981
 20
-132.6568317974316
 30
0.0
 11
-1889.778082183981
 21
-1038.675128240726
 31
0.0
  0
LINE
  5
139
  8
OUTSIDE
 10
-1717.743780407698
 20
-1038.675128240726
 30
0.0
 11
-1821.779066980404
 21
-998.4138409130146
 31
0.0
  0
LINE
  5
13A
  8
OUTSIDE
 10
-1821.779066980404
 20
-998.4138409130146
 30
0.0
 11
-1808.656592437626
 21
-964.5053275441087
 31
0.0
  0
LINE
  5
13B
  8
OUTSIDE
 10
-1808.656592437626
 20
-964.5053275441087
 30
0.0
 11
-1757.877330629693
 21
-984.1567219631506
 31
0.0
  0
LINE
  5
13C
  8
OUTSIDE
 10
-1757.877330629693
 20
-984.1567219631506
 30
0.0
 11
-1757.877330629695
 21
-160.9576293011633
 31
0.0
  0
LINE
  5
13D
  8
OUTSIDE
 10
-1757.877330629695
 20
-160.9576293011633
 30
0.0
 11
-1804.507310125941
 21
-142.9119924366787
 31
0.0
  0
LINE
  5
13E
  8
OUTSIDE
 10
-1804.507310125941
 20
-142.9119924366787
 30
0.0
 11
-1789.753911436357
 21
-104.789166206634
 31
0.0
  0
LINE
  5
13F
  8
OUTSIDE
 10
-1789.753911436357
 20
-104.789166206634
 30
0.0
 11
-1717.743780407698
 21
-132.6568317974316
 31
0.0
  0
LINE
  5
140
  8
OUTSIDE
 10
-1717.743780407698
 20
-132.6568317974316
 30
0.0
 11
-1717.743780407698
 21
-1038.675128240726
 31
0.0
  0
LINE
  5
141
  8
OUTSIDE
 10
-1869.778082183981
 20
-13.38780028769543
 30
0.0
 11
-1765.742795611274
 21
-53.64908761540664
 31
0.0
  0
LINE
  5
142
  8
OUTSIDE
 10
-1765.742795611274
 20
-53.64908761540664
 30
0.0
 11
-1778.865270154052
 21
-87.55760098431347
 31
0.0
  0
LINE
  5
143
  8
OUTSIDE
 10
-1778.865270154052
 20
-87.55760098431347
 30
0.0
 11
-1829.644531961985
 21
-67.90620656527153
 31
0.0
  0
LINE
  5
144
  8
OUTSIDE
 10
-1829.644531961985
 20
-67.90620656527153
 30
0.0
 11
-1829.644531961983
 21
-891.105299227258
 31
0.0
  0
LINE
  5
145
  8
OUTSIDE
 10
-1829.644531961983
 20
-891.105299227258
 30
0.0
 11
-1783.014552465738
 21
-909.1509360917435
 31
0.0
  0
LINE
  5
146
  8
OUTSIDE
 10
-1783.014552465738
 20
-909.1509360917435
 30
0.0
 11
-1797.767951155322
 21
-947.273762321789
 31
0.0
  0
LINE
  5
147
  8
OUTSIDE
 10
-1797.767951155322
 20
-947.273762321789
 30
0.0
 11
-1869.778082183981
 21
-919.4060967309906
 31
0.0
  0
LINE
  5
148
  8
OUTSIDE
 10
-1869.778082183981
 20
-919.4060967309906
 30
0.0
 11
-1869.778082183981
 21
-13.38780028769543
 31
0.0
  0
LINE
  5
149
  8
OUTSIDE
 10
-1545.709478631415
 20
-1038.675128240726
 30
0.0
 11
-1649.744765204121
 21
-998.4138409130146
 31
0.0
  0
LINE
  5
14A
  8
OUTSIDE
 10
-1649.744765204121
 20
-998.4138409130146
 30
0.0
 11
-1636.622290661343
 21
-964.5053275441087
 31
0.0
  0
LINE
  5
14B
  8
OUTSIDE
 10
-1636.622290661343
 20
-964.5053275441087
 30
0.0
 11
-1585.84302885341
 21
-984.1567219631506
 31
0.0
  0
LINE
  5
14C
  8
OUTSIDE
 10
-1585.84302885341
 20
-984.1567219631506
 30
0.0
 11
-1585.843028853412
 21
-160.9576293011633
 31
0.0
  0
LINE
  5
14D
  8
OUTSIDE
 10
-1585.843028853412
 20
-160.9576293011633
 30
0.0
 11
-1632.473008349658
 21
-142.9119924366787
 31
0.0
  0
LINE
  5
14E
  8
OUTSIDE
 10
-1632.473008349658
 20
-142.9119924366787
 30
0.0
 11
-1617.719609660074
 21
-104.789166206634
 31
0.0
  0
LINE
  5
14F
  8
OUTSIDE
 10
-1617.719609660074
 20
-104.789166206634
 30
0.0
 11
-1545.709478631415
 21
-132.6568317974316
 31
0.0
  0
LINE
  5
150
  8
OUTSIDE
 10
-1545.709478631415
 20
-132.6568317974316
 30
0.0
 11
-1545.709478631415
 21
-1038.675128240726
 31
0.0
  0
LINE
  5
151
  8
OUTSIDE
 10
-1697.743780407698
 20
-13.38780028769543
 30
0.0
 11
-1593.708493834991
 21
-53.64908761540664
 31
0.0
  0
LINE
  5
152
  8
OUTSIDE
 10
-1593.708493834991
 20
-53.64908761540664
 30
0.0
 11
-1606.830968377769
 21
-87.55760098431347
 31
0.0
  0
LINE
  5
153
  8
OUTSIDE
 10
-1606.830968377769
 20
-87.55760098431347
 30
0.0
 11
-1657.610230185702
 21
-67.90620656527153
 31
0.0
  0
LINE
  5
154
  8
OUTSIDE
 10
-1657.610230185702
 20
-67.90620656527153
 30
0.0
 11
-1657.6102301857
 21
-891.105299227258
 31
0.0
  0
LINE
  5
155
  8
OUTSIDE
 10
-1657.6102301857
 20
-891.105299227258
 30
0.0
 11
-1610.980250689455
 21
-909.1509360917435
 31
0.0
  0
LINE
  5
156
  8
OUTSIDE
 10
-1610.980250689455
 20
-909.1509360917435
 30
0.0
 11
-1625.733649379039
 21
-947.273762321789
 31
0.0
  0
LINE
  5
157
  8
OUTSIDE
 10
-1625.733649379039
 20
-947.273762321789
 30
0.0
 11
-1697.743780407698
 21
-919.4060967309906
 31
0.0
  0
LINE
  5
158
  8
OUTSIDE
 10
-1697.743780407698
 20
-919.4060967309906
 30
0.0
 11
-1697.743780407698
 21
-13.38780028769543
 31
0.0
  0
LINE
  5
159
  8
OUTSIDE
 10
-1373.675176855131
 20
-1038.675128240726
 30
0.0
 11
-1477.710463427838
 21
-998.4138409130146
 31
0.0
  0
LINE
  5
15A
  8
OUTSIDE
 10
-1477.710463427838
 20
-998.4138409130146
 30
0.0
 11
-1464.58798888506
 21
-964.5053275441087
 31
0.0
  0
LINE
  5
15B
  8
OUTSIDE
 10
-1464.58798888506
 20
-964.5053275441087
 30
0.0
 11
-1413.808727077127
 21
-984.1567219631506
 31
0.0
  0
LINE
  5
15C
  8
OUTSIDE
 10
-1413.808727077127
 20
-984.1567219631506
 30
0.0
 11
-1413.808727077128
 21
-160.9576293011633
 31
0.0
  0
LINE
  5
15D
  8
OUTSIDE
 10
-1413.808727077128
 20
-160.9576293011633
 30
0.0
 11
-1460.438706573374
 21
-142.9119924366787
 31
0.0
  0
LINE
  5
15E
  8
OUTSIDE
 10
-1460.438706573374
 20
-142.9119924366787
 30
0.0
 11
-1445.68530788379
 21
-104.789166206634
 31
0.0
  0
LINE
  5
15F
  8
OUTSIDE
 10
-1445.68530788379
 20
-104.789166206634
 30
0.0
 11
-1373.675176855131
 21
-132.6568317974316
 31
0.0
  0
LINE
  5
160
  8
OUTSIDE
 10
-1373.675176855131
 20
-132.6568317974316
 30
0.0
 11
-1373.675176855131
 21
-1038.675128240726
 31
0.0
  0
LINE
  5
161
  8
OUTSIDE
 10
-1525.709478631415
 20
-13.38780028769543
 30
0.0
 11
-1421.674192058707
 21
-53.64908761540664
 31
0.0
  0
LINE
  5
162
  8
OUTSIDE
 10
-1421.674192058707
 20
-53.64908761540664
 30
0.0
 11
-1434.796666601485
 21
-87.55760098431347
 31
0.0
  0
LINE
  5
163
  8
OUTSIDE
 10
-1434.796666601485
 20
-87.55760098431347
 30
0.0
 11
-1485.575928409418
 21
-67.90620656527153
 31
0.0
  0
LINE
  5
164
  8
OUTSIDE
 10
-1485.575928409418
 20
-67.90620656527153
 30
0.0
 11
-1485.575928409417
 21
-891.105299227258
 31
0.0
  0
LINE
  5
165
  8
OUTSIDE
 10
-1485.575928409417
 20
-891.105299227258
 30
0.0
 11
-1438.945948913171
 21
-909.1509360917435
 31
0.0
  0
LINE
  5
166
  8
OUTSIDE
 10
-1438.945948913171
 20
-909.1509360917435
 30
0.0
 11
-1453.699347602756
 21
-947.273762321789
 31
0.0
  0
LINE
  5
167
  8
OUTSIDE
 10
-1453.699347602756
 20
-947.273762321789
 30
0.0
 11
-1525.709478631415
 21
-919.4060967309906
 31
0.0
  0
LINE
  5
168
  8
OUTSIDE
 10
-1525.709478631415
 20
-919.4060967309906
 30
0.0
 11
-1525.709478631415
 21
-13.38780028769543
 31
0.0
  0
LINE
  5
169
  8
OUTSIDE
 10
-1201.640875078848
 20
-1038.675128240726
 30
0.0
 11
-1305.676161651554
 21
-998.4138409130146
 31
0.0
  0
LINE
  5
16A
  8
OUTSIDE
 10
-1305.676161651554
 20
-998.4138409130146
 30
0.0
 11
-1292.553687108776
 21
-964.5053275441087
 31
0.0
  0
LINE
  5
16B
  8
OUTSIDE
 10
-1292.553687108776
 20
-964.5053275441087
 30
0.0
 11
-1241.774425300843
 21
-984.1567219631506
 31
0.0
  0
LINE
  5
16C
  8
OUTSIDE
 10
-1241.774425300843
 20
-984.1567219631506
 30
0.0
 11
-1241.774425300845
 21
-160.9576293011633
 31
0.0
  0
LINE
  5
16D
  8
OUTSIDE
 10
-1241.774425300845
 20
-160.9576293011633
 30
0.0
 11
-1288.404404797091
 21
-142.9119924366787
 31
0.0
  0
LINE
  5
16E
  8
OUTSIDE
 10
-1288.404404797091
 20
-142.9119924366787
 30
0.0
 11
-1273.651006107507
 21
-104.789166206634
 31
0.0
  0
LINE
  5
16F
  8
OUTSIDE
 10
-1273.651006107507
 20
-104.789166206634
 30
0.0
 11
-1201.640875078848
 21
-132.6568317974316
 31
0.0
  0
LINE
  5
170
  8
OUTSIDE
 10
-1201.640875078848
 20
-132.6568317974316
 30
0.0
 11
-1201.640875078848
 21
-1038.675128240726
 31
0.0
  0
LINE
  5
171
  8
OUTSIDE
 10
-1353.675176855131
 20
-13.38780028769543
 30
0.0
 11
-1249.639890282424
 21
-53.64908761540664
 31
0.0
  0
LINE
  5
172
  8
OUTSIDE
 10
-1249.639890282424
 20
-53.64908761540664
 30
0.0
 11
-1262.762364825202
 21
-87.55760098431347
 31
0.0
  0
LINE
  5
173
  8
OUTSIDE
 10
-1262.762364825202
 20
-87.55760098431347
 30
0.0
 11
-1313.541626633135
 21
-67.90620656527153
 31
0.0
  0
LINE
  5
174
  8
OUTSIDE
 10
-1313.541626633135
 20
-67.90620656527153
 30
0.0
 11
-1313.541626633133
 21
-891.105299227258
 31
0.0
  0
LINE
  5
175
  8
OUTSIDE
 10
-1313.541626633133
 20
-891.105299227258
 30
0.0
 11
-1266.911647136888
 21
-909.1509360917435
 31
0.0
  0
LINE
  5
176
  8
OUTSIDE
 10
-1266.911647136888
 20
-909.1509360917435
 30
0.0
 11
-1281.665045826472
 21
-947.273762321789
 31
0.0
  0
LINE
  5
177
  8
OUTSIDE
 10
-1281.665045826472
 20
-947.273762321789
 30
0.0
 11
-1353.675176855131
 21
-919.4060967309906
 31
0.0
  0
LINE
  5
178
  8
OUTSIDE
 10
-1353.675176855131
 20
-919.4060967309906
 30
0.0
 11
-1353.675176855131
 21
-13.38780028769543
 31
0.0
  0
LINE
  5
179
  8
OUTSIDE
 10
-1181.640875078848
 20
-13.38780028769543
 30
0.0
 11
-1077.605588506141
 21
-53.64908761540664
 31
0.0
  0
LINE
  5
17A
  8
OUTSIDE
 10
-1077.605588506141
 20
-53.64908761540664
 30
0.0
 11
-1090.728063048919
 21
-87.55760098431347
 31
0.0
  0
LINE
  5
17B
  8
OUTSIDE
 10
-1090.728063048919
 20
-87.55760098431347
 30
0.0
 11
-1141.507324856851
 21
-67.90620656527153
 31
0.0
  0
LINE
  5
17C
  8
OUTSIDE
 10
-1141.507324856851
 20
-67.90620656527153
 30
0.0
 11
-1141.50732485685
 21
-891.105299227258
 31
0.0
  0
LINE
  5
17D
  8
OUTSIDE
 10
-1141.50732485685
 20
-891.105299227258
 30
0.0
 11
-1094.877345360605
 21
-909.1509360917435
 31
0.0
  0
LINE
  5
17E
  8
OUTSIDE
 10
-1094.877345360605
 20
-909.1509360917435
 30
0.0
 11
-1109.630744050189
 21
-947.273762321789
 31
0.0
  0
LINE
  5
17F
  8
OUTSIDE
 10
-1109.630744050189
 20
-947.273762321789
 30
0.0
 11
-1181.640875078848
 21
-919.4060967309906
 31
0.0
  0
LINE
  5
180
  8
OUTSIDE
 10
-1181.640875078848
 20
-919.4060967309906
 30
0.0
 11
-1181.640875078848
 21
-13.38780028769543
 31
0.0
  0
LINE
  5
181
  8
OUTSIDE
 10
-1029.606573302564
 20
-1038.675128240726
 30
0.0
 11
-1133.641859875271
 21
-998.4138409130146
 31
0.0
  0
LINE
  5
182
  8
OUTSIDE
 10
-1133.641859875271
 20
-998.4138409130146
 30
0.0
 11
-1120.519385332493
 21
-964.5053275441087
 31
0.0
  0
LINE
  5
183
  8
OUTSIDE
 10
-1120.519385332493
 20
-964.5053275441087
 30
0.0
 11
-1069.74012352456
 21
-984.1567219631506
 31
0.0
  0
LINE
  5
184
  8
OUTSIDE
 10
-1069.74012352456
 20
-984.1567219631506
 30
0.0
 11
-1069.740123524562
 21
-160.9576293011633
 31
0.0
  0
LINE
  5
185
  8
OUTSIDE
 10
-1069.740123524562
 20
-160.9576293011633
 30
0.0
 11
-1116.370103020808
 21
-142.9119924366787
 31
0.0
  0
LINE
  5
186
  8
OUTSIDE
 10
-1116.370103020808
 20
-142.9119924366787
 30
0.0
 11
-1101.616704331223
 21
-104.789166206634
 31
0.0
  0
LINE
  5
187
  8
OUTSIDE
 10
-1101.616704331223
 20
-104.789166206634
 30
0.0
 11
-1029.606573302564
 21
-132.6568317974316
 31
0.0
  0
LINE
  5
188
  8
OUTSIDE
 10
-1029.606573302564
 20
-132.6568317974316
 30
0.0
 11
-1029.606573302564
 21
-1038.675128240726
 31
0.0
  0
ENDSEC
  0
EOF
