  0
SECTION
  2
HEADER
  9
$ACADVER
  1
AC1009
  9
$DWGCODEPAGE
  3
mac-roman
  9
$INSBASE
 10
0.0
 20
0.0
 30
0.0
  9
$EXTMIN
 10
-2918.873692140308
 20
370.9277090228441
 30
0.0
  9
$EXTMAX
 10
-2418.873692140308
 20
1370.927709022844
 30
0.0
  9
$LIMMIN
 10
0.0
 20
0.0
  9
$LIMMAX
 10
12.0
 20
9.0
  9
$ORTHOMODE
 70
     0
  9
$REGENMODE
 70
     1
  9
$FILLMODE
 70
     1
  9
$QTEXTMODE
 70
     0
  9
$MIRRTEXT
 70
     1
  9
$DRAGMODE
 70
     2
  9
$LTSCALE
 40
1.0
  9
$OSMODE
 70
    37
  9
$ATTMODE
 70
     1
  9
$TEXTSIZE
 40
0.2
  9
$TRACEWID
 40
0.05
  9
$TEXTSTYLE
  7
STANDARD
  9
$CLAYER
  8
PREDEFINITO
  9
$CELTYPE
  6
BYLAYER
  9
$CECOLOR
 62
   256
  9
$DIMSCALE
 40
1.0
  9
$DIMASZ
 40
0.18
  9
$DIMEXO
 40
0.0625
  9
$DIMDLI
 40
0.38
  9
$DIMRND
 40
0.0
  9
$DIMDLE
 40
0.0
  9
$DIMEXE
 40
0.18
  9
$DIMTP
 40
0.0
  9
$DIMTM
 40
0.0
  9
$DIMTXT
 40
0.18
  9
$DIMCEN
 40
0.09
  9
$DIMTSZ
 40
0.0
  9
$DIMTOL
 70
     0
  9
$DIMLIM
 70
     0
  9
$DIMTIH
 70
     1
  9
$DIMTOH
 70
     1
  9
$DIMSE1
 70
     0
  9
$DIMSE2
 70
     0
  9
$DIMTAD
 70
     0
  9
$DIMZIN
 70
     0
  9
$DIMBLK
  1

  9
$DIMASO
 70
     1
  9
$DIMSHO
 70
     1
  9
$DIMPOST
  1

  9
$DIMAPOST
  1

  9
$DIMALT
 70
     0
  9
$DIMALTD
 70
     2
  9
$DIMALTF
 40
25.4
  9
$DIMLFAC
 40
1.0
  9
$DIMTOFL
 70
     0
  9
$DIMTVP
 40
0.0
  9
$DIMTIX
 70
     0
  9
$DIMSOXD
 70
     0
  9
$DIMSAH
 70
     0
  9
$DIMBLK1
  1

  9
$DIMBLK2
  1

  9
$DIMSTYLE
  2
STANDARD
  9
$DIMCLRD
 70
     0
  9
$DIMCLRE
 70
     0
  9
$DIMCLRT
 70
     0
  9
$DIMTFAC
 40
1.0
  9
$DIMGAP
 40
0.09
  9
$LUNITS
 70
     2
  9
$LUPREC
 70
     2
  9
$SKETCHINC
 40
0.1
  9
$FILLETRAD
 40
0.5
  9
$AUNITS
 70
     0
  9
$AUPREC
 70
     0
  9
$MENU
  1
.
  9
$ELEVATION
 40
0.0
  9
$PELEVATION
 40
0.0
  9
$THICKNESS
 40
0.0
  9
$LIMCHECK
 70
     0
  9
$CHAMFERA
 40
0.0
  9
$CHAMFERB
 40
0.0
  9
$SKPOLY
 70
     0
  9
$TDCREATE
 40
2457178.63931713
  9
$TDUPDATE
 40
2457178.639490741
  9
$TDINDWG
 40
0.0000000116
  9
$TDUSRTIMER
 40
0.0000000116
  9
$USRTIMER
 70
     1
  9
$ANGBASE
 50
0.0
  9
$ANGDIR
 70
     0
  9
$PDMODE
 70
     0
  9
$PDSIZE
 40
0.0
  9
$PLINEWID
 40
0.0
  9
$COORDS
 70
     1
  9
$SPLFRAME
 70
     0
  9
$SPLINETYPE
 70
     6
  9
$SPLINESEGS
 70
     8
  9
$ATTDIA
 70
     0
  9
$ATTREQ
 70
     1
  9
$HANDLING
 70
     1
  9
$HANDSEED
  5
F0
  9
$SURFTAB1
 70
     6
  9
$SURFTAB2
 70
     6
  9
$SURFTYPE
 70
     6
  9
$SURFU
 70
     6
  9
$SURFV
 70
     6
  9
$UCSNAME
  2

  9
$UCSORG
 10
0.0
 20
0.0
 30
0.0
  9
$UCSXDIR
 10
1.0
 20
0.0
 30
0.0
  9
$UCSYDIR
 10
0.0
 20
1.0
 30
0.0
  9
$PUCSNAME
  2

  9
$PUCSORG
 10
0.0
 20
0.0
 30
0.0
  9
$PUCSXDIR
 10
1.0
 20
0.0
 30
0.0
  9
$PUCSYDIR
 10
0.0
 20
1.0
 30
0.0
  9
$USERI1
 70
     0
  9
$USERI2
 70
     0
  9
$USERI3
 70
     0
  9
$USERI4
 70
     0
  9
$USERI5
 70
     0
  9
$USERR1
 40
0.0
  9
$USERR2
 40
0.0
  9
$USERR3
 40
0.0
  9
$USERR4
 40
0.0
  9
$USERR5
 40
0.0
  9
$WORLDVIEW
 70
     1
  9
$SHADEDGE
 70
     3
  9
$SHADEDIF
 70
    70
  9
$TILEMODE
 70
     1
  9
$MAXACTVP
 70
    64
  9
$PLIMCHECK
 70
     0
  9
$PEXTMIN
 10
1.000000000000000E+20
 20
1.000000000000000E+20
 30
1.000000000000000E+20
  9
$PEXTMAX
 10
-1.000000000000000E+20
 20
-1.000000000000000E+20
 30
-1.000000000000000E+20
  9
$PLIMMIN
 10
0.0
 20
0.0
  9
$PLIMMAX
 10
12.0
 20
9.0
  9
$UNITMODE
 70
     0
  9
$VISRETAIN
 70
     1
  9
$PLINEGEN
 70
     0
  9
$PSLTSCALE
 70
     1
  0
ENDSEC
  0
SECTION
  2
TABLES
  0
TABLE
  2
VPORT
 70
     1
  0
VPORT
  2
*ACTIVE
 70
     0
 10
0.0
 20
0.0
 11
1.0
 21
1.0
 12
-2668.873692140308
 22
870.927709022844
 13
0.0
 23
0.0
 14
0.5
 24
0.5
 15
0.5
 25
0.5
 16
0.0
 26
0.0
 36
1.0
 17
0.0
 27
0.0
 37
0.0
 40
1020.0
 41
0.5
 42
50.0
 43
0.0
 44
0.0
 50
0.0
 51
0.0
 71
     0
 72
   100
 73
     1
 74
     3
 75
     0
 76
     0
 77
     0
 78
     0
  0
ENDTAB
  0
TABLE
  2
LTYPE
 70
     1
  0
LTYPE
  2
CONTINUOUS
 70
     0
  3
Solid line
 72
    65
 73
     0
 40
0.0
  0
ENDTAB
  0
TABLE
  2
LAYER
 70
     4
  0
LAYER
  2
0
 70
     0
 62
     7
  6
CONTINUOUS
  0
LAYER
  2
PREDEFINITO
 70
     0
 62
     7
  6
CONTINUOUS
  0
LAYER
  2
DEFAULT
 70
     0
 62
     7
  6
CONTINUOUS
  0
LAYER
  2
GEARS
 70
     0
 62
    15
  6
CONTINUOUS
  0
ENDTAB
  0
TABLE
  2
STYLE
 70
     1
  0
STYLE
  2
STANDARD
 70
     0
 40
0.0
 41
1.0
 50
0.0
 71
     0
 42
0.2
  3
txt
  4

  0
ENDTAB
  0
TABLE
  2
VIEW
 70
     0
  0
ENDTAB
  0
TABLE
  2
UCS
 70
     0
  0
ENDTAB
  0
TABLE
  2
APPID
 70
     1
  0
APPID
  2
ACAD
 70
     0
  0
ENDTAB
  0
TABLE
  2
DIMSTYLE
 70
     1
  0
DIMSTYLE
  2
STANDARD
 70
     0
  3

  4

  5

  6

  7

 40
1.0
 41
0.18
 42
0.0625
 43
0.38
 44
0.18
 45
0.0
 46
0.0
 47
0.0
 48
0.0
140
0.18
141
0.09
142
0.0
143
25.4
144
1.0
145
0.0
146
1.0
147
0.09
 71
     0
 72
     0
 73
     1
 74
     1
 75
     0
 76
     0
 77
     0
 78
     0
170
     0
171
     2
172
     0
173
     0
174
     0
175
     0
176
     0
177
     0
178
     0
  0
ENDTAB
  0
ENDSEC
  0
SECTION
  2
BLOCKS
  0
BLOCK
  8
0
  2
$MODEL_SPACE
 70
     0
 10
0.0
 20
0.0
 30
0.0
  3
$MODEL_SPACE
  1

  0
ENDBLK
  5
21
  8
0
  0
BLOCK
 67
     1
  8
0
  2
$PAPER_SPACE
 70
     0
 10
0.0
 20
0.0
 30
0.0
  3
$PAPER_SPACE
  1

  0
ENDBLK
  5
1D
 67
     1
  8
0
  0
ENDSEC
  0
SECTION
  2
ENTITIES
  0
CIRCLE
  5
6F
  8
PREDEFINITO
 10
-2526.492505252013
 20
1282.271799688847
 30
0.0
 40
42.07107958345432
  0
CIRCLE
  5
71
  8
DEFAULT
 10
-2526.492505252012
 20
1282.271799688848
 30
0.0
 40
49.07107958345389
  0
CIRCLE
  5
72
  8
PREDEFINITO
 10
-2526.492505252012
 20
1127.271799688847
 30
0.0
 40
42.07107958345432
  0
CIRCLE
  5
73
  8
DEFAULT
 10
-2526.492505252012
 20
1127.271799688848
 30
0.0
 40
49.07107958345389
  0
CIRCLE
  5
74
  8
DEFAULT
 10
-2526.492505252013
 20
1127.271799688847
 30
0.0
 40
75.45118309227891
  0
CIRCLE
  5
75
  8
PREDEFINITO
 10
-2526.492505252013
 20
1127.271799688847
 30
0.0
 40
68.45118309227837
  0
CIRCLE
  5
76
  8
DEFAULT
 10
-2526.492505252013
 20
1282.271799688847
 30
0.0
 40
75.45118309227891
  0
CIRCLE
  5
77
  8
PREDEFINITO
 10
-2526.492505252013
 20
1282.271799688847
 30
0.0
 40
68.45118309227837
  0
CIRCLE
  5
78
  8
PREDEFINITO
 10
-2679.609948936157
 20
1154.127747838761
 30
0.0
 40
5.25
  0
ARC
  5
79
  8
0
  6
CONTINUOUS
 62
     7
 10
-2679.609948938481
 20
1154.12774783825
 30
0.0
 40
79.13939585726499
 50
321.2270224704007
 51
323.7642003330001
  0
ARC
  5
7A
  8
0
  6
CONTINUOUS
 62
     7
 10
-2679.609948937962
 20
1154.127747840095
 30
0.0
 40
79.13939585749914
 50
285.2270224700646
 51
287.7642003326648
  0
ARC
  5
7B
  8
0
  6
CONTINUOUS
 62
     7
 10
-2679.609948936484
 20
1154.127747840438
 30
0.0
 40
79.13939585717117
 50
249.2270224696488
 51
251.7642003322487
  0
ARC
  5
7C
  8
0
  6
CONTINUOUS
 62
     7
 10
-2679.609948934396
 20
1154.127747840194
 30
0.0
 40
79.13939585801458
 50
213.2270224691294
 51
215.7642003317296
  0
ARC
  5
7D
  8
0
  6
CONTINUOUS
 62
     7
 10
-2679.609948934585
 20
1154.127747838479
 30
0.0
 40
79.13939585738878
 50
177.2270224688809
 51
179.7642003314808
  0
ARC
  5
7E
  8
0
  6
CONTINUOUS
 62
     7
 10
-2679.609948934504
 20
1154.127747838556
 30
0.0
 40
79.13939585728806
 50
141.2270224696312
 51
143.7642003322313
  0
ARC
  5
7F
  8
0
  6
CONTINUOUS
 62
     7
 10
-2679.609948936279
 20
1154.127747838726
 30
0.0
 40
49.46118027414245
 50
151.5350774980143
 51
169.4561453024143
  0
ARC
  5
80
  8
0
  6
CONTINUOUS
 62
     7
 10
-2739.826620092666
 20
1139.481487680673
 30
0.0
 40
26.37979861861081
 50
63.93595996814956
 51
135.5454290200499
  0
ARC
  5
81
  8
0
  6
CONTINUOUS
 62
     7
 10
-2738.974845128542
 20
1171.914527251238
 30
0.0
 40
26.37979861863481
 50
221.4457937808998
 51
293.0552628327992
  0
ARC
  5
82
  8
0
  6
CONTINUOUS
 62
     7
 10
-2679.609948936169
 20
1154.127747838826
 30
0.0
 40
49.46118027419228
 50
187.5350774981754
 51
205.4561453025754
  0
ARC
  5
83
  8
0
  6
CONTINUOUS
 62
     7
 10
-2719.717403524324
 20
1106.884203218887
 30
0.0
 40
26.37979861861105
 50
99.93595996790944
 51
171.5454290198093
  0
ARC
  5
84
  8
0
  6
CONTINUOUS
 62
     7
 10
-2738.091965449519
 20
1133.623744172943
 30
0.0
 40
26.37979861859137
 50
257.4457937808808
 51
329.0552628327811
  0
ARC
  5
85
  8
0
  6
CONTINUOUS
 62
     7
 10
-2679.609948936056
 20
1154.127747839043
 30
0.0
 40
49.46118027443658
 50
223.535077498183
 51
241.4561453025833
  0
ARC
  5
86
  8
0
  6
CONTINUOUS
 62
     7
 10
-2684.288502505472
 20
1092.332347052893
 30
0.0
 40
26.37979861860876
 50
135.9359599679573
 51
207.5454290198569
  0
ARC
  5
87
  8
0
  6
CONTINUOUS
 62
     7
 10
-2714.870943192969
 20
1103.164793589549
 30
0.0
 40
26.37979861854904
 50
293.4457937807823
 51
5.055262832682438
  0
ARC
  5
88
  8
0
  6
CONTINUOUS
 62
     7
 10
-2679.609948936289
 20
1154.127747838986
 30
0.0
 40
49.4611802743665
 50
259.5350774982898
 51
277.4561453026902
  0
ARC
  5
89
  8
0
  6
CONTINUOUS
 62
     7
 10
-2647.07255304132
 20
1101.384233638724
 30
0.0
 40
26.3797986186408
 50
171.9359599680239
 51
243.5454290199237
  0
ARC
  5
8A
  8
0
  6
CONTINUOUS
 62
     7
 10
-2678.181419607489
 20
1092.171959362282
 30
0.0
 40
26.37979861857985
 50
329.4457937808751
 51
41.05526283277471
  0
ARC
  5
8B
  8
0
  6
CONTINUOUS
 62
     7
 10
-2679.609948936217
 20
1154.127747838897
 30
0.0
 40
49.46118027427767
 50
295.5350774981601
 51
313.4561453025599
  0
ARC
  5
8C
  8
0
  6
CONTINUOUS
 62
     7
 10
-2622.284782903607
 20
1130.582349962857
 30
0.0
 40
26.37979861865015
 50
207.9359599679537
 51
279.5454290198538
  0
ARC
  5
8D
  8
0
  6
CONTINUOUS
 62
     7
 10
-2642.037545671665
 20
1104.844130533279
 30
0.0
 40
26.37979861857177
 50
5.445793780775539
 51
77.05526283267584
  0
ARC
  5
8E
  8
0
  6
CONTINUOUS
 62
     7
 10
-2679.60994893626
 20
1154.127747838799
 30
0.0
 40
49.461180274278
 50
331.5350774982255
 51
349.4561453026257
  0
ARC
  5
8F
  8
0
  6
CONTINUOUS
 62
     7
 10
-2619.393277779605
 20
1168.774007996965
 30
0.0
 40
26.37979861861622
 50
243.935959967912
 51
315.5454290198116
  0
ARC
  5
90
  8
0
  6
CONTINUOUS
 62
     7
 10
-2679.60994893834
 20
1154.127747839291
 30
0.0
 40
79.13939585798045
 50
357.2270224687442
 51
359.7642003313441
  0
ARC
  5
91
  8
0
  6
CONTINUOUS
 62
     7
 10
-2620.245052743817
 20
1136.340968426414
 30
0.0
 40
26.37979861860572
 50
41.44579378074891
 51
113.0552628326481
  0
ARC
  5
92
  8
0
  6
CONTINUOUS
 62
     7
 10
-2679.60994893614
 20
1154.12774783866
 30
0.0
 40
49.46118027423784
 50
7.535077498363511
 51
25.45614530276323
  0
ARC
  5
93
  8
0
  6
CONTINUOUS
 62
     7
 10
-2639.502494348011
 20
1201.371292458765
 30
0.0
 40
26.37979861861059
 50
279.9359599679096
 51
351.5454290198097
  0
ARC
  5
94
  8
0
  6
CONTINUOUS
 62
     7
 10
-2679.609948938018
 20
1154.127747837572
 30
0.0
 40
79.13939585801748
 50
33.22702246902864
 51
35.76420033162905
  0
ARC
  5
95
  8
0
  6
CONTINUOUS
 62
     7
 10
-2621.127932422813
 20
1174.631751504706
 30
0.0
 40
26.37979861859649
 50
77.44579378088423
 51
149.0552628327837
  0
ARC
  5
96
  8
0
  6
CONTINUOUS
 62
     7
 10
-2679.609948936051
 20
1154.127747838666
 30
0.0
 40
49.46118027436679
 50
79.53507749828717
 51
97.45614530268693
  0
ARC
  5
97
  8
0
  6
CONTINUOUS
 62
     7
 10
-2679.60994893612
 20
1154.127747838753
 30
0.0
 40
49.46118027427764
 50
115.5350774981595
 51
133.4561453025592
  0
ARC
  5
98
  8
0
  6
CONTINUOUS
 62
     7
 10
-2736.935114968728
 20
1177.673145714795
 30
0.0
 40
26.37979861865
 50
27.93595996795334
 51
99.54542901985387
  0
ARC
  5
99
  8
0
  6
CONTINUOUS
 62
     7
 10
-2717.182352200648
 20
1203.4113651444
 30
0.0
 40
26.37979861863258
 50
185.445793780764
 51
257.0552628326636
  0
CIRCLE
  5
9A
  8
PREDEFINITO
 10
-2655.398814402654
 20
1118.894547393507
 30
0.0
 40
1.5
  0
CIRCLE
  5
9B
  8
PREDEFINITO
 10
-2705.637061785733
 20
1120.213932869993
 30
0.0
 40
1.5
  0
CIRCLE
  5
9C
  8
PREDEFINITO
 10
-2703.821083469603
 20
1189.360948284299
 30
0.0
 40
1.5
  0
ARC
  5
9D
  8
0
  6
CONTINUOUS
 62
     7
 10
-2679.609948935819
 20
1154.127747836908
 30
0.0
 40
79.13939585744423
 50
69.2270224697502
 51
71.76420033235028
  0
ARC
  5
9E
  8
0
  6
CONTINUOUS
 62
     7
 10
-2679.609948936279
 20
1154.127747838608
 30
0.0
 40
49.4611802744367
 50
43.53507749818245
 51
61.45614530258214
  0
ARC
  5
9F
  8
0
  6
CONTINUOUS
 62
     7
 10
-2674.931395366862
 20
1215.923148624758
 30
0.0
 40
26.3797986186086
 50
315.9359599679566
 51
27.54542901985694
  0
ARC
  5
A0
  8
0
  6
CONTINUOUS
 62
     7
 10
-2644.348954679375
 20
1205.090702088111
 30
0.0
 40
26.37979861854178
 50
113.4457937808022
 51
185.0552628327026
  0
CIRCLE
  5
A1
  8
PREDEFINITO
 10
-2653.582836086697
 20
1188.041562807709
 30
0.0
 40
1.5
  0
ARC
  5
A2
  8
0
  6
CONTINUOUS
 62
     7
 10
-2679.609948935829
 20
1154.127747838186
 30
0.0
 40
79.13939585650913
 50
105.2270224691688
 51
107.7642003317694
  0
ARC
  5
A3
  8
0
  6
CONTINUOUS
 62
     7
 10
-2712.147344831017
 20
1206.871262038927
 30
0.0
 40
26.37979861864021
 50
351.9359599680242
 51
63.54542901992308
  0
ARC
  5
A4
  8
0
  6
CONTINUOUS
 62
     7
 10
-2681.038478264788
 20
1216.083536315383
 30
0.0
 40
26.37979861863311
 50
149.4457937808154
 51
221.0552628327151
  0
LINE
  5
A5
  8
DEFAULT
 10
-2686.093555190697
 20
1286.381293835277
 30
0.0
 11
-2693.283510264702
 21
1281.132057792645
 31
0.0
  0
LINE
  5
A6
  8
DEFAULT
 10
-2686.207672019034
 20
1271.440179072752
 30
0.0
 11
-2678.813896866945
 21
1276.838219897762
 31
0.0
  0
ARC
  5
A7
  8
DEFAULT
 10
-2689.745573827346
 20
1276.286094716746
 30
0.0
 40
6.0
 50
126.1324011705401
 51
306.13240117054
  0
LINE
  5
A8
  8
DEFAULT
 10
-2663.720836197429
 20
1276.837896436319
 30
0.0
 11
-2669.119875217218
 21
1283.915622651747
 31
0.0
  0
LINE
  5
A9
  8
DEFAULT
 10
-2678.813896866945
 20
1276.838219897762
 30
0.0
 11
-2673.261800573137
 21
1269.559847330861
 31
0.0
  0
ARC
  5
AA
  8
DEFAULT
 10
-2668.49133522128
 20
1273.198859040736
 30
0.0
 40
6.0
 50
217.3371530532153
 51
37.33715305321534
  0
LINE
  5
AB
  8
DEFAULT
 10
-2676.39953354097
 20
1293.458696589263
 30
0.0
 11
-2681.933794397925
 21
1300.713688265876
 31
0.0
  0
ARC
  5
AC
  8
DEFAULT
 10
-2686.70427658578
 20
1297.074663713146
 30
0.0
 40
6.0
 50
37.33715305321534
 51
217.3371530532153
  0
LINE
  5
AD
  8
DEFAULT
 10
-2691.474758773635
 20
1293.435639160418
 30
0.0
 11
-2686.093555190697
 21
1286.381293835277
 31
0.0
  0
LINE
  5
AE
  8
DEFAULT
 10
-2669.119875217218
 20
1283.915622651747
 30
0.0
 11
-2661.953947681254
 21
1289.147316690652
 31
0.0
  0
ARC
  5
AF
  8
DEFAULT
 10
-2665.49186680409
 20
1293.993256050599
 30
0.0
 40
6.0
 50
306.1324011705413
 51
126.1324011705414
  0
LINE
  5
B0
  8
DEFAULT
 10
-2669.029785926923
 20
1298.839195410546
 30
0.0
 11
-2676.39953354097
 21
1293.458696589263
 31
0.0
  0
ARC
  5
B1
  8
0
  6
CONTINUOUS
 62
     7
 10
-2677.609948938531
 20
1285.127747838923
 30
0.0
 40
79.13939585726499
 50
304.9203649986824
 51
307.4575428612821
  0
ARC
  5
B2
  8
0
  6
CONTINUOUS
 62
     7
 10
-2677.609948937514
 20
1285.127747840548
 30
0.0
 40
79.13939585749914
 50
268.9203649983464
 51
271.4575428609467
  0
ARC
  5
B3
  8
0
  6
CONTINUOUS
 62
     7
 10
-2677.609948935999
 20
1285.127747840462
 30
0.0
 40
79.13939585717117
 50
232.9203649979304
 51
235.4575428605305
  0
ARC
  5
B4
  8
0
  6
CONTINUOUS
 62
     7
 10
-2677.609948934065
 20
1285.127747839642
 30
0.0
 40
79.13939585801458
 50
196.9203649974112
 51
199.4575428600112
  0
ARC
  5
B5
  8
0
  6
CONTINUOUS
 62
     7
 10
-2677.609948934728
 20
1285.127747838049
 30
0.0
 40
79.13939585738878
 50
160.9203649971626
 51
163.4575428597625
  0
ARC
  5
B6
  8
0
  6
CONTINUOUS
 62
     7
 10
-2677.609948934627
 20
1285.127747838101
 30
0.0
 40
79.13939585728806
 50
124.920364997913
 51
127.4575428605128
  0
ARC
  5
B7
  8
0
  6
CONTINUOUS
 62
     7
 10
-2677.609948936352
 20
1285.127747836888
 30
0.0
 40
79.13939585744423
 50
52.92036499803193
 51
55.45754286063183
  0
ARC
  5
B8
  8
0
  6
CONTINUOUS
 62
     7
 10
-2677.609948936004
 20
1285.127747838117
 30
0.0
 40
79.13939585650913
 50
88.92036499745072
 51
91.45754286005095
  0
ARC
  5
B9
  8
0
  6
CONTINUOUS
 62
     7
 10
-2694.029221746829
 20
1344.885323945651
 30
0.0
 40
26.37979861864021
 50
335.6293024963058
 51
47.23877154820504
  0
ARC
  5
BA
  8
0
  6
CONTINUOUS
 62
     7
 10
-2677.609948936283
 20
1285.127747838762
 30
0.0
 40
49.46118027414245
 50
135.2284200262962
 51
153.1494878306962
  0
ARC
  5
BB
  8
0
  6
CONTINUOUS
 62
     7
 10
-2739.516615424291
 20
1287.978197999086
 30
0.0
 40
26.37979861861081
 50
47.6293024964313
 51
119.2387715483319
  0
ARC
  5
BC
  8
0
  6
CONTINUOUS
 62
     7
 10
-2729.592613599858
 20
1318.867383228936
 30
0.0
 40
26.37979861863481
 50
205.1391363091817
 51
276.748605361081
  0
ARC
  5
BD
  8
0
  6
CONTINUOUS
 62
     7
 10
-2677.60994893615
 20
1285.127747838826
 30
0.0
 40
49.46118027419228
 50
171.2284200264573
 51
189.1494878308572
  0
ARC
  5
BE
  8
0
  6
CONTINUOUS
 62
     7
 10
-2729.368946756819
 20
1251.045984879773
 30
0.0
 40
26.37979861861105
 50
83.62930249619119
 51
155.2387715480913
  0
ARC
  5
BF
  8
0
  6
CONTINUOUS
 62
     7
 10
-2739.496468162027
 20
1281.86904258928
 30
0.0
 40
26.37979861859137
 50
241.1391363091632
 51
312.7486053610631
  0
ARC
  5
C0
  8
0
  6
CONTINUOUS
 62
     7
 10
-2677.609948935981
 20
1285.127747839004
 30
0.0
 40
49.46118027443658
 50
207.2284200264647
 51
225.149487830865
  0
ARC
  5
C1
  8
0
  6
CONTINUOUS
 62
     7
 10
-2699.45110014541
 20
1227.131846814279
 30
0.0
 40
26.37979861860876
 50
119.6293024962386
 51
191.2387715481383
  0
ARC
  5
C2
  8
0
  6
CONTINUOUS
 62
     7
 10
-2725.761775825282
 20
1246.115416595602
 30
0.0
 40
26.37979861854904
 50
277.1391363090641
 51
348.7486053609641
  0
ARC
  5
C3
  8
0
  6
CONTINUOUS
 62
     7
 10
-2677.60994893622
 20
1285.127747839014
 30
0.0
 40
49.4611802743665
 50
243.2284200265715
 51
261.1494878309717
  0
ARC
  5
C4
  8
0
  6
CONTINUOUS
 62
     7
 10
-2661.19067612547
 20
1225.370171732001
 30
0.0
 40
26.3797986186408
 50
155.6293024963057
 51
227.2387715482057
  0
ARC
  5
C5
  8
0
  6
CONTINUOUS
 62
     7
 10
-2693.634722237337
 20
1225.26317515649
 30
0.0
 40
26.37979861857985
 50
313.139136309157
 51
24.74860536105655
  0
ARC
  5
C6
  8
0
  6
CONTINUOUS
 62
     7
 10
-2677.609948936176
 20
1285.127747838908
 30
0.0
 40
49.46118027427767
 50
279.2284200264417
 51
297.1494878308416
  0
ARC
  5
C7
  8
0
  6
CONTINUOUS
 62
     7
 10
-2629.201856248678
 20
1246.433859637206
 30
0.0
 40
26.37979861865015
 50
191.6293024962354
 51
263.2387715481356
  0
ARC
  5
C8
  8
0
  6
CONTINUOUS
 62
     7
 10
-2655.386749910369
 20
1227.277165760073
 30
0.0
 40
26.37979861857177
 50
349.1391363090571
 51
60.7486053609576
  0
ARC
  5
C9
  8
0
  6
CONTINUOUS
 62
     7
 10
-2677.609948936245
 20
1285.127747838826
 30
0.0
 40
49.461180274278
 50
315.2284200265074
 51
333.1494878309074
  0
ARC
  5
CA
  8
0
  6
CONTINUOUS
 62
     7
 10
-2615.703282447949
 20
1282.277297678535
 30
0.0
 40
26.37979861861622
 50
227.6293024961934
 51
299.2387715480932
  0
ARC
  5
CB
  8
0
  6
CONTINUOUS
 62
     7
 10
-2677.609948938104
 20
1285.127747839883
 30
0.0
 40
79.13939585798045
 50
340.920364997026
 51
343.4575428596257
  0
ARC
  5
CC
  8
0
  6
CONTINUOUS
 62
     7
 10
-2625.627284272462
 20
1251.388112448723
 30
0.0
 40
26.37979861860572
 50
25.13913630903071
 51
96.74860536093033
  0
ARC
  5
CD
  8
0
  6
CONTINUOUS
 62
     7
 10
-2677.609948936169
 20
1285.127747838659
 30
0.0
 40
49.46118027423784
 50
351.2284200266451
 51
9.149487831045045
  0
ARC
  5
CE
  8
0
  6
CONTINUOUS
 62
     7
 10
-2625.850951115478
 20
1319.209510797878
 30
0.0
 40
26.37979861861059
 50
263.629302496191
 51
335.2387715480913
  0
ARC
  5
CF
  8
0
  6
CONTINUOUS
 62
     7
 10
-2677.609948938277
 20
1285.127747838143
 30
0.0
 40
79.13939585801748
 50
16.92036499731039
 51
19.45754285991077
  0
ARC
  5
D0
  8
0
  6
CONTINUOUS
 62
     7
 10
-2615.723429710269
 20
1288.386453088369
 30
0.0
 40
26.37979861859649
 50
61.13913630916577
 51
132.7486053610653
  0
ARC
  5
D1
  8
0
  6
CONTINUOUS
 62
     7
 10
-2677.609948936316
 20
1285.127747838648
 30
0.0
 40
49.4611802744367
 50
27.22842002646402
 51
45.14948783086373
  0
ARC
  5
D2
  8
0
  6
CONTINUOUS
 62
     7
 10
-2655.768797726887
 20
1343.123648863373
 30
0.0
 40
26.3797986186086
 50
299.6293024962388
 51
11.23877154813836
  0
ARC
  5
D3
  8
0
  6
CONTINUOUS
 62
     7
 10
-2629.458122047022
 20
1324.140079082061
 30
0.0
 40
26.37979861854178
 50
97.13913630908402
 51
168.7486053609843
  0
ARC
  5
D4
  8
0
  6
CONTINUOUS
 62
     7
 10
-2677.609948936081
 20
1285.12774783864
 30
0.0
 40
49.46118027436679
 50
63.22842002656883
 51
81.14948783096858
  0
ARC
  5
D5
  8
0
  6
CONTINUOUS
 62
     7
 10
-2661.585175634902
 20
1344.992320521159
 30
0.0
 40
26.37979861863311
 50
133.1391363090972
 51
204.748605360997
  0
ARC
  5
D6
  8
0
  6
CONTINUOUS
 62
     7
 10
-2677.609948936124
 20
1285.127747838743
 30
0.0
 40
49.46118027427764
 50
99.22842002644117
 51
117.149487830841
  0
ARC
  5
D7
  8
0
  6
CONTINUOUS
 62
     7
 10
-2726.018041623619
 20
1323.821636040447
 30
0.0
 40
26.37979861865
 50
11.62930249623544
 51
83.23877154813555
  0
ARC
  5
D8
  8
0
  6
CONTINUOUS
 62
     7
 10
-2699.8331479619
 20
1342.9783299176
 30
0.0
 40
26.37979861863258
 50
169.1391363090457
 51
240.7486053609454
  0
CIRCLE
  5
D9
  8
PREDEFINITO
 10
-2664.265479324839
 20
1244.513925317267
 30
0.0
 40
1.5
  0
CIRCLE
  5
DA
  8
PREDEFINITO
 10
-2712.112321606185
 20
1259.886041692803
 30
0.0
 40
1.5
  0
CIRCLE
  5
DB
  8
PREDEFINITO
 10
-2690.954418547341
 20
1325.741570360512
 30
0.0
 40
1.5
  0
CIRCLE
  5
DC
  8
PREDEFINITO
 10
-2643.107576266189
 20
1310.369453984924
 30
0.0
 40
1.5
  0
CIRCLE
  5
DD
  8
PREDEFINITO
 10
-2832.492505252013
 20
1283.271799688847
 30
0.0
 40
42.07107958345432
  0
CIRCLE
  5
DE
  8
DEFAULT
 10
-2832.492505252013
 20
1283.271799688848
 30
0.0
 40
49.07107958345389
  0
CIRCLE
  5
DF
  8
PREDEFINITO
 10
-2832.492505252013
 20
1128.271799688847
 30
0.0
 40
42.07107958345432
  0
CIRCLE
  5
E0
  8
DEFAULT
 10
-2832.492505252013
 20
1128.271799688848
 30
0.0
 40
49.07107958345389
  0
CIRCLE
  5
E1
  8
DEFAULT
 10
-2832.492505252014
 20
1128.271799688847
 30
0.0
 40
75.45118309227891
  0
CIRCLE
  5
E2
  8
PREDEFINITO
 10
-2832.492505252013
 20
1128.271799688847
 30
0.0
 40
68.45118309227837
  0
CIRCLE
  5
E3
  8
DEFAULT
 10
-2832.492505252014
 20
1283.271799688847
 30
0.0
 40
75.45118309227891
  0
CIRCLE
  5
E4
  8
PREDEFINITO
 10
-2832.492505252013
 20
1283.271799688847
 30
0.0
 40
68.45118309227837
  0
LINE
  5
E6
  8
GEARS
 10
-2418.873692140308
 20
1370.927709022844
 30
0.0
 11
-2418.873692140308
 21
370.9277090228441
 31
0.0
  0
LINE
  5
E7
  8
GEARS
 10
-2918.873692140308
 20
370.9277090228441
 30
0.0
 11
-2918.873692140308
 21
1370.927709022844
 31
0.0
  0
LINE
  5
E8
  8
GEARS
 10
-2918.873692140308
 20
1370.927709022844
 30
0.0
 11
-2418.873692140308
 21
1370.927709022844
 31
0.0
  0
ENDSEC
  0
EOF
